<svg width="900" height="920" viewBox="0 0 900 920" fill="none" xmlns="http://www.w3.org/2000/svg">
<rect width="900" height="920" fill="#F4F4F4"/>
<path d="M224.359 168V164.973H231.02V140.734H224.359V137.688H241.625V140.734H234.965V164.973H241.625V168H224.359Z" fill="#780BFF"/>
<path d="M248.051 168V146.184H251.684V150.949C252.725 149.27 253.982 147.954 255.453 147.004C256.924 146.053 258.396 145.578 259.867 145.578C261.156 145.578 262.328 145.923 263.383 146.613C264.438 147.29 265.173 148.182 265.59 149.289C266.02 150.396 266.234 152.57 266.234 155.812V168H262.602V155.363C262.602 153.267 262.497 151.887 262.289 151.223C262.094 150.546 261.723 149.992 261.176 149.562C260.642 149.133 260.056 148.918 259.418 148.918C258.142 148.918 256.768 149.523 255.297 150.734C253.839 151.945 252.634 153.462 251.684 155.285V168H248.051Z" fill="#780BFF"/>
<path d="M290.434 167.375C287.999 168.195 285.681 168.605 283.48 168.605C281.293 168.605 279.346 168.104 277.641 167.102C275.948 166.086 274.626 164.719 273.676 163C272.725 161.268 272.25 159.302 272.25 157.102C272.25 153.794 273.324 151.047 275.473 148.859C277.634 146.672 280.238 145.578 283.285 145.578C285.538 145.578 287.921 146.001 290.434 146.848V150.344C287.895 149.185 285.622 148.605 283.617 148.605C282.289 148.605 281.039 148.938 279.867 149.602C278.695 150.253 277.79 151.275 277.152 152.668C276.514 154.061 276.195 155.493 276.195 156.965C276.195 158.931 276.807 160.806 278.031 162.59C279.268 164.374 281.202 165.266 283.832 165.266C284.626 165.266 285.408 165.214 286.176 165.109C286.944 164.992 288.363 164.582 290.434 163.879V167.375Z" fill="#780BFF"/>
<path d="M297.953 168V146.184H301.586V150.949C302.719 149.152 304.014 147.811 305.473 146.926C306.944 146.027 308.578 145.578 310.375 145.578C311.69 145.578 313.005 145.78 314.32 146.184V154.055H310.824V149.074C310.212 148.97 309.73 148.918 309.379 148.918C308.025 148.918 306.697 149.452 305.395 150.52C304.092 151.587 302.823 153.189 301.586 155.324V168H297.953Z" fill="#780BFF"/>
<path d="M338.266 166.555C335.362 167.935 332.615 168.625 330.023 168.625C328.057 168.625 326.299 168.137 324.75 167.16C323.201 166.184 321.957 164.79 321.02 162.98C320.095 161.158 319.633 159.211 319.633 157.141C319.633 155.148 320.076 153.234 320.961 151.398C321.846 149.562 323.083 148.137 324.672 147.121C326.26 146.092 328.031 145.578 329.984 145.578C332.576 145.578 334.652 146.503 336.215 148.352C337.79 150.201 338.578 153.052 338.578 156.906V157.688H323.539C323.539 159.198 323.852 160.578 324.477 161.828C325.115 163.078 325.948 164.016 326.977 164.641C328.005 165.266 329.177 165.578 330.492 165.578C332.836 165.578 335.427 164.797 338.266 163.234V166.555ZM323.754 154.973H334.633V154.445C334.633 152.661 334.197 151.242 333.324 150.188C332.452 149.133 331.286 148.605 329.828 148.605C328.357 148.605 327.081 149.146 326 150.227C324.932 151.294 324.184 152.876 323.754 154.973Z" fill="#780BFF"/>
<path d="M358.48 163.098C357.374 164.921 356.039 166.294 354.477 167.219C352.927 168.143 351.501 168.605 350.199 168.605C348.376 168.605 346.736 167.818 345.277 166.242C343.832 164.667 343.109 162.277 343.109 159.074C343.109 156.548 343.591 154.296 344.555 152.316C345.518 150.324 346.807 148.755 348.422 147.609C350.036 146.451 352.035 145.871 354.418 145.871C355.108 145.871 356.15 145.943 357.543 146.086C357.751 146.112 358.064 146.145 358.48 146.184H362.133V161.594C362.133 164.224 362.406 166.359 362.953 168H359.164C358.878 166.802 358.65 165.168 358.48 163.098ZM358.48 158.781V149.426C357.191 149.087 355.993 148.918 354.887 148.918C352.647 148.918 350.779 149.784 349.281 151.516C347.797 153.247 347.055 155.604 347.055 158.586C347.055 160.747 347.458 162.382 348.266 163.488C349.086 164.582 350.017 165.129 351.059 165.129C352.191 165.129 353.441 164.556 354.809 163.41C356.176 162.264 357.4 160.721 358.48 158.781Z" fill="#780BFF"/>
<path d="M368.422 166.848V163C369.88 163.951 371.423 164.621 373.051 165.012C374.678 165.389 376.059 165.578 377.191 165.578C379.027 165.578 380.349 165.285 381.156 164.699C381.964 164.1 382.367 163.358 382.367 162.473C382.367 161.887 382.178 161.385 381.801 160.969C381.423 160.552 380.486 160.038 378.988 159.426L377.738 158.918L375.219 157.922C372.51 156.867 370.805 155.891 370.102 154.992C369.385 154.107 369.027 153.026 369.027 151.75C369.027 149.953 369.717 148.475 371.098 147.316C372.491 146.158 374.743 145.578 377.855 145.578C380.186 145.578 382.393 145.917 384.477 146.594V149.895C382.081 149.035 379.828 148.605 377.719 148.605C376.182 148.605 374.978 148.879 374.105 149.426C373.246 149.96 372.816 150.63 372.816 151.438C372.816 152.219 373.194 152.844 373.949 153.312C374.691 153.781 375.902 154.322 377.582 154.934L380.043 155.832C382.296 156.652 383.878 157.544 384.789 158.508C385.701 159.471 386.156 160.676 386.156 162.121C386.156 164.009 385.427 165.565 383.969 166.789C382.523 168 380.206 168.605 377.016 168.605C374.229 168.605 371.365 168.02 368.422 166.848Z" fill="#780BFF"/>
<path d="M410.336 166.555C407.432 167.935 404.685 168.625 402.094 168.625C400.128 168.625 398.37 168.137 396.82 167.16C395.271 166.184 394.027 164.79 393.09 162.98C392.165 161.158 391.703 159.211 391.703 157.141C391.703 155.148 392.146 153.234 393.031 151.398C393.917 149.562 395.154 148.137 396.742 147.121C398.331 146.092 400.102 145.578 402.055 145.578C404.646 145.578 406.723 146.503 408.285 148.352C409.861 150.201 410.648 153.052 410.648 156.906V157.688H395.609C395.609 159.198 395.922 160.578 396.547 161.828C397.185 163.078 398.018 164.016 399.047 164.641C400.076 165.266 401.247 165.578 402.562 165.578C404.906 165.578 407.497 164.797 410.336 163.234V166.555ZM395.824 154.973H406.703V154.445C406.703 152.661 406.267 151.242 405.395 150.188C404.522 149.133 403.357 148.605 401.898 148.605C400.427 148.605 399.151 149.146 398.07 150.227C397.003 151.294 396.254 152.876 395.824 154.973Z" fill="#780BFF"/>
<path d="M430.785 163.098C429.678 164.921 428.344 166.294 426.781 167.219C425.232 168.143 423.806 168.605 422.504 168.605C420.681 168.605 419.04 167.818 417.582 166.242C416.137 164.667 415.414 162.277 415.414 159.074C415.414 156.548 415.896 154.296 416.859 152.316C417.823 150.324 419.112 148.755 420.727 147.609C422.341 146.451 424.34 145.871 426.723 145.871C427.413 145.871 428.454 145.943 429.848 146.086C430.056 146.112 430.368 146.145 430.785 146.184V136.477H434.438V168H430.785V163.098ZM430.785 158.781V149.426C429.496 149.087 428.298 148.918 427.191 148.918C424.952 148.918 423.083 149.784 421.586 151.516C420.102 153.247 419.359 155.604 419.359 158.586C419.359 160.747 419.763 162.382 420.57 163.488C421.391 164.582 422.322 165.129 423.363 165.129C424.496 165.129 425.746 164.556 427.113 163.41C428.48 162.264 429.704 160.721 430.785 158.781Z" fill="#780BFF"/>
<path d="M478.832 163.098C477.725 164.921 476.391 166.294 474.828 167.219C473.279 168.143 471.853 168.605 470.551 168.605C468.728 168.605 467.087 167.818 465.629 166.242C464.184 164.667 463.461 162.277 463.461 159.074C463.461 156.548 463.943 154.296 464.906 152.316C465.87 150.324 467.159 148.755 468.773 147.609C470.388 146.451 472.387 145.871 474.77 145.871C475.46 145.871 476.501 145.943 477.895 146.086C478.103 146.112 478.415 146.145 478.832 146.184V136.477H482.484V168H478.832V163.098ZM478.832 158.781V149.426C477.543 149.087 476.345 148.918 475.238 148.918C472.999 148.918 471.13 149.784 469.633 151.516C468.148 153.247 467.406 155.604 467.406 158.586C467.406 160.747 467.81 162.382 468.617 163.488C469.438 164.582 470.368 165.129 471.41 165.129C472.543 165.129 473.793 164.556 475.16 163.41C476.527 162.264 477.751 160.721 478.832 158.781Z" fill="#780BFF"/>
<path d="M497.27 168.605C494.145 168.605 491.645 167.518 489.77 165.344C487.895 163.156 486.957 160.402 486.957 157.082C486.957 153.762 487.895 151.014 489.77 148.84C491.645 146.665 494.145 145.578 497.27 145.578C500.382 145.578 502.875 146.665 504.75 148.84C506.625 151.014 507.562 153.762 507.562 157.082C507.562 160.402 506.625 163.156 504.75 165.344C502.875 167.518 500.382 168.605 497.27 168.605ZM497.27 165.578C499.21 165.578 500.753 164.823 501.898 163.312C503.044 161.802 503.617 159.725 503.617 157.082C503.617 154.452 503.044 152.382 501.898 150.871C500.753 149.361 499.21 148.605 497.27 148.605C495.316 148.605 493.767 149.361 492.621 150.871C491.475 152.382 490.902 154.452 490.902 157.082C490.902 159.725 491.475 161.802 492.621 163.312C493.767 164.823 495.316 165.578 497.27 165.578Z" fill="#780BFF"/>
<path d="M513.227 168L509.672 146.184H513.051L515.121 159.465L515.668 162.551L516.195 159.465L519.672 146.184H522.934L526.859 159.465L527.543 162.551L527.992 159.465L530.082 146.184H532.875L529.34 168H525.941L521.762 153.957L521.098 150.871H521L520.395 153.938L516.762 168H513.227Z" fill="#780BFF"/>
<path d="M536.332 168V146.184H539.965V150.949C541.007 149.27 542.263 147.954 543.734 147.004C545.206 146.053 546.677 145.578 548.148 145.578C549.438 145.578 550.609 145.923 551.664 146.613C552.719 147.29 553.454 148.182 553.871 149.289C554.301 150.396 554.516 152.57 554.516 155.812V168H550.883V155.363C550.883 153.267 550.779 151.887 550.57 151.223C550.375 150.546 550.004 149.992 549.457 149.562C548.923 149.133 548.337 148.918 547.699 148.918C546.423 148.918 545.049 149.523 543.578 150.734C542.12 151.945 540.915 153.462 539.965 155.285V168H536.332Z" fill="#780BFF"/>
<path d="M566.215 168V139.523H559.691V136.477H569.848V164.973H576.664V168H566.215Z" fill="#780BFF"/>
<path d="M593.363 168.605C590.238 168.605 587.738 167.518 585.863 165.344C583.988 163.156 583.051 160.402 583.051 157.082C583.051 153.762 583.988 151.014 585.863 148.84C587.738 146.665 590.238 145.578 593.363 145.578C596.475 145.578 598.969 146.665 600.844 148.84C602.719 151.014 603.656 153.762 603.656 157.082C603.656 160.402 602.719 163.156 600.844 165.344C598.969 167.518 596.475 168.605 593.363 168.605ZM593.363 165.578C595.303 165.578 596.846 164.823 597.992 163.312C599.138 161.802 599.711 159.725 599.711 157.082C599.711 154.452 599.138 152.382 597.992 150.871C596.846 149.361 595.303 148.605 593.363 148.605C591.41 148.605 589.861 149.361 588.715 150.871C587.569 152.382 586.996 154.452 586.996 157.082C586.996 159.725 587.569 161.802 588.715 163.312C589.861 164.823 591.41 165.578 593.363 165.578Z" fill="#780BFF"/>
<path d="M622.738 163.098C621.632 164.921 620.297 166.294 618.734 167.219C617.185 168.143 615.759 168.605 614.457 168.605C612.634 168.605 610.993 167.818 609.535 166.242C608.09 164.667 607.367 162.277 607.367 159.074C607.367 156.548 607.849 154.296 608.812 152.316C609.776 150.324 611.065 148.755 612.68 147.609C614.294 146.451 616.293 145.871 618.676 145.871C619.366 145.871 620.408 145.943 621.801 146.086C622.009 146.112 622.322 146.145 622.738 146.184H626.391V161.594C626.391 164.224 626.664 166.359 627.211 168H623.422C623.135 166.802 622.908 165.168 622.738 163.098ZM622.738 158.781V149.426C621.449 149.087 620.251 148.918 619.145 148.918C616.905 148.918 615.036 149.784 613.539 151.516C612.055 153.247 611.312 155.604 611.312 158.586C611.312 160.747 611.716 162.382 612.523 163.488C613.344 164.582 614.275 165.129 615.316 165.129C616.449 165.129 617.699 164.556 619.066 163.41C620.434 162.264 621.658 160.721 622.738 158.781Z" fill="#780BFF"/>
<path d="M646.996 163.098C645.889 164.921 644.555 166.294 642.992 167.219C641.443 168.143 640.017 168.605 638.715 168.605C636.892 168.605 635.251 167.818 633.793 166.242C632.348 164.667 631.625 162.277 631.625 159.074C631.625 156.548 632.107 154.296 633.07 152.316C634.034 150.324 635.323 148.755 636.938 147.609C638.552 146.451 640.551 145.871 642.934 145.871C643.624 145.871 644.665 145.943 646.059 146.086C646.267 146.112 646.579 146.145 646.996 146.184V136.477H650.648V168H646.996V163.098ZM646.996 158.781V149.426C645.707 149.087 644.509 148.918 643.402 148.918C641.163 148.918 639.294 149.784 637.797 151.516C636.312 153.247 635.57 155.604 635.57 158.586C635.57 160.747 635.974 162.382 636.781 163.488C637.602 164.582 638.533 165.129 639.574 165.129C640.707 165.129 641.957 164.556 643.324 163.41C644.691 162.264 645.915 160.721 646.996 158.781Z" fill="#780BFF"/>
<path d="M656.703 166.848V163C658.161 163.951 659.704 164.621 661.332 165.012C662.96 165.389 664.34 165.578 665.473 165.578C667.309 165.578 668.63 165.285 669.438 164.699C670.245 164.1 670.648 163.358 670.648 162.473C670.648 161.887 670.46 161.385 670.082 160.969C669.704 160.552 668.767 160.038 667.27 159.426L666.02 158.918L663.5 157.922C660.792 156.867 659.086 155.891 658.383 154.992C657.667 154.107 657.309 153.026 657.309 151.75C657.309 149.953 657.999 148.475 659.379 147.316C660.772 146.158 663.025 145.578 666.137 145.578C668.467 145.578 670.674 145.917 672.758 146.594V149.895C670.362 149.035 668.109 148.605 666 148.605C664.464 148.605 663.259 148.879 662.387 149.426C661.527 149.96 661.098 150.63 661.098 151.438C661.098 152.219 661.475 152.844 662.23 153.312C662.973 153.781 664.184 154.322 665.863 154.934L668.324 155.832C670.577 156.652 672.159 157.544 673.07 158.508C673.982 159.471 674.438 160.676 674.438 162.121C674.438 164.009 673.708 165.565 672.25 166.789C670.805 168 668.487 168.605 665.297 168.605C662.51 168.605 659.646 168.02 656.703 166.848Z" fill="#780BFF"/>
<path d="M412.094 266.973V243.574C411 244.447 409.939 245.189 408.91 245.801C407.882 246.413 406.469 247.038 404.672 247.676V244.395C407.523 243.184 409.997 241.615 412.094 239.688H415.727V266.973H423.012V270H404.672V266.973H412.094Z" fill="#780BFF"/>
<path d="M437.016 270.918C436.143 270.918 435.395 270.605 434.77 269.98C434.145 269.355 433.832 268.607 433.832 267.734C433.832 266.849 434.145 266.1 434.77 265.488C435.408 264.863 436.156 264.551 437.016 264.551C437.875 264.551 438.617 264.863 439.242 265.488C439.88 266.1 440.199 266.849 440.199 267.734C440.199 268.607 439.887 269.355 439.262 269.98C438.637 270.605 437.888 270.918 437.016 270.918Z" fill="#780BFF"/>
<path d="M462.855 270V261.523H449.984V258.477L462.855 239.688H466.508V258.477H472.113V261.523H466.508V270H462.855ZM462.855 258.477V245.195L453.852 258.477H462.855Z" fill="#780BFF"/>
<path d="M478.363 270H474.164L482.738 258.574L474.73 248.184H479.379L485.062 255.508L490.59 248.184H494.711L487.133 258.223L496.137 270H491.469L484.828 261.309L478.363 270Z" fill="#780BFF"/>
<path d="M189.359 456V452.973H196.02V428.734H189.359V425.688H206.625V428.734H199.965V452.973H206.625V456H189.359Z" fill="#780BFF"/>
<path d="M213.051 456V434.184H216.684V438.949C217.725 437.27 218.982 435.954 220.453 435.004C221.924 434.053 223.396 433.578 224.867 433.578C226.156 433.578 227.328 433.923 228.383 434.613C229.438 435.29 230.173 436.182 230.59 437.289C231.02 438.396 231.234 440.57 231.234 443.812V456H227.602V443.363C227.602 441.267 227.497 439.887 227.289 439.223C227.094 438.546 226.723 437.992 226.176 437.562C225.642 437.133 225.056 436.918 224.418 436.918C223.142 436.918 221.768 437.523 220.297 438.734C218.839 439.945 217.634 441.462 216.684 443.285V456H213.051Z" fill="#780BFF"/>
<path d="M255.434 455.375C252.999 456.195 250.681 456.605 248.48 456.605C246.293 456.605 244.346 456.104 242.641 455.102C240.948 454.086 239.626 452.719 238.676 451C237.725 449.268 237.25 447.302 237.25 445.102C237.25 441.794 238.324 439.047 240.473 436.859C242.634 434.672 245.238 433.578 248.285 433.578C250.538 433.578 252.921 434.001 255.434 434.848V438.344C252.895 437.185 250.622 436.605 248.617 436.605C247.289 436.605 246.039 436.938 244.867 437.602C243.695 438.253 242.79 439.275 242.152 440.668C241.514 442.061 241.195 443.493 241.195 444.965C241.195 446.931 241.807 448.806 243.031 450.59C244.268 452.374 246.202 453.266 248.832 453.266C249.626 453.266 250.408 453.214 251.176 453.109C251.944 452.992 253.363 452.582 255.434 451.879V455.375Z" fill="#780BFF"/>
<path d="M262.953 456V434.184H266.586V438.949C267.719 437.152 269.014 435.811 270.473 434.926C271.944 434.027 273.578 433.578 275.375 433.578C276.69 433.578 278.005 433.78 279.32 434.184V442.055H275.824V437.074C275.212 436.97 274.73 436.918 274.379 436.918C273.025 436.918 271.697 437.452 270.395 438.52C269.092 439.587 267.823 441.189 266.586 443.324V456H262.953Z" fill="#780BFF"/>
<path d="M303.266 454.555C300.362 455.935 297.615 456.625 295.023 456.625C293.057 456.625 291.299 456.137 289.75 455.16C288.201 454.184 286.957 452.79 286.02 450.98C285.095 449.158 284.633 447.211 284.633 445.141C284.633 443.148 285.076 441.234 285.961 439.398C286.846 437.562 288.083 436.137 289.672 435.121C291.26 434.092 293.031 433.578 294.984 433.578C297.576 433.578 299.652 434.503 301.215 436.352C302.79 438.201 303.578 441.052 303.578 444.906V445.688H288.539C288.539 447.198 288.852 448.578 289.477 449.828C290.115 451.078 290.948 452.016 291.977 452.641C293.005 453.266 294.177 453.578 295.492 453.578C297.836 453.578 300.427 452.797 303.266 451.234V454.555ZM288.754 442.973H299.633V442.445C299.633 440.661 299.197 439.242 298.324 438.188C297.452 437.133 296.286 436.605 294.828 436.605C293.357 436.605 292.081 437.146 291 438.227C289.932 439.294 289.184 440.876 288.754 442.973Z" fill="#780BFF"/>
<path d="M323.48 451.098C322.374 452.921 321.039 454.294 319.477 455.219C317.927 456.143 316.501 456.605 315.199 456.605C313.376 456.605 311.736 455.818 310.277 454.242C308.832 452.667 308.109 450.277 308.109 447.074C308.109 444.548 308.591 442.296 309.555 440.316C310.518 438.324 311.807 436.755 313.422 435.609C315.036 434.451 317.035 433.871 319.418 433.871C320.108 433.871 321.15 433.943 322.543 434.086C322.751 434.112 323.064 434.145 323.48 434.184H327.133V449.594C327.133 452.224 327.406 454.359 327.953 456H324.164C323.878 454.802 323.65 453.168 323.48 451.098ZM323.48 446.781V437.426C322.191 437.087 320.993 436.918 319.887 436.918C317.647 436.918 315.779 437.784 314.281 439.516C312.797 441.247 312.055 443.604 312.055 446.586C312.055 448.747 312.458 450.382 313.266 451.488C314.086 452.582 315.017 453.129 316.059 453.129C317.191 453.129 318.441 452.556 319.809 451.41C321.176 450.264 322.4 448.721 323.48 446.781Z" fill="#780BFF"/>
<path d="M333.422 454.848V451C334.88 451.951 336.423 452.621 338.051 453.012C339.678 453.389 341.059 453.578 342.191 453.578C344.027 453.578 345.349 453.285 346.156 452.699C346.964 452.1 347.367 451.358 347.367 450.473C347.367 449.887 347.178 449.385 346.801 448.969C346.423 448.552 345.486 448.038 343.988 447.426L342.738 446.918L340.219 445.922C337.51 444.867 335.805 443.891 335.102 442.992C334.385 442.107 334.027 441.026 334.027 439.75C334.027 437.953 334.717 436.475 336.098 435.316C337.491 434.158 339.743 433.578 342.855 433.578C345.186 433.578 347.393 433.917 349.477 434.594V437.895C347.081 437.035 344.828 436.605 342.719 436.605C341.182 436.605 339.978 436.879 339.105 437.426C338.246 437.96 337.816 438.63 337.816 439.438C337.816 440.219 338.194 440.844 338.949 441.312C339.691 441.781 340.902 442.322 342.582 442.934L345.043 443.832C347.296 444.652 348.878 445.544 349.789 446.508C350.701 447.471 351.156 448.676 351.156 450.121C351.156 452.009 350.427 453.565 348.969 454.789C347.523 456 345.206 456.605 342.016 456.605C339.229 456.605 336.365 456.02 333.422 454.848Z" fill="#780BFF"/>
<path d="M375.336 454.555C372.432 455.935 369.685 456.625 367.094 456.625C365.128 456.625 363.37 456.137 361.82 455.16C360.271 454.184 359.027 452.79 358.09 450.98C357.165 449.158 356.703 447.211 356.703 445.141C356.703 443.148 357.146 441.234 358.031 439.398C358.917 437.562 360.154 436.137 361.742 435.121C363.331 434.092 365.102 433.578 367.055 433.578C369.646 433.578 371.723 434.503 373.285 436.352C374.861 438.201 375.648 441.052 375.648 444.906V445.688H360.609C360.609 447.198 360.922 448.578 361.547 449.828C362.185 451.078 363.018 452.016 364.047 452.641C365.076 453.266 366.247 453.578 367.562 453.578C369.906 453.578 372.497 452.797 375.336 451.234V454.555ZM360.824 442.973H371.703V442.445C371.703 440.661 371.267 439.242 370.395 438.188C369.522 437.133 368.357 436.605 366.898 436.605C365.427 436.605 364.151 437.146 363.07 438.227C362.003 439.294 361.254 440.876 360.824 442.973Z" fill="#780BFF"/>
<path d="M395.785 451.098C394.678 452.921 393.344 454.294 391.781 455.219C390.232 456.143 388.806 456.605 387.504 456.605C385.681 456.605 384.04 455.818 382.582 454.242C381.137 452.667 380.414 450.277 380.414 447.074C380.414 444.548 380.896 442.296 381.859 440.316C382.823 438.324 384.112 436.755 385.727 435.609C387.341 434.451 389.34 433.871 391.723 433.871C392.413 433.871 393.454 433.943 394.848 434.086C395.056 434.112 395.368 434.145 395.785 434.184V424.477H399.438V456H395.785V451.098ZM395.785 446.781V437.426C394.496 437.087 393.298 436.918 392.191 436.918C389.952 436.918 388.083 437.784 386.586 439.516C385.102 441.247 384.359 443.604 384.359 446.586C384.359 448.747 384.763 450.382 385.57 451.488C386.391 452.582 387.322 453.129 388.363 453.129C389.496 453.129 390.746 452.556 392.113 451.41C393.48 450.264 394.704 448.721 395.785 446.781Z" fill="#780BFF"/>
<path d="M431.117 456V434.184H434.75V438.949C435.883 437.152 437.178 435.811 438.637 434.926C440.108 434.027 441.742 433.578 443.539 433.578C444.854 433.578 446.169 433.78 447.484 434.184V442.055H443.988V437.074C443.376 436.97 442.895 436.918 442.543 436.918C441.189 436.918 439.861 437.452 438.559 438.52C437.257 439.587 435.987 441.189 434.75 443.324V456H431.117Z" fill="#780BFF"/>
<path d="M471.43 454.555C468.526 455.935 465.779 456.625 463.188 456.625C461.221 456.625 459.464 456.137 457.914 455.16C456.365 454.184 455.121 452.79 454.184 450.98C453.259 449.158 452.797 447.211 452.797 445.141C452.797 443.148 453.24 441.234 454.125 439.398C455.01 437.562 456.247 436.137 457.836 435.121C459.424 434.092 461.195 433.578 463.148 433.578C465.74 433.578 467.816 434.503 469.379 436.352C470.954 438.201 471.742 441.052 471.742 444.906V445.688H456.703C456.703 447.198 457.016 448.578 457.641 449.828C458.279 451.078 459.112 452.016 460.141 452.641C461.169 453.266 462.341 453.578 463.656 453.578C466 453.578 468.591 452.797 471.43 451.234V454.555ZM456.918 442.973H467.797V442.445C467.797 440.661 467.361 439.242 466.488 438.188C465.616 437.133 464.451 436.605 462.992 436.605C461.521 436.605 460.245 437.146 459.164 438.227C458.096 439.294 457.348 440.876 456.918 442.973Z" fill="#780BFF"/>
<path d="M495.551 455.121C493.845 455.837 492.608 456.26 491.84 456.391C491.072 456.534 490.329 456.605 489.613 456.605C488.09 456.605 486.697 456.312 485.434 455.727C484.171 455.141 483.214 454.275 482.562 453.129C481.924 451.983 481.605 450.212 481.605 447.816V439.027H476.156V436H481.605V427.211H485.238V436H494.945V439.027H485.238V447.758C485.238 449.516 485.447 450.759 485.863 451.488C486.28 452.204 486.833 452.732 487.523 453.07C488.227 453.409 489.053 453.578 490.004 453.578C491.762 453.578 493.611 453.025 495.551 451.918V455.121Z" fill="#780BFF"/>
<path d="M519.477 454.555C516.573 455.935 513.826 456.625 511.234 456.625C509.268 456.625 507.51 456.137 505.961 455.16C504.411 454.184 503.168 452.79 502.23 450.98C501.306 449.158 500.844 447.211 500.844 445.141C500.844 443.148 501.286 441.234 502.172 439.398C503.057 437.562 504.294 436.137 505.883 435.121C507.471 434.092 509.242 433.578 511.195 433.578C513.786 433.578 515.863 434.503 517.426 436.352C519.001 438.201 519.789 441.052 519.789 444.906V445.688H504.75C504.75 447.198 505.062 448.578 505.688 449.828C506.326 451.078 507.159 452.016 508.188 452.641C509.216 453.266 510.388 453.578 511.703 453.578C514.047 453.578 516.638 452.797 519.477 451.234V454.555ZM504.965 442.973H515.844V442.445C515.844 440.661 515.408 439.242 514.535 438.188C513.663 437.133 512.497 436.605 511.039 436.605C509.568 436.605 508.292 437.146 507.211 438.227C506.143 439.294 505.395 440.876 504.965 442.973Z" fill="#780BFF"/>
<path d="M525.355 456V434.184H528.988V438.949C530.03 437.27 531.286 435.954 532.758 435.004C534.229 434.053 535.701 433.578 537.172 433.578C538.461 433.578 539.633 433.923 540.688 434.613C541.742 435.29 542.478 436.182 542.895 437.289C543.324 438.396 543.539 440.57 543.539 443.812V456H539.906V443.363C539.906 441.267 539.802 439.887 539.594 439.223C539.398 438.546 539.027 437.992 538.48 437.562C537.947 437.133 537.361 436.918 536.723 436.918C535.447 436.918 534.073 437.523 532.602 438.734C531.143 439.945 529.939 441.462 528.988 443.285V456H525.355Z" fill="#780BFF"/>
<path d="M567.621 455.121C565.915 455.837 564.678 456.26 563.91 456.391C563.142 456.534 562.4 456.605 561.684 456.605C560.16 456.605 558.767 456.312 557.504 455.727C556.241 455.141 555.284 454.275 554.633 453.129C553.995 451.983 553.676 450.212 553.676 447.816V439.027H548.227V436H553.676V427.211H557.309V436H567.016V439.027H557.309V447.758C557.309 449.516 557.517 450.759 557.934 451.488C558.35 452.204 558.904 452.732 559.594 453.07C560.297 453.409 561.124 453.578 562.074 453.578C563.832 453.578 565.681 453.025 567.621 451.918V455.121Z" fill="#780BFF"/>
<path d="M579.516 456V437.211H573.461V434.184H583.148V452.973H589.223V456H579.516ZM578.91 426.312C578.91 425.492 579.19 424.88 579.75 424.477C580.31 424.073 580.837 423.871 581.332 423.871C581.84 423.871 582.374 424.073 582.934 424.477C583.493 424.88 583.773 425.492 583.773 426.312C583.773 427.12 583.493 427.725 582.934 428.129C582.374 428.533 581.84 428.734 581.332 428.734C580.837 428.734 580.31 428.533 579.75 428.129C579.19 427.725 578.91 427.12 578.91 426.312Z" fill="#780BFF"/>
<path d="M606.41 456.605C603.285 456.605 600.785 455.518 598.91 453.344C597.035 451.156 596.098 448.402 596.098 445.082C596.098 441.762 597.035 439.014 598.91 436.84C600.785 434.665 603.285 433.578 606.41 433.578C609.522 433.578 612.016 434.665 613.891 436.84C615.766 439.014 616.703 441.762 616.703 445.082C616.703 448.402 615.766 451.156 613.891 453.344C612.016 455.518 609.522 456.605 606.41 456.605ZM606.41 453.578C608.35 453.578 609.893 452.823 611.039 451.312C612.185 449.802 612.758 447.725 612.758 445.082C612.758 442.452 612.185 440.382 611.039 438.871C609.893 437.361 608.35 436.605 606.41 436.605C604.457 436.605 602.908 437.361 601.762 438.871C600.616 440.382 600.043 442.452 600.043 445.082C600.043 447.725 600.616 449.802 601.762 451.312C602.908 452.823 604.457 453.578 606.41 453.578Z" fill="#780BFF"/>
<path d="M621.449 456V434.184H625.082V438.949C626.124 437.27 627.38 435.954 628.852 435.004C630.323 434.053 631.794 433.578 633.266 433.578C634.555 433.578 635.727 433.923 636.781 434.613C637.836 435.29 638.572 436.182 638.988 437.289C639.418 438.396 639.633 440.57 639.633 443.812V456H636V443.363C636 441.267 635.896 439.887 635.688 439.223C635.492 438.546 635.121 437.992 634.574 437.562C634.04 437.133 633.454 436.918 632.816 436.918C631.54 436.918 630.167 437.523 628.695 438.734C627.237 439.945 626.033 441.462 625.082 443.285V456H621.449Z" fill="#780BFF"/>
<path d="M672.855 439.086C673.975 437.263 675.31 435.889 676.859 434.965C678.409 434.04 679.835 433.578 681.137 433.578C682.96 433.578 684.6 434.366 686.059 435.941C687.517 437.517 688.246 439.906 688.246 443.109C688.246 445.635 687.758 447.895 686.781 449.887C685.818 451.866 684.529 453.435 682.914 454.594C681.299 455.74 679.301 456.312 676.918 456.312C676.241 456.312 675.199 456.241 673.793 456.098C673.585 456.072 673.272 456.039 672.855 456H669.223V424.477H672.855V439.086ZM672.855 443.402V452.758C674.171 453.096 675.382 453.266 676.488 453.266C678.689 453.266 680.538 452.406 682.035 450.688C683.546 448.956 684.301 446.592 684.301 443.598C684.301 441.423 683.891 439.789 683.07 438.695C682.25 437.602 681.319 437.055 680.277 437.055C679.145 437.055 677.895 437.628 676.527 438.773C675.173 439.919 673.949 441.462 672.855 443.402Z" fill="#780BFF"/>
<path d="M701.547 455.121L691.469 434.184H695.473L703.5 450.551L710.219 434.184H713.871L705.414 454.457C703.63 458.741 701.931 461.586 700.316 462.992C698.715 464.398 696.638 465.102 694.086 465.102C692.979 465.102 691.99 465.004 691.117 464.809V461.605C692.12 461.918 693.077 462.074 693.988 462.074C695.16 462.074 696.202 461.846 697.113 461.391C698.025 460.935 698.858 460.128 699.613 458.969C700.368 457.81 700.902 456.807 701.215 455.961L701.547 455.121Z" fill="#780BFF"/>
<path d="M318.945 558L315.391 536.184H318.77L320.84 549.465L321.387 552.551L321.914 549.465L325.391 536.184H328.652L332.578 549.465L333.262 552.551L333.711 549.465L335.801 536.184H338.594L335.059 558H331.66L327.48 543.957L326.816 540.871H326.719L326.113 543.938L322.48 558H318.945Z" fill="#780BFF"/>
<path d="M360.195 556.555C357.292 557.935 354.544 558.625 351.953 558.625C349.987 558.625 348.229 558.137 346.68 557.16C345.13 556.184 343.887 554.79 342.949 552.98C342.025 551.158 341.562 549.211 341.562 547.141C341.562 545.148 342.005 543.234 342.891 541.398C343.776 539.562 345.013 538.137 346.602 537.121C348.19 536.092 349.961 535.578 351.914 535.578C354.505 535.578 356.582 536.503 358.145 538.352C359.72 540.201 360.508 543.052 360.508 546.906V547.688H345.469C345.469 549.198 345.781 550.578 346.406 551.828C347.044 553.078 347.878 554.016 348.906 554.641C349.935 555.266 351.107 555.578 352.422 555.578C354.766 555.578 357.357 554.797 360.195 553.234V556.555ZM345.684 544.973H356.562V544.445C356.562 542.661 356.126 541.242 355.254 540.188C354.382 539.133 353.216 538.605 351.758 538.605C350.286 538.605 349.01 539.146 347.93 540.227C346.862 541.294 346.113 542.876 345.684 544.973Z" fill="#780BFF"/>
<path d="M384.219 556.555C381.315 557.935 378.568 558.625 375.977 558.625C374.01 558.625 372.253 558.137 370.703 557.16C369.154 556.184 367.91 554.79 366.973 552.98C366.048 551.158 365.586 549.211 365.586 547.141C365.586 545.148 366.029 543.234 366.914 541.398C367.799 539.562 369.036 538.137 370.625 537.121C372.214 536.092 373.984 535.578 375.938 535.578C378.529 535.578 380.605 536.503 382.168 538.352C383.743 540.201 384.531 543.052 384.531 546.906V547.688H369.492C369.492 549.198 369.805 550.578 370.43 551.828C371.068 553.078 371.901 554.016 372.93 554.641C373.958 555.266 375.13 555.578 376.445 555.578C378.789 555.578 381.38 554.797 384.219 553.234V556.555ZM369.707 544.973H380.586V544.445C380.586 542.661 380.15 541.242 379.277 540.188C378.405 539.133 377.24 538.605 375.781 538.605C374.31 538.605 373.034 539.146 371.953 540.227C370.885 541.294 370.137 542.876 369.707 544.973Z" fill="#780BFF"/>
<path d="M391.074 558V526.477H394.707V546.281L405.195 536.184H410.039L399.57 546.281L410.312 558H405.312L394.707 546.281V558H391.074Z" fill="#780BFF"/>
<path d="M422.188 554.973V531.574C421.094 532.447 420.033 533.189 419.004 533.801C417.975 534.413 416.562 535.038 414.766 535.676V532.395C417.617 531.184 420.091 529.615 422.188 527.688H425.82V554.973H433.105V558H414.766V554.973H422.188Z" fill="#780BFF"/>
<path d="M447.109 558.918C446.237 558.918 445.488 558.605 444.863 557.98C444.238 557.355 443.926 556.607 443.926 555.734C443.926 554.849 444.238 554.1 444.863 553.488C445.501 552.863 446.25 552.551 447.109 552.551C447.969 552.551 448.711 552.863 449.336 553.488C449.974 554.1 450.293 554.849 450.293 555.734C450.293 556.607 449.98 557.355 449.355 557.98C448.73 558.605 447.982 558.918 447.109 558.918ZM447.109 541.945C446.237 541.945 445.488 541.633 444.863 541.008C444.238 540.383 443.926 539.634 443.926 538.762C443.926 537.876 444.238 537.128 444.863 536.516C445.501 535.891 446.25 535.578 447.109 535.578C447.969 535.578 448.711 535.891 449.336 536.516C449.974 537.128 450.293 537.876 450.293 538.762C450.293 539.634 449.98 540.383 449.355 541.008C448.73 541.633 447.982 541.945 447.109 541.945Z" fill="#780BFF"/>
<path d="M505.762 545.871V548.918H496.68V558H493.633V548.918H484.551V545.871H493.633V536.789H496.68V545.871H505.762Z" fill="#780BFF"/>
<path d="M516.152 541.652L515.488 541.164C514.564 540.513 513.659 539.556 512.773 538.293C511.888 537.017 511.445 535.617 511.445 534.094C511.445 532.076 512.24 530.357 513.828 528.938C515.417 527.505 517.435 526.789 519.883 526.789C521.38 526.789 522.728 527.062 523.926 527.609C525.124 528.143 526.048 528.938 526.699 529.992C527.35 531.047 527.676 532.199 527.676 533.449C527.676 534.309 527.526 535.142 527.227 535.949C526.927 536.743 526.478 537.538 525.879 538.332C525.293 539.113 524.121 540.22 522.363 541.652L524.004 542.961C525.918 544.523 527.207 545.871 527.871 547.004C528.535 548.137 528.867 549.406 528.867 550.812C528.867 553 528.073 554.901 526.484 556.516C524.896 558.117 522.513 558.918 519.336 558.918C516.146 558.918 513.757 558.169 512.168 556.672C510.579 555.161 509.785 553.293 509.785 551.066C509.785 547.746 511.908 544.608 516.152 541.652ZM519.883 539.797C521.719 538.404 522.865 537.238 523.32 536.301C523.789 535.363 524.023 534.491 524.023 533.684C524.023 532.707 523.594 531.822 522.734 531.027C521.875 530.22 520.768 529.816 519.414 529.816C517.956 529.816 516.842 530.253 516.074 531.125C515.319 531.997 514.941 532.902 514.941 533.84C514.941 534.751 515.26 535.611 515.898 536.418C516.536 537.225 517.559 538.13 518.965 539.133L519.883 539.797ZM518.887 543.586C515.449 546.229 513.73 548.703 513.73 551.008C513.73 552.375 514.297 553.527 515.43 554.465C516.562 555.402 517.904 555.871 519.453 555.871C520.872 555.871 522.142 555.422 523.262 554.523C524.382 553.625 524.941 552.505 524.941 551.164C524.941 549.849 524.258 548.514 522.891 547.16C521.536 545.806 520.592 544.921 520.059 544.504L518.887 543.586Z" fill="#780BFF"/>
<path d="M537.344 527.688C539.232 527.688 540.71 528.391 541.777 529.797C542.858 531.203 543.398 533.026 543.398 535.266C543.398 537.518 542.858 539.348 541.777 540.754C540.71 542.147 539.232 542.844 537.344 542.844C535.456 542.844 533.971 542.147 532.891 540.754C531.81 539.348 531.27 537.518 531.27 535.266C531.27 533.026 531.81 531.203 532.891 529.797C533.971 528.391 535.456 527.688 537.344 527.688ZM537.344 530.129C536.289 530.129 535.521 530.637 535.039 531.652C534.557 532.655 534.316 533.859 534.316 535.266C534.316 536.685 534.557 537.902 535.039 538.918C535.521 539.921 536.289 540.422 537.344 540.422C538.385 540.422 539.147 539.921 539.629 538.918C540.124 537.902 540.371 536.685 540.371 535.266C540.371 533.859 540.124 532.655 539.629 531.652C539.147 530.637 538.385 530.129 537.344 530.129ZM534.453 558.918H531.25L551.973 526.789H555.195L534.453 558.918ZM549.023 542.844C550.833 542.844 552.305 543.521 553.438 544.875C554.57 546.229 555.137 547.974 555.137 550.109C555.137 552.57 554.538 554.504 553.34 555.91C552.142 557.303 550.69 558 548.984 558C547.318 558 545.905 557.336 544.746 556.008C543.587 554.667 543.008 552.805 543.008 550.422C543.008 548.156 543.555 546.327 544.648 544.934C545.742 543.54 547.201 542.844 549.023 542.844ZM549.082 545.266C548.053 545.266 547.292 545.76 546.797 546.75C546.302 547.74 546.055 549.003 546.055 550.539C546.055 552.245 546.354 553.514 546.953 554.348C547.552 555.168 548.255 555.578 549.062 555.578C549.922 555.578 550.645 555.129 551.23 554.23C551.816 553.332 552.109 552.036 552.109 550.344C552.109 549.016 551.862 547.837 551.367 546.809C550.885 545.78 550.124 545.266 549.082 545.266Z" fill="#780BFF"/>
<path d="M310.945 644L307.391 622.184H310.77L312.84 635.465L313.387 638.551L313.914 635.465L317.391 622.184H320.652L324.578 635.465L325.262 638.551L325.711 635.465L327.801 622.184H330.594L327.059 644H323.66L319.48 629.957L318.816 626.871H318.719L318.113 629.938L314.48 644H310.945Z" fill="#780BFF"/>
<path d="M352.195 642.555C349.292 643.935 346.544 644.625 343.953 644.625C341.987 644.625 340.229 644.137 338.68 643.16C337.13 642.184 335.887 640.79 334.949 638.98C334.025 637.158 333.562 635.211 333.562 633.141C333.562 631.148 334.005 629.234 334.891 627.398C335.776 625.562 337.013 624.137 338.602 623.121C340.19 622.092 341.961 621.578 343.914 621.578C346.505 621.578 348.582 622.503 350.145 624.352C351.72 626.201 352.508 629.052 352.508 632.906V633.688H337.469C337.469 635.198 337.781 636.578 338.406 637.828C339.044 639.078 339.878 640.016 340.906 640.641C341.935 641.266 343.107 641.578 344.422 641.578C346.766 641.578 349.357 640.797 352.195 639.234V642.555ZM337.684 630.973H348.562V630.445C348.562 628.661 348.126 627.242 347.254 626.188C346.382 625.133 345.216 624.605 343.758 624.605C342.286 624.605 341.01 625.146 339.93 626.227C338.862 627.294 338.113 628.876 337.684 630.973Z" fill="#780BFF"/>
<path d="M376.219 642.555C373.315 643.935 370.568 644.625 367.977 644.625C366.01 644.625 364.253 644.137 362.703 643.16C361.154 642.184 359.91 640.79 358.973 638.98C358.048 637.158 357.586 635.211 357.586 633.141C357.586 631.148 358.029 629.234 358.914 627.398C359.799 625.562 361.036 624.137 362.625 623.121C364.214 622.092 365.984 621.578 367.938 621.578C370.529 621.578 372.605 622.503 374.168 624.352C375.743 626.201 376.531 629.052 376.531 632.906V633.688H361.492C361.492 635.198 361.805 636.578 362.43 637.828C363.068 639.078 363.901 640.016 364.93 640.641C365.958 641.266 367.13 641.578 368.445 641.578C370.789 641.578 373.38 640.797 376.219 639.234V642.555ZM361.707 630.973H372.586V630.445C372.586 628.661 372.15 627.242 371.277 626.188C370.405 625.133 369.24 624.605 367.781 624.605C366.31 624.605 365.034 625.146 363.953 626.227C362.885 627.294 362.137 628.876 361.707 630.973Z" fill="#780BFF"/>
<path d="M383.074 644V612.477H386.707V632.281L397.195 622.184H402.039L391.57 632.281L402.312 644H397.312L386.707 632.281V644H383.074Z" fill="#780BFF"/>
<path d="M424.344 644H406.004V640.66C406.004 639.801 406.18 638.883 406.531 637.906C406.883 636.917 407.553 635.81 408.543 634.586C409.533 633.362 410.581 632.184 411.688 631.051L413.758 628.941C414.174 628.512 415.086 627.516 416.492 625.953C417.898 624.391 418.823 623.193 419.266 622.359C419.721 621.526 419.949 620.706 419.949 619.898C419.949 618.596 419.428 617.594 418.387 616.891C417.345 616.174 416.173 615.816 414.871 615.816C414.129 615.816 413.296 615.901 412.371 616.07C411.46 616.24 410.659 616.441 409.969 616.676C409.279 616.897 408.159 617.359 406.609 618.062V614.84C408.25 614.059 409.891 613.525 411.531 613.238C413.185 612.939 414.546 612.789 415.613 612.789C417.189 612.789 418.634 613.049 419.949 613.57C421.277 614.078 422.26 614.872 422.898 615.953C423.549 617.034 423.875 618.186 423.875 619.41C423.875 620.777 423.458 622.177 422.625 623.609C421.805 625.042 420.249 626.884 417.957 629.137L415.73 631.344L413.855 633.18C412.671 634.378 411.714 635.536 410.984 636.656C410.255 637.776 409.852 639.111 409.773 640.66H424.344V644Z" fill="#780BFF"/>
<path d="M439.109 644.918C438.237 644.918 437.488 644.605 436.863 643.98C436.238 643.355 435.926 642.607 435.926 641.734C435.926 640.849 436.238 640.1 436.863 639.488C437.501 638.863 438.25 638.551 439.109 638.551C439.969 638.551 440.711 638.863 441.336 639.488C441.974 640.1 442.293 640.849 442.293 641.734C442.293 642.607 441.98 643.355 441.355 643.98C440.73 644.605 439.982 644.918 439.109 644.918ZM439.109 627.945C438.237 627.945 437.488 627.633 436.863 627.008C436.238 626.383 435.926 625.634 435.926 624.762C435.926 623.876 436.238 623.128 436.863 622.516C437.501 621.891 438.25 621.578 439.109 621.578C439.969 621.578 440.711 621.891 441.336 622.516C441.974 623.128 442.293 623.876 442.293 624.762C442.293 625.634 441.98 626.383 441.355 627.008C440.73 627.633 439.982 627.945 439.109 627.945Z" fill="#780BFF"/>
<path d="M497.762 631.871V634.918H488.68V644H485.633V634.918H476.551V631.871H485.633V622.789H488.68V631.871H497.762Z" fill="#780BFF"/>
<path d="M504.891 629.781C505.828 628.388 506.987 627.255 508.367 626.383C509.76 625.497 511.29 625.055 512.957 625.055C514.533 625.055 516.023 625.439 517.43 626.207C518.849 626.975 519.93 628.049 520.672 629.43C521.414 630.797 521.785 632.392 521.785 634.215C521.785 637.092 520.861 639.599 519.012 641.734C517.176 643.857 514.754 644.918 511.746 644.918C508.204 644.918 505.555 643.44 503.797 640.484C502.052 637.516 501.18 633.746 501.18 629.176C501.18 624.124 502.293 620.133 504.52 617.203C506.746 614.26 509.76 612.789 513.562 612.789C515.607 612.789 517.592 613.089 519.52 613.688V617.359C517.358 616.331 515.32 615.816 513.406 615.816C510.698 615.816 508.602 617.06 507.117 619.547C505.633 622.034 504.891 625.185 504.891 629V629.781ZM512.02 641.891C512.996 641.891 513.979 641.604 514.969 641.031C515.958 640.445 516.733 639.553 517.293 638.355C517.866 637.145 518.152 635.829 518.152 634.41C518.152 632.561 517.671 631.044 516.707 629.859C515.757 628.674 514.396 628.082 512.625 628.082C510.789 628.082 509.279 628.772 508.094 630.152C506.922 631.52 506.336 633.186 506.336 635.152C506.336 637.132 506.909 638.753 508.055 640.016C509.214 641.266 510.535 641.891 512.02 641.891Z" fill="#780BFF"/>
<path d="M529.344 613.688C531.232 613.688 532.71 614.391 533.777 615.797C534.858 617.203 535.398 619.026 535.398 621.266C535.398 623.518 534.858 625.348 533.777 626.754C532.71 628.147 531.232 628.844 529.344 628.844C527.456 628.844 525.971 628.147 524.891 626.754C523.81 625.348 523.27 623.518 523.27 621.266C523.27 619.026 523.81 617.203 524.891 615.797C525.971 614.391 527.456 613.688 529.344 613.688ZM529.344 616.129C528.289 616.129 527.521 616.637 527.039 617.652C526.557 618.655 526.316 619.859 526.316 621.266C526.316 622.685 526.557 623.902 527.039 624.918C527.521 625.921 528.289 626.422 529.344 626.422C530.385 626.422 531.147 625.921 531.629 624.918C532.124 623.902 532.371 622.685 532.371 621.266C532.371 619.859 532.124 618.655 531.629 617.652C531.147 616.637 530.385 616.129 529.344 616.129ZM526.453 644.918H523.25L543.973 612.789H547.195L526.453 644.918ZM541.023 628.844C542.833 628.844 544.305 629.521 545.438 630.875C546.57 632.229 547.137 633.974 547.137 636.109C547.137 638.57 546.538 640.504 545.34 641.91C544.142 643.303 542.69 644 540.984 644C539.318 644 537.905 643.336 536.746 642.008C535.587 640.667 535.008 638.805 535.008 636.422C535.008 634.156 535.555 632.327 536.648 630.934C537.742 629.54 539.201 628.844 541.023 628.844ZM541.082 631.266C540.053 631.266 539.292 631.76 538.797 632.75C538.302 633.74 538.055 635.003 538.055 636.539C538.055 638.245 538.354 639.514 538.953 640.348C539.552 641.168 540.255 641.578 541.062 641.578C541.922 641.578 542.645 641.129 543.23 640.23C543.816 639.332 544.109 638.036 544.109 636.344C544.109 635.016 543.862 633.837 543.367 632.809C542.885 631.78 542.124 631.266 541.082 631.266Z" fill="#780BFF"/>
<path d="M319.945 730L316.391 708.184H319.77L321.84 721.465L322.387 724.551L322.914 721.465L326.391 708.184H329.652L333.578 721.465L334.262 724.551L334.711 721.465L336.801 708.184H339.594L336.059 730H332.66L328.48 715.957L327.816 712.871H327.719L327.113 715.938L323.48 730H319.945Z" fill="#780BFF"/>
<path d="M361.195 728.555C358.292 729.935 355.544 730.625 352.953 730.625C350.987 730.625 349.229 730.137 347.68 729.16C346.13 728.184 344.887 726.79 343.949 724.98C343.025 723.158 342.562 721.211 342.562 719.141C342.562 717.148 343.005 715.234 343.891 713.398C344.776 711.562 346.013 710.137 347.602 709.121C349.19 708.092 350.961 707.578 352.914 707.578C355.505 707.578 357.582 708.503 359.145 710.352C360.72 712.201 361.508 715.052 361.508 718.906V719.688H346.469C346.469 721.198 346.781 722.578 347.406 723.828C348.044 725.078 348.878 726.016 349.906 726.641C350.935 727.266 352.107 727.578 353.422 727.578C355.766 727.578 358.357 726.797 361.195 725.234V728.555ZM346.684 716.973H357.562V716.445C357.562 714.661 357.126 713.242 356.254 712.188C355.382 711.133 354.216 710.605 352.758 710.605C351.286 710.605 350.01 711.146 348.93 712.227C347.862 713.294 347.113 714.876 346.684 716.973Z" fill="#780BFF"/>
<path d="M385.219 728.555C382.315 729.935 379.568 730.625 376.977 730.625C375.01 730.625 373.253 730.137 371.703 729.16C370.154 728.184 368.91 726.79 367.973 724.98C367.048 723.158 366.586 721.211 366.586 719.141C366.586 717.148 367.029 715.234 367.914 713.398C368.799 711.562 370.036 710.137 371.625 709.121C373.214 708.092 374.984 707.578 376.938 707.578C379.529 707.578 381.605 708.503 383.168 710.352C384.743 712.201 385.531 715.052 385.531 718.906V719.688H370.492C370.492 721.198 370.805 722.578 371.43 723.828C372.068 725.078 372.901 726.016 373.93 726.641C374.958 727.266 376.13 727.578 377.445 727.578C379.789 727.578 382.38 726.797 385.219 725.234V728.555ZM370.707 716.973H381.586V716.445C381.586 714.661 381.15 713.242 380.277 712.188C379.405 711.133 378.24 710.605 376.781 710.605C375.31 710.605 374.034 711.146 372.953 712.227C371.885 713.294 371.137 714.876 370.707 716.973Z" fill="#780BFF"/>
<path d="M392.074 730V698.477H395.707V718.281L406.195 708.184H411.039L400.57 718.281L411.312 730H406.312L395.707 718.281V730H392.074Z" fill="#780BFF"/>
<path d="M414.926 729.453V725.625C417.908 727.135 420.492 727.891 422.68 727.891C424.685 727.891 426.339 727.285 427.641 726.074C428.956 724.85 429.613 723.281 429.613 721.367C429.613 719.44 428.891 717.871 427.445 716.66C426.013 715.449 423.572 714.844 420.121 714.844H418.109V711.816H420.902C423.441 711.816 425.277 711.25 426.41 710.117C427.543 708.971 428.109 707.702 428.109 706.309C428.109 705.046 427.647 703.984 426.723 703.125C425.798 702.253 424.379 701.816 422.465 701.816C420.316 701.816 418.005 702.422 415.531 703.633V700.176C418.005 699.251 420.271 698.789 422.328 698.789C426.013 698.789 428.552 699.518 429.945 700.977C431.352 702.422 432.055 704.076 432.055 705.938C432.055 707.318 431.684 708.613 430.941 709.824C430.199 711.035 428.832 712.116 426.84 713.066C428.598 713.587 429.926 714.225 430.824 714.98C431.723 715.736 432.4 716.628 432.855 717.656C433.324 718.685 433.559 719.837 433.559 721.113C433.559 723.952 432.504 726.296 430.395 728.145C428.298 729.993 425.583 730.918 422.25 730.918C421.286 730.918 420.232 730.846 419.086 730.703C417.953 730.56 416.566 730.143 414.926 729.453Z" fill="#780BFF"/>
<path d="M448.109 730.918C447.237 730.918 446.488 730.605 445.863 729.98C445.238 729.355 444.926 728.607 444.926 727.734C444.926 726.849 445.238 726.1 445.863 725.488C446.501 724.863 447.25 724.551 448.109 724.551C448.969 724.551 449.711 724.863 450.336 725.488C450.974 726.1 451.293 726.849 451.293 727.734C451.293 728.607 450.98 729.355 450.355 729.98C449.73 730.605 448.982 730.918 448.109 730.918ZM448.109 713.945C447.237 713.945 446.488 713.633 445.863 713.008C445.238 712.383 444.926 711.634 444.926 710.762C444.926 709.876 445.238 709.128 445.863 708.516C446.501 707.891 447.25 707.578 448.109 707.578C448.969 707.578 449.711 707.891 450.336 708.516C450.974 709.128 451.293 709.876 451.293 710.762C451.293 711.634 450.98 712.383 450.355 713.008C449.73 713.633 448.982 713.945 448.109 713.945Z" fill="#780BFF"/>
<path d="M506.762 717.871V720.918H497.68V730H494.633V720.918H485.551V717.871H494.633V708.789H497.68V717.871H506.762Z" fill="#780BFF"/>
<path d="M521.996 730V721.523H509.125V718.477L521.996 699.688H525.648V718.477H531.254V721.523H525.648V730H521.996ZM521.996 718.477V705.195L512.992 718.477H521.996Z" fill="#780BFF"/>
<path d="M538.344 699.688C540.232 699.688 541.71 700.391 542.777 701.797C543.858 703.203 544.398 705.026 544.398 707.266C544.398 709.518 543.858 711.348 542.777 712.754C541.71 714.147 540.232 714.844 538.344 714.844C536.456 714.844 534.971 714.147 533.891 712.754C532.81 711.348 532.27 709.518 532.27 707.266C532.27 705.026 532.81 703.203 533.891 701.797C534.971 700.391 536.456 699.688 538.344 699.688ZM538.344 702.129C537.289 702.129 536.521 702.637 536.039 703.652C535.557 704.655 535.316 705.859 535.316 707.266C535.316 708.685 535.557 709.902 536.039 710.918C536.521 711.921 537.289 712.422 538.344 712.422C539.385 712.422 540.147 711.921 540.629 710.918C541.124 709.902 541.371 708.685 541.371 707.266C541.371 705.859 541.124 704.655 540.629 703.652C540.147 702.637 539.385 702.129 538.344 702.129ZM535.453 730.918H532.25L552.973 698.789H556.195L535.453 730.918ZM550.023 714.844C551.833 714.844 553.305 715.521 554.438 716.875C555.57 718.229 556.137 719.974 556.137 722.109C556.137 724.57 555.538 726.504 554.34 727.91C553.142 729.303 551.69 730 549.984 730C548.318 730 546.905 729.336 545.746 728.008C544.587 726.667 544.008 724.805 544.008 722.422C544.008 720.156 544.555 718.327 545.648 716.934C546.742 715.54 548.201 714.844 550.023 714.844ZM550.082 717.266C549.053 717.266 548.292 717.76 547.797 718.75C547.302 719.74 547.055 721.003 547.055 722.539C547.055 724.245 547.354 725.514 547.953 726.348C548.552 727.168 549.255 727.578 550.062 727.578C550.922 727.578 551.645 727.129 552.23 726.23C552.816 725.332 553.109 724.036 553.109 722.344C553.109 721.016 552.862 719.837 552.367 718.809C551.885 717.78 551.124 717.266 550.082 717.266Z" fill="#780BFF"/>
</svg>
