<?xml version="1.0" encoding="UTF-8"?>
<svg width="1500px" height="900px" viewBox="0 0 1500 900" version="1.1" xmlns="http://www.w3.org/2000/svg" xmlns:xlink="http://www.w3.org/1999/xlink">
    <!-- Generator: Sketch 47.1 (45422) - http://www.bohemiancoding.com/sketch -->
    <title>backe-logo</title>
    <desc>Created with Sketch.</desc>
    <defs></defs>
    <g id="Page-2" stroke="none" stroke-width="1" fill="none" fill-rule="evenodd">
        <g id="content-bäcke" transform="translate(0.000000, -1645.000000)">
            <g id="backe-logo" transform="translate(0.000000, 1645.000000)">
                <rect id="Rectangle" fill="#EDBBA6" x="0" y="0" width="1500" height="900"></rect>
                <g id="bäcke_logo_web" transform="translate(270.000000, 240.000000)" stroke-linecap="round" stroke="#F2F2F2" stroke-width="3" stroke-linejoin="round">
                    <g id="Group" transform="translate(200.000000, 26.000000)">
                        <path d="M53.333,107.333 C53.333,107.333 80,134 106.666,134 L106.666,267.333 L106.666,294 L160,267.333 L160,107.333 C133.333,107.333 106.667,80.666 106.667,80.666 L53.333,107.333 Z" id="Shape"></path>
                        <circle id="Oval" cx="26.667" cy="27.333" r="26.667"></circle>
                        <circle id="Oval" cx="128" cy="27.333" r="26.667"></circle>
                        <path d="M53.333,107.333 L0,134 L0,267.333 C0,267.333 26.667,294 53.333,294 C80,294 106.666,267.333 106.666,267.333 C79.999,267.333 53.333,240.667 53.333,240.667 L53.333,107.333 L53.333,107.333 Z" id="Shape"></path>
                    </g>
                    <g id="Group" transform="translate(404.000000, 106.000000)">
                        <path d="M160,160.667 C133.333,160.667 106.667,187.333 106.667,187.333" id="Shape"></path>
                        <path d="M53.333,27.333 C53.333,27.333 80,54 106.666,54 C133.333,54 160,27.333 160,27.333 C133.333,27.333 106.667,0.666 106.667,0.666 L53.333,27.333 Z" id="Shape"></path>
                        <path d="M0,187.333 C0,187.333 26.669,214 53.333,214 C80,214 106.666,187.333 106.666,187.333 C79.999,187.333 53.333,160.667 53.333,160.667 L53.333,27.333 L0,54 L0,187.333 Z" id="Shape"></path>
                    </g>
                    <g id="Group" transform="translate(800.000000, 106.000000)">
                        <path d="M160,160.667 C133.333,160.667 106.667,187.333 106.667,187.333" id="Shape"></path>
                        <path d="M106.667,54 C80,54 53.333,80.667 53.333,80.667" id="Shape"></path>
                        <path d="M160,27.333 C133.333,27.333 106.667,0.666 106.667,0.666 L53.333,27.333 C53.333,27.333 80,54 106.667,54 C133.333,54 160,27.333 160,27.333 Z" id="Shape"></path>
                        <path d="M0,54 L0,187.333 C0,187.333 26.667,214 53.333,214 C80,214 106.667,187.333 106.667,187.333 C80,187.333 53.333,160.667 53.333,160.667 L53.333,27.333 L0,54 Z" id="Shape"></path>
                    </g>
                    <g id="Group">
                        <path d="M53.333,133.333 C53.333,133.333 80,160 106.666,160 L106.666,293.333 L160,266.667 L160,133.333 C133.333,133.333 106.667,106.666 106.667,106.666 L53.333,133.333 Z" id="Shape"></path>
                        <path d="M53.333,133.333 L53.333,0 L0,26.667 L0,293.334 C0,293.334 26.667,320.001 53.333,320.001 C80,320.001 106.666,293.334 106.666,293.334 C79.999,293.334 53.333,266.668 53.333,266.668 L53.333,133.333 Z" id="Shape"></path>
                    </g>
                    <g id="Group" transform="translate(600.000000, 0.000000)">
                        <path d="M106.667,106.667 L53.333,133.334 C53.333,133.334 80,160.001 106.667,160.001 C133.333,160 160,133.333 160,133.333 C133.333,133.333 106.667,106.667 106.667,106.667 Z" id="Shape"></path>
                        <polygon id="Shape" points="106.667 320 160 293.333 106.667 160 53.333 186.667"></polygon>
                        <polygon id="Shape" points="53.333 0 0 26.667 0 320 53.333 293.333 53.333 186.667 53.333 133.333"></polygon>
                    </g>
                </g>
            </g>
        </g>
    </g>
</svg>