<svg width="900" height="920" viewBox="0 0 900 920" fill="none" xmlns="http://www.w3.org/2000/svg">
<style>
    .word-group {
        animation: text 2s infinite;
    }
    .word-group .white {
        animation: white-word 1s infinite alternate;
    } 
    .word-group .white path {
        fill: #3000ff;
    }
    .word-group .black path {
        animation: black-word 2s infinite alternate;
    }
    .word-group:nth-of-type(1) {
        animation-delay: -1s;
    }
    .word-group:nth-of-type(2) {
        animation-delay: -0.6s;
    }
    .word-group:nth-of-type(3) {
        animation-delay: -0.3s;
    }
    .word-group:nth-of-type(4) {
        animation-delay: 0s;
    }
    .word path {
        animation: letter 2s infinite alternate;
    }
    .word path:nth-of-type(1) {
        animation-delay: -2s;
    }
    .word path:nth-of-type(2) {
        animation-delay: -1.6s;
    }
    .word path:nth-of-type(3) {
        animation-delay: -1.3s;
    }
    .word path:nth-of-type(4) {
        animation-delay: -1s;
    }
    .word path:nth-of-type(5) {
        animation-delay: -0.6s;
    }
    .word path:nth-of-type(6) {
        animation-delay: -0.3s;
    }
    .word path:nth-of-type(7) {
        animation-delay: -0.15s;
    }
    .word path:nth-of-type(8) {
        animation-delay: 0s;
    }
    @keyframes text {
        0% {
            transform: translateX(0px);
        }
        75% {
            opacity: 1;
        }
        100% {
            transform: translateX(-450px);
            opacity: 0;
        }
    }
    @keyframes letter {
        0% {
            transform: translateY(0);
        }
        100% {
            transform: translateY(4px);
        }
    }

    @keyframes white-word {
        0% {
            transform: translate(-2px, -2px);
        }
        100% {
            transform: translate(2px, 2px);
        }
    }

    @keyframes black-word {
        0% {
            fill: rgba(0,255,255,0.8);
        }
        100% {
            fill: rgba(0,255,100,0.8);
        }
    }
</style>
<rect width="900" height="920" fill="#F4F4F4"/>
<mask id="mask0" mask-type="alpha" maskUnits="userSpaceOnUse" x="96" y="220" width="708" height="480">
<rect x="96" y="220" width="708" height="480" rx="110" fill="#C4C4C4"/>
</mask>
<g mask="url(#mask0)">
<g filter="url(#filter0_i)">
<rect x="96" y="224" width="200" height="472" rx="100" fill="url(#paint0_linear)"/>
</g>
<g class="text">
    <g class="friends word-group">
        <g class="white-friends white word">
            <path class="letter" d="M651.601 432V417.72L650.088 417.482C649.759 417.414 649.493 417.301 649.289 417.142C649.096 416.972 649 416.734 649 416.428V414.711H651.601V413.419C651.601 412.422 651.748 411.526 652.043 410.733C652.349 409.94 652.78 409.265 653.335 408.71C653.902 408.155 654.587 407.73 655.392 407.435C656.197 407.14 657.103 406.993 658.112 406.993C658.917 406.993 659.665 407.101 660.356 407.316L660.271 409.424C660.26 409.583 660.214 409.713 660.135 409.815C660.056 409.906 659.948 409.979 659.812 410.036C659.687 410.081 659.54 410.115 659.37 410.138C659.2 410.149 659.019 410.155 658.826 410.155C658.327 410.155 657.88 410.212 657.483 410.325C657.098 410.427 656.769 410.614 656.497 410.886C656.225 411.147 656.015 411.498 655.868 411.94C655.732 412.371 655.664 412.909 655.664 413.555V414.711H660.203V417.703H655.8V432H651.601Z" fill="white"/>
            <path class="letter" d="M666.524 417.584C667.068 416.541 667.714 415.725 668.462 415.136C669.21 414.535 670.094 414.235 671.114 414.235C671.918 414.235 672.564 414.411 673.052 414.762L672.78 417.907C672.723 418.111 672.638 418.258 672.525 418.349C672.423 418.428 672.281 418.468 672.1 418.468C671.93 418.468 671.675 418.44 671.335 418.383C671.006 418.326 670.683 418.298 670.366 418.298C669.901 418.298 669.487 418.366 669.125 418.502C668.762 418.638 668.433 418.836 668.139 419.097C667.855 419.346 667.6 419.652 667.374 420.015C667.158 420.378 666.954 420.791 666.762 421.256V432H662.563V414.558H665.028C665.458 414.558 665.759 414.637 665.929 414.796C666.099 414.943 666.212 415.215 666.269 415.612L666.524 417.584Z" fill="white"/>
            <path class="letter" d="M679.598 414.558V432H675.382V414.558H679.598ZM680.176 409.475C680.176 409.838 680.102 410.178 679.955 410.495C679.808 410.812 679.609 411.09 679.36 411.328C679.122 411.566 678.839 411.759 678.51 411.906C678.181 412.042 677.83 412.11 677.456 412.11C677.093 412.11 676.748 412.042 676.419 411.906C676.102 411.759 675.824 411.566 675.586 411.328C675.348 411.09 675.155 410.812 675.008 410.495C674.872 410.178 674.804 409.838 674.804 409.475C674.804 409.101 674.872 408.75 675.008 408.421C675.155 408.092 675.348 407.809 675.586 407.571C675.824 407.333 676.102 407.146 676.419 407.01C676.748 406.863 677.093 406.789 677.456 406.789C677.83 406.789 678.181 406.863 678.51 407.01C678.839 407.146 679.122 407.333 679.36 407.571C679.609 407.809 679.808 408.092 679.955 408.421C680.102 408.75 680.176 409.101 680.176 409.475Z" fill="white"/>
            <path class="letter" d="M695.116 421.273C695.116 420.729 695.037 420.219 694.878 419.743C694.731 419.256 694.504 418.831 694.198 418.468C693.892 418.105 693.501 417.822 693.025 417.618C692.56 417.403 692.016 417.295 691.393 417.295C690.18 417.295 689.223 417.641 688.52 418.332C687.829 419.023 687.387 420.004 687.194 421.273H695.116ZM687.109 423.806C687.177 424.701 687.336 425.478 687.585 426.135C687.834 426.781 688.163 427.319 688.571 427.75C688.979 428.169 689.461 428.487 690.016 428.702C690.583 428.906 691.206 429.008 691.886 429.008C692.566 429.008 693.15 428.929 693.637 428.77C694.136 428.611 694.566 428.436 694.929 428.243C695.303 428.05 695.626 427.875 695.898 427.716C696.181 427.557 696.453 427.478 696.714 427.478C697.065 427.478 697.326 427.608 697.496 427.869L698.703 429.399C698.238 429.943 697.717 430.402 697.139 430.776C696.561 431.139 695.955 431.433 695.32 431.66C694.697 431.875 694.056 432.028 693.399 432.119C692.753 432.21 692.124 432.255 691.512 432.255C690.299 432.255 689.172 432.057 688.129 431.66C687.086 431.252 686.18 430.657 685.409 429.875C684.638 429.082 684.032 428.107 683.59 426.951C683.148 425.784 682.927 424.435 682.927 422.905C682.927 421.715 683.12 420.599 683.505 419.556C683.89 418.502 684.44 417.59 685.154 416.819C685.879 416.037 686.758 415.419 687.789 414.966C688.832 414.513 690.005 414.286 691.308 414.286C692.407 414.286 693.422 414.462 694.351 414.813C695.28 415.164 696.079 415.68 696.748 416.36C697.417 417.029 697.938 417.856 698.312 418.842C698.697 419.817 698.89 420.933 698.89 422.191C698.89 422.826 698.822 423.256 698.686 423.483C698.55 423.698 698.289 423.806 697.904 423.806H687.109Z" fill="white"/>
            <path class="letter" d="M705.968 416.7C706.319 416.349 706.688 416.026 707.073 415.731C707.47 415.425 707.883 415.17 708.314 414.966C708.756 414.751 709.226 414.586 709.725 414.473C710.224 414.348 710.768 414.286 711.357 414.286C712.309 414.286 713.153 414.45 713.89 414.779C714.627 415.096 715.239 415.55 715.726 416.139C716.225 416.717 716.599 417.414 716.848 418.23C717.109 419.035 717.239 419.924 717.239 420.899V432H713.04V420.899C713.04 419.834 712.796 419.012 712.309 418.434C711.822 417.845 711.079 417.55 710.082 417.55C709.357 417.55 708.677 417.714 708.042 418.043C707.407 418.372 706.807 418.819 706.24 419.386V432H702.041V414.558H704.608C705.152 414.558 705.509 414.813 705.679 415.323L705.968 416.7Z" fill="white"/>
            <path class="letter" d="M732.18 419.012C731.704 418.434 731.183 418.026 730.616 417.788C730.061 417.55 729.46 417.431 728.814 417.431C728.18 417.431 727.607 417.55 727.097 417.788C726.587 418.026 726.151 418.389 725.788 418.876C725.426 419.352 725.148 419.964 724.955 420.712C724.763 421.449 724.666 422.321 724.666 423.33C724.666 424.35 724.746 425.217 724.904 425.931C725.074 426.634 725.312 427.212 725.618 427.665C725.924 428.107 726.298 428.43 726.74 428.634C727.182 428.827 727.675 428.923 728.219 428.923C729.092 428.923 729.834 428.742 730.446 428.379C731.058 428.016 731.636 427.501 732.18 426.832V419.012ZM736.379 406.738V432H733.812C733.257 432 732.906 431.745 732.758 431.235L732.401 429.552C731.699 430.357 730.888 431.008 729.97 431.507C729.064 432.006 728.004 432.255 726.791 432.255C725.839 432.255 724.967 432.057 724.173 431.66C723.38 431.263 722.694 430.691 722.116 429.943C721.55 429.184 721.108 428.249 720.79 427.138C720.484 426.027 720.331 424.758 720.331 423.33C720.331 422.038 720.507 420.837 720.858 419.726C721.21 418.615 721.714 417.652 722.371 416.836C723.029 416.02 723.816 415.385 724.734 414.932C725.652 414.467 726.684 414.235 727.828 414.235C728.803 414.235 729.636 414.388 730.327 414.694C731.019 415 731.636 415.414 732.18 415.935V406.738H736.379Z" fill="white"/>
            <path class="letter" d="M751.165 417.958C751.052 418.139 750.933 418.27 750.808 418.349C750.684 418.417 750.525 418.451 750.332 418.451C750.128 418.451 749.907 418.394 749.669 418.281C749.443 418.168 749.176 418.043 748.87 417.907C748.564 417.76 748.213 417.629 747.816 417.516C747.431 417.403 746.972 417.346 746.439 417.346C745.612 417.346 744.96 417.522 744.484 417.873C744.02 418.224 743.787 418.683 743.787 419.25C743.787 419.624 743.906 419.941 744.144 420.202C744.394 420.451 744.717 420.672 745.113 420.865C745.521 421.058 745.98 421.233 746.49 421.392C747 421.539 747.516 421.704 748.037 421.885C748.57 422.066 749.091 422.276 749.601 422.514C750.111 422.741 750.565 423.035 750.961 423.398C751.369 423.749 751.692 424.174 751.93 424.673C752.18 425.172 752.304 425.772 752.304 426.475C752.304 427.314 752.151 428.09 751.845 428.804C751.551 429.507 751.109 430.119 750.519 430.64C749.93 431.15 749.199 431.552 748.326 431.847C747.465 432.13 746.468 432.272 745.334 432.272C744.734 432.272 744.144 432.215 743.566 432.102C743 432 742.45 431.853 741.917 431.66C741.396 431.467 740.909 431.241 740.455 430.98C740.013 430.719 739.622 430.436 739.282 430.13L740.251 428.532C740.376 428.339 740.523 428.192 740.693 428.09C740.863 427.988 741.079 427.937 741.339 427.937C741.6 427.937 741.844 428.011 742.07 428.158C742.308 428.305 742.58 428.464 742.886 428.634C743.192 428.804 743.549 428.963 743.957 429.11C744.377 429.257 744.904 429.331 745.538 429.331C746.037 429.331 746.462 429.274 746.813 429.161C747.176 429.036 747.471 428.878 747.697 428.685C747.935 428.492 748.105 428.271 748.207 428.022C748.321 427.761 748.377 427.495 748.377 427.223C748.377 426.815 748.253 426.481 748.003 426.22C747.765 425.959 747.442 425.733 747.034 425.54C746.638 425.347 746.179 425.177 745.657 425.03C745.147 424.871 744.62 424.701 744.076 424.52C743.544 424.339 743.017 424.129 742.495 423.891C741.985 423.642 741.526 423.33 741.118 422.956C740.722 422.582 740.399 422.123 740.149 421.579C739.911 421.035 739.792 420.378 739.792 419.607C739.792 418.893 739.934 418.213 740.217 417.567C740.501 416.921 740.914 416.36 741.458 415.884C742.014 415.397 742.699 415.011 743.515 414.728C744.343 414.433 745.295 414.286 746.371 414.286C747.573 414.286 748.666 414.484 749.652 414.881C750.638 415.278 751.46 415.799 752.117 416.445L751.165 417.958Z" fill="white"/>
        </g>
        <g class="black-friends black word">
            <path class="letter" d="M651.601 432V417.72L650.088 417.482C649.759 417.414 649.493 417.301 649.289 417.142C649.096 416.972 649 416.734 649 416.428V414.711H651.601V413.419C651.601 412.422 651.748 411.526 652.043 410.733C652.349 409.94 652.78 409.265 653.335 408.71C653.902 408.155 654.587 407.73 655.392 407.435C656.197 407.14 657.103 406.993 658.112 406.993C658.917 406.993 659.665 407.101 660.356 407.316L660.271 409.424C660.26 409.583 660.214 409.713 660.135 409.815C660.056 409.906 659.948 409.979 659.812 410.036C659.687 410.081 659.54 410.115 659.37 410.138C659.2 410.149 659.019 410.155 658.826 410.155C658.327 410.155 657.88 410.212 657.483 410.325C657.098 410.427 656.769 410.614 656.497 410.886C656.225 411.147 656.015 411.498 655.868 411.94C655.732 412.371 655.664 412.909 655.664 413.555V414.711H660.203V417.703H655.8V432H651.601Z" fill="black"/>
            <path class="letter" d="M666.524 417.584C667.068 416.541 667.714 415.725 668.462 415.136C669.21 414.535 670.094 414.235 671.114 414.235C671.918 414.235 672.564 414.411 673.052 414.762L672.78 417.907C672.723 418.111 672.638 418.258 672.525 418.349C672.423 418.428 672.281 418.468 672.1 418.468C671.93 418.468 671.675 418.44 671.335 418.383C671.006 418.326 670.683 418.298 670.366 418.298C669.901 418.298 669.487 418.366 669.125 418.502C668.762 418.638 668.433 418.836 668.139 419.097C667.855 419.346 667.6 419.652 667.374 420.015C667.158 420.378 666.954 420.791 666.762 421.256V432H662.563V414.558H665.028C665.458 414.558 665.759 414.637 665.929 414.796C666.099 414.943 666.212 415.215 666.269 415.612L666.524 417.584Z" fill="black"/>
            <path class="letter" d="M679.598 414.558V432H675.382V414.558H679.598ZM680.176 409.475C680.176 409.838 680.102 410.178 679.955 410.495C679.808 410.812 679.609 411.09 679.36 411.328C679.122 411.566 678.839 411.759 678.51 411.906C678.181 412.042 677.83 412.11 677.456 412.11C677.093 412.11 676.748 412.042 676.419 411.906C676.102 411.759 675.824 411.566 675.586 411.328C675.348 411.09 675.155 410.812 675.008 410.495C674.872 410.178 674.804 409.838 674.804 409.475C674.804 409.101 674.872 408.75 675.008 408.421C675.155 408.092 675.348 407.809 675.586 407.571C675.824 407.333 676.102 407.146 676.419 407.01C676.748 406.863 677.093 406.789 677.456 406.789C677.83 406.789 678.181 406.863 678.51 407.01C678.839 407.146 679.122 407.333 679.36 407.571C679.609 407.809 679.808 408.092 679.955 408.421C680.102 408.75 680.176 409.101 680.176 409.475Z" fill="black"/>
            <path class="letter" d="M695.116 421.273C695.116 420.729 695.037 420.219 694.878 419.743C694.731 419.256 694.504 418.831 694.198 418.468C693.892 418.105 693.501 417.822 693.025 417.618C692.56 417.403 692.016 417.295 691.393 417.295C690.18 417.295 689.223 417.641 688.52 418.332C687.829 419.023 687.387 420.004 687.194 421.273H695.116ZM687.109 423.806C687.177 424.701 687.336 425.478 687.585 426.135C687.834 426.781 688.163 427.319 688.571 427.75C688.979 428.169 689.461 428.487 690.016 428.702C690.583 428.906 691.206 429.008 691.886 429.008C692.566 429.008 693.15 428.929 693.637 428.77C694.136 428.611 694.566 428.436 694.929 428.243C695.303 428.05 695.626 427.875 695.898 427.716C696.181 427.557 696.453 427.478 696.714 427.478C697.065 427.478 697.326 427.608 697.496 427.869L698.703 429.399C698.238 429.943 697.717 430.402 697.139 430.776C696.561 431.139 695.955 431.433 695.32 431.66C694.697 431.875 694.056 432.028 693.399 432.119C692.753 432.21 692.124 432.255 691.512 432.255C690.299 432.255 689.172 432.057 688.129 431.66C687.086 431.252 686.18 430.657 685.409 429.875C684.638 429.082 684.032 428.107 683.59 426.951C683.148 425.784 682.927 424.435 682.927 422.905C682.927 421.715 683.12 420.599 683.505 419.556C683.89 418.502 684.44 417.59 685.154 416.819C685.879 416.037 686.758 415.419 687.789 414.966C688.832 414.513 690.005 414.286 691.308 414.286C692.407 414.286 693.422 414.462 694.351 414.813C695.28 415.164 696.079 415.68 696.748 416.36C697.417 417.029 697.938 417.856 698.312 418.842C698.697 419.817 698.89 420.933 698.89 422.191C698.89 422.826 698.822 423.256 698.686 423.483C698.55 423.698 698.289 423.806 697.904 423.806H687.109Z" fill="black"/>
            <path class="letter" d="M705.968 416.7C706.319 416.349 706.688 416.026 707.073 415.731C707.47 415.425 707.883 415.17 708.314 414.966C708.756 414.751 709.226 414.586 709.725 414.473C710.224 414.348 710.768 414.286 711.357 414.286C712.309 414.286 713.153 414.45 713.89 414.779C714.627 415.096 715.239 415.55 715.726 416.139C716.225 416.717 716.599 417.414 716.848 418.23C717.109 419.035 717.239 419.924 717.239 420.899V432H713.04V420.899C713.04 419.834 712.796 419.012 712.309 418.434C711.822 417.845 711.079 417.55 710.082 417.55C709.357 417.55 708.677 417.714 708.042 418.043C707.407 418.372 706.807 418.819 706.24 419.386V432H702.041V414.558H704.608C705.152 414.558 705.509 414.813 705.679 415.323L705.968 416.7Z" fill="black"/>
            <path class="letter" d="M732.18 419.012C731.704 418.434 731.183 418.026 730.616 417.788C730.061 417.55 729.46 417.431 728.814 417.431C728.18 417.431 727.607 417.55 727.097 417.788C726.587 418.026 726.151 418.389 725.788 418.876C725.426 419.352 725.148 419.964 724.955 420.712C724.763 421.449 724.666 422.321 724.666 423.33C724.666 424.35 724.746 425.217 724.904 425.931C725.074 426.634 725.312 427.212 725.618 427.665C725.924 428.107 726.298 428.43 726.74 428.634C727.182 428.827 727.675 428.923 728.219 428.923C729.092 428.923 729.834 428.742 730.446 428.379C731.058 428.016 731.636 427.501 732.18 426.832V419.012ZM736.379 406.738V432H733.812C733.257 432 732.906 431.745 732.758 431.235L732.401 429.552C731.699 430.357 730.888 431.008 729.97 431.507C729.064 432.006 728.004 432.255 726.791 432.255C725.839 432.255 724.967 432.057 724.173 431.66C723.38 431.263 722.694 430.691 722.116 429.943C721.55 429.184 721.108 428.249 720.79 427.138C720.484 426.027 720.331 424.758 720.331 423.33C720.331 422.038 720.507 420.837 720.858 419.726C721.21 418.615 721.714 417.652 722.371 416.836C723.029 416.02 723.816 415.385 724.734 414.932C725.652 414.467 726.684 414.235 727.828 414.235C728.803 414.235 729.636 414.388 730.327 414.694C731.019 415 731.636 415.414 732.18 415.935V406.738H736.379Z" fill="black"/>
            <path class="letter" d="M751.165 417.958C751.052 418.139 750.933 418.27 750.808 418.349C750.684 418.417 750.525 418.451 750.332 418.451C750.128 418.451 749.907 418.394 749.669 418.281C749.443 418.168 749.176 418.043 748.87 417.907C748.564 417.76 748.213 417.629 747.816 417.516C747.431 417.403 746.972 417.346 746.439 417.346C745.612 417.346 744.96 417.522 744.484 417.873C744.02 418.224 743.787 418.683 743.787 419.25C743.787 419.624 743.906 419.941 744.144 420.202C744.394 420.451 744.717 420.672 745.113 420.865C745.521 421.058 745.98 421.233 746.49 421.392C747 421.539 747.516 421.704 748.037 421.885C748.57 422.066 749.091 422.276 749.601 422.514C750.111 422.741 750.565 423.035 750.961 423.398C751.369 423.749 751.692 424.174 751.93 424.673C752.18 425.172 752.304 425.772 752.304 426.475C752.304 427.314 752.151 428.09 751.845 428.804C751.551 429.507 751.109 430.119 750.519 430.64C749.93 431.15 749.199 431.552 748.326 431.847C747.465 432.13 746.468 432.272 745.334 432.272C744.734 432.272 744.144 432.215 743.566 432.102C743 432 742.45 431.853 741.917 431.66C741.396 431.467 740.909 431.241 740.455 430.98C740.013 430.719 739.622 430.436 739.282 430.13L740.251 428.532C740.376 428.339 740.523 428.192 740.693 428.09C740.863 427.988 741.079 427.937 741.339 427.937C741.6 427.937 741.844 428.011 742.07 428.158C742.308 428.305 742.58 428.464 742.886 428.634C743.192 428.804 743.549 428.963 743.957 429.11C744.377 429.257 744.904 429.331 745.538 429.331C746.037 429.331 746.462 429.274 746.813 429.161C747.176 429.036 747.471 428.878 747.697 428.685C747.935 428.492 748.105 428.271 748.207 428.022C748.321 427.761 748.377 427.495 748.377 427.223C748.377 426.815 748.253 426.481 748.003 426.22C747.765 425.959 747.442 425.733 747.034 425.54C746.638 425.347 746.179 425.177 745.657 425.03C745.147 424.871 744.62 424.701 744.076 424.52C743.544 424.339 743.017 424.129 742.495 423.891C741.985 423.642 741.526 423.33 741.118 422.956C740.722 422.582 740.399 422.123 740.149 421.579C739.911 421.035 739.792 420.378 739.792 419.607C739.792 418.893 739.934 418.213 740.217 417.567C740.501 416.921 740.914 416.36 741.458 415.884C742.014 415.397 742.699 415.011 743.515 414.728C744.343 414.433 745.295 414.286 746.371 414.286C747.573 414.286 748.666 414.484 749.652 414.881C750.638 415.278 751.46 415.799 752.117 416.445L751.165 417.958Z" fill="black"/>
        </g>
    </g>
    <g class="internet word-group">
        <g class="white-internet white word">
            <path class="letter" d="M638.12 587.558V605H633.904V587.558H638.12ZM638.698 582.475C638.698 582.838 638.624 583.178 638.477 583.495C638.329 583.812 638.131 584.09 637.882 584.328C637.644 584.566 637.36 584.759 637.032 584.906C636.703 585.042 636.352 585.11 635.978 585.11C635.615 585.11 635.269 585.042 634.941 584.906C634.623 584.759 634.346 584.566 634.108 584.328C633.87 584.09 633.677 583.812 633.53 583.495C633.394 583.178 633.326 582.838 633.326 582.475C633.326 582.101 633.394 581.75 633.53 581.421C633.677 581.092 633.87 580.809 634.108 580.571C634.346 580.333 634.623 580.146 634.941 580.01C635.269 579.863 635.615 579.789 635.978 579.789C636.352 579.789 636.703 579.863 637.032 580.01C637.36 580.146 637.644 580.333 637.882 580.571C638.131 580.809 638.329 581.092 638.477 581.421C638.624 581.75 638.698 582.101 638.698 582.475Z" fill="white"/>
            <path class="letter" d="M646.327 589.7C646.679 589.349 647.047 589.026 647.432 588.731C647.829 588.425 648.243 588.17 648.673 587.966C649.115 587.751 649.586 587.586 650.084 587.473C650.583 587.348 651.127 587.286 651.716 587.286C652.668 587.286 653.513 587.45 654.249 587.779C654.986 588.096 655.598 588.55 656.085 589.139C656.584 589.717 656.958 590.414 657.207 591.23C657.468 592.035 657.598 592.924 657.598 593.899V605H653.399V593.899C653.399 592.834 653.156 592.012 652.668 591.434C652.181 590.845 651.439 590.55 650.441 590.55C649.716 590.55 649.036 590.714 648.401 591.043C647.767 591.372 647.166 591.819 646.599 592.386V605H642.4V587.558H644.967C645.511 587.558 645.868 587.813 646.038 588.323L646.327 589.7Z" fill="white"/>
            <path class="letter" d="M667.173 605.272C665.655 605.272 664.487 604.847 663.671 603.997C662.867 603.136 662.464 601.951 662.464 600.444V590.703H660.679C660.453 590.703 660.26 590.629 660.101 590.482C659.943 590.335 659.863 590.114 659.863 589.819V588.153L662.668 587.694L663.552 582.934C663.609 582.707 663.717 582.532 663.875 582.407C664.034 582.282 664.238 582.22 664.487 582.22H666.663V587.711H671.321V590.703H666.663V600.155C666.663 600.699 666.794 601.124 667.054 601.43C667.326 601.736 667.695 601.889 668.159 601.889C668.42 601.889 668.635 601.861 668.805 601.804C668.987 601.736 669.14 601.668 669.264 601.6C669.4 601.532 669.519 601.47 669.621 601.413C669.723 601.345 669.825 601.311 669.927 601.311C670.052 601.311 670.154 601.345 670.233 601.413C670.313 601.47 670.398 601.56 670.488 601.685L671.746 603.725C671.134 604.235 670.432 604.62 669.638 604.881C668.845 605.142 668.023 605.272 667.173 605.272Z" fill="white"/>
            <path class="letter" d="M685.114 594.273C685.114 593.729 685.035 593.219 684.876 592.743C684.729 592.256 684.502 591.831 684.196 591.468C683.89 591.105 683.499 590.822 683.023 590.618C682.558 590.403 682.014 590.295 681.391 590.295C680.178 590.295 679.221 590.641 678.518 591.332C677.827 592.023 677.385 593.004 677.192 594.273H685.114ZM677.107 596.806C677.175 597.701 677.334 598.478 677.583 599.135C677.832 599.781 678.161 600.319 678.569 600.75C678.977 601.169 679.459 601.487 680.014 601.702C680.581 601.906 681.204 602.008 681.884 602.008C682.564 602.008 683.148 601.929 683.635 601.77C684.134 601.611 684.564 601.436 684.927 601.243C685.301 601.05 685.624 600.875 685.896 600.716C686.179 600.557 686.451 600.478 686.712 600.478C687.063 600.478 687.324 600.608 687.494 600.869L688.701 602.399C688.236 602.943 687.715 603.402 687.137 603.776C686.559 604.139 685.953 604.433 685.318 604.66C684.695 604.875 684.054 605.028 683.397 605.119C682.751 605.21 682.122 605.255 681.51 605.255C680.297 605.255 679.17 605.057 678.127 604.66C677.084 604.252 676.178 603.657 675.407 602.875C674.636 602.082 674.03 601.107 673.588 599.951C673.146 598.784 672.925 597.435 672.925 595.905C672.925 594.715 673.118 593.599 673.503 592.556C673.888 591.502 674.438 590.59 675.152 589.819C675.877 589.037 676.756 588.419 677.787 587.966C678.83 587.513 680.003 587.286 681.306 587.286C682.405 587.286 683.42 587.462 684.349 587.813C685.278 588.164 686.077 588.68 686.746 589.36C687.415 590.029 687.936 590.856 688.31 591.842C688.695 592.817 688.888 593.933 688.888 595.191C688.888 595.826 688.82 596.256 688.684 596.483C688.548 596.698 688.287 596.806 687.902 596.806H677.107Z" fill="white"/>
            <path class="letter" d="M696 590.584C696.544 589.541 697.19 588.725 697.938 588.136C698.686 587.535 699.57 587.235 700.59 587.235C701.395 587.235 702.041 587.411 702.528 587.762L702.256 590.907C702.199 591.111 702.114 591.258 702.001 591.349C701.899 591.428 701.758 591.468 701.576 591.468C701.406 591.468 701.151 591.44 700.811 591.383C700.482 591.326 700.159 591.298 699.842 591.298C699.377 591.298 698.964 591.366 698.601 591.502C698.238 591.638 697.91 591.836 697.615 592.097C697.332 592.346 697.077 592.652 696.85 593.015C696.635 593.378 696.431 593.791 696.238 594.256V605H692.039V587.558H694.504C694.935 587.558 695.235 587.637 695.405 587.796C695.575 587.943 695.688 588.215 695.745 588.612L696 590.584Z" fill="white"/>
            <path class="letter" d="M708.65 589.7C709.001 589.349 709.369 589.026 709.755 588.731C710.151 588.425 710.565 588.17 710.996 587.966C711.438 587.751 711.908 587.586 712.407 587.473C712.905 587.348 713.449 587.286 714.039 587.286C714.991 587.286 715.835 587.45 716.572 587.779C717.308 588.096 717.92 588.55 718.408 589.139C718.906 589.717 719.28 590.414 719.53 591.23C719.79 592.035 719.921 592.924 719.921 593.899V605H715.722V593.899C715.722 592.834 715.478 592.012 714.991 591.434C714.503 590.845 713.761 590.55 712.764 590.55C712.038 590.55 711.358 590.714 710.724 591.043C710.089 591.372 709.488 591.819 708.922 592.386V605H704.723V587.558H707.29C707.834 587.558 708.191 587.813 708.361 588.323L708.65 589.7Z" fill="white"/>
            <path class="letter" d="M735.151 594.273C735.151 593.729 735.072 593.219 734.913 592.743C734.766 592.256 734.539 591.831 734.233 591.468C733.927 591.105 733.536 590.822 733.06 590.618C732.595 590.403 732.051 590.295 731.428 590.295C730.215 590.295 729.258 590.641 728.555 591.332C727.864 592.023 727.422 593.004 727.229 594.273H735.151ZM727.144 596.806C727.212 597.701 727.371 598.478 727.62 599.135C727.869 599.781 728.198 600.319 728.606 600.75C729.014 601.169 729.496 601.487 730.051 601.702C730.618 601.906 731.241 602.008 731.921 602.008C732.601 602.008 733.185 601.929 733.672 601.77C734.171 601.611 734.601 601.436 734.964 601.243C735.338 601.05 735.661 600.875 735.933 600.716C736.216 600.557 736.488 600.478 736.749 600.478C737.1 600.478 737.361 600.608 737.531 600.869L738.738 602.399C738.273 602.943 737.752 603.402 737.174 603.776C736.596 604.139 735.99 604.433 735.355 604.66C734.732 604.875 734.091 605.028 733.434 605.119C732.788 605.21 732.159 605.255 731.547 605.255C730.334 605.255 729.207 605.057 728.164 604.66C727.122 604.252 726.215 603.657 725.444 602.875C724.674 602.082 724.067 601.107 723.625 599.951C723.183 598.784 722.962 597.435 722.962 595.905C722.962 594.715 723.155 593.599 723.54 592.556C723.925 591.502 724.475 590.59 725.189 589.819C725.914 589.037 726.793 588.419 727.824 587.966C728.867 587.513 730.04 587.286 731.343 587.286C732.443 587.286 733.457 587.462 734.386 587.813C735.316 588.164 736.115 588.68 736.783 589.36C737.452 590.029 737.973 590.856 738.347 591.842C738.733 592.817 738.925 593.933 738.925 595.191C738.925 595.826 738.857 596.256 738.721 596.483C738.585 596.698 738.324 596.806 737.939 596.806H727.144Z" fill="white"/>
            <path class="letter" d="M747.724 605.272C746.206 605.272 745.038 604.847 744.222 603.997C743.418 603.136 743.015 601.951 743.015 600.444V590.703H741.23C741.004 590.703 740.811 590.629 740.652 590.482C740.494 590.335 740.414 590.114 740.414 589.819V588.153L743.219 587.694L744.103 582.934C744.16 582.707 744.268 582.532 744.426 582.407C744.585 582.282 744.789 582.22 745.038 582.22H747.214V587.711H751.872V590.703H747.214V600.155C747.214 600.699 747.345 601.124 747.605 601.43C747.877 601.736 748.246 601.889 748.71 601.889C748.971 601.889 749.186 601.861 749.356 601.804C749.538 601.736 749.691 601.668 749.815 601.6C749.951 601.532 750.07 601.47 750.172 601.413C750.274 601.345 750.376 601.311 750.478 601.311C750.603 601.311 750.705 601.345 750.784 601.413C750.864 601.47 750.949 601.56 751.039 601.685L752.297 603.725C751.685 604.235 750.983 604.62 750.189 604.881C749.396 605.142 748.574 605.272 747.724 605.272Z" fill="white"/>
        </g>
        <g class="black-internet black word">
            <path class="letter" d="M638.12 587.558V605H633.904V587.558H638.12ZM638.698 582.475C638.698 582.838 638.624 583.178 638.477 583.495C638.329 583.812 638.131 584.09 637.882 584.328C637.644 584.566 637.36 584.759 637.032 584.906C636.703 585.042 636.352 585.11 635.978 585.11C635.615 585.11 635.269 585.042 634.941 584.906C634.623 584.759 634.346 584.566 634.108 584.328C633.87 584.09 633.677 583.812 633.53 583.495C633.394 583.178 633.326 582.838 633.326 582.475C633.326 582.101 633.394 581.75 633.53 581.421C633.677 581.092 633.87 580.809 634.108 580.571C634.346 580.333 634.623 580.146 634.941 580.01C635.269 579.863 635.615 579.789 635.978 579.789C636.352 579.789 636.703 579.863 637.032 580.01C637.36 580.146 637.644 580.333 637.882 580.571C638.131 580.809 638.329 581.092 638.477 581.421C638.624 581.75 638.698 582.101 638.698 582.475Z" fill="black"/>
            <path class="letter" d="M646.327 589.7C646.679 589.349 647.047 589.026 647.432 588.731C647.829 588.425 648.243 588.17 648.673 587.966C649.115 587.751 649.586 587.586 650.084 587.473C650.583 587.348 651.127 587.286 651.716 587.286C652.668 587.286 653.513 587.45 654.249 587.779C654.986 588.096 655.598 588.55 656.085 589.139C656.584 589.717 656.958 590.414 657.207 591.23C657.468 592.035 657.598 592.924 657.598 593.899V605H653.399V593.899C653.399 592.834 653.156 592.012 652.668 591.434C652.181 590.845 651.439 590.55 650.441 590.55C649.716 590.55 649.036 590.714 648.401 591.043C647.767 591.372 647.166 591.819 646.599 592.386V605H642.4V587.558H644.967C645.511 587.558 645.868 587.813 646.038 588.323L646.327 589.7Z" fill="black"/>
            <path class="letter" d="M667.173 605.272C665.655 605.272 664.487 604.847 663.671 603.997C662.867 603.136 662.464 601.951 662.464 600.444V590.703H660.679C660.453 590.703 660.26 590.629 660.101 590.482C659.943 590.335 659.863 590.114 659.863 589.819V588.153L662.668 587.694L663.552 582.934C663.609 582.707 663.717 582.532 663.875 582.407C664.034 582.282 664.238 582.22 664.487 582.22H666.663V587.711H671.321V590.703H666.663V600.155C666.663 600.699 666.794 601.124 667.054 601.43C667.326 601.736 667.695 601.889 668.159 601.889C668.42 601.889 668.635 601.861 668.805 601.804C668.987 601.736 669.14 601.668 669.264 601.6C669.4 601.532 669.519 601.47 669.621 601.413C669.723 601.345 669.825 601.311 669.927 601.311C670.052 601.311 670.154 601.345 670.233 601.413C670.313 601.47 670.398 601.56 670.488 601.685L671.746 603.725C671.134 604.235 670.432 604.62 669.638 604.881C668.845 605.142 668.023 605.272 667.173 605.272Z" fill="black"/>
            <path class="letter" d="M685.114 594.273C685.114 593.729 685.035 593.219 684.876 592.743C684.729 592.256 684.502 591.831 684.196 591.468C683.89 591.105 683.499 590.822 683.023 590.618C682.558 590.403 682.014 590.295 681.391 590.295C680.178 590.295 679.221 590.641 678.518 591.332C677.827 592.023 677.385 593.004 677.192 594.273H685.114ZM677.107 596.806C677.175 597.701 677.334 598.478 677.583 599.135C677.832 599.781 678.161 600.319 678.569 600.75C678.977 601.169 679.459 601.487 680.014 601.702C680.581 601.906 681.204 602.008 681.884 602.008C682.564 602.008 683.148 601.929 683.635 601.77C684.134 601.611 684.564 601.436 684.927 601.243C685.301 601.05 685.624 600.875 685.896 600.716C686.179 600.557 686.451 600.478 686.712 600.478C687.063 600.478 687.324 600.608 687.494 600.869L688.701 602.399C688.236 602.943 687.715 603.402 687.137 603.776C686.559 604.139 685.953 604.433 685.318 604.66C684.695 604.875 684.054 605.028 683.397 605.119C682.751 605.21 682.122 605.255 681.51 605.255C680.297 605.255 679.17 605.057 678.127 604.66C677.084 604.252 676.178 603.657 675.407 602.875C674.636 602.082 674.03 601.107 673.588 599.951C673.146 598.784 672.925 597.435 672.925 595.905C672.925 594.715 673.118 593.599 673.503 592.556C673.888 591.502 674.438 590.59 675.152 589.819C675.877 589.037 676.756 588.419 677.787 587.966C678.83 587.513 680.003 587.286 681.306 587.286C682.405 587.286 683.42 587.462 684.349 587.813C685.278 588.164 686.077 588.68 686.746 589.36C687.415 590.029 687.936 590.856 688.31 591.842C688.695 592.817 688.888 593.933 688.888 595.191C688.888 595.826 688.82 596.256 688.684 596.483C688.548 596.698 688.287 596.806 687.902 596.806H677.107Z" fill="black"/>
            <path class="letter" d="M696 590.584C696.544 589.541 697.19 588.725 697.938 588.136C698.686 587.535 699.57 587.235 700.59 587.235C701.395 587.235 702.041 587.411 702.528 587.762L702.256 590.907C702.199 591.111 702.114 591.258 702.001 591.349C701.899 591.428 701.758 591.468 701.576 591.468C701.406 591.468 701.151 591.44 700.811 591.383C700.482 591.326 700.159 591.298 699.842 591.298C699.377 591.298 698.964 591.366 698.601 591.502C698.238 591.638 697.91 591.836 697.615 592.097C697.332 592.346 697.077 592.652 696.85 593.015C696.635 593.378 696.431 593.791 696.238 594.256V605H692.039V587.558H694.504C694.935 587.558 695.235 587.637 695.405 587.796C695.575 587.943 695.688 588.215 695.745 588.612L696 590.584Z" fill="black"/>
            <path class="letter" d="M708.65 589.7C709.001 589.349 709.369 589.026 709.755 588.731C710.151 588.425 710.565 588.17 710.996 587.966C711.438 587.751 711.908 587.586 712.407 587.473C712.905 587.348 713.449 587.286 714.039 587.286C714.991 587.286 715.835 587.45 716.572 587.779C717.308 588.096 717.92 588.55 718.408 589.139C718.906 589.717 719.28 590.414 719.53 591.23C719.79 592.035 719.921 592.924 719.921 593.899V605H715.722V593.899C715.722 592.834 715.478 592.012 714.991 591.434C714.503 590.845 713.761 590.55 712.764 590.55C712.038 590.55 711.358 590.714 710.724 591.043C710.089 591.372 709.488 591.819 708.922 592.386V605H704.723V587.558H707.29C707.834 587.558 708.191 587.813 708.361 588.323L708.65 589.7Z" fill="black"/>
            <path class="letter" d="M735.151 594.273C735.151 593.729 735.072 593.219 734.913 592.743C734.766 592.256 734.539 591.831 734.233 591.468C733.927 591.105 733.536 590.822 733.06 590.618C732.595 590.403 732.051 590.295 731.428 590.295C730.215 590.295 729.258 590.641 728.555 591.332C727.864 592.023 727.422 593.004 727.229 594.273H735.151ZM727.144 596.806C727.212 597.701 727.371 598.478 727.62 599.135C727.869 599.781 728.198 600.319 728.606 600.75C729.014 601.169 729.496 601.487 730.051 601.702C730.618 601.906 731.241 602.008 731.921 602.008C732.601 602.008 733.185 601.929 733.672 601.77C734.171 601.611 734.601 601.436 734.964 601.243C735.338 601.05 735.661 600.875 735.933 600.716C736.216 600.557 736.488 600.478 736.749 600.478C737.1 600.478 737.361 600.608 737.531 600.869L738.738 602.399C738.273 602.943 737.752 603.402 737.174 603.776C736.596 604.139 735.99 604.433 735.355 604.66C734.732 604.875 734.091 605.028 733.434 605.119C732.788 605.21 732.159 605.255 731.547 605.255C730.334 605.255 729.207 605.057 728.164 604.66C727.122 604.252 726.215 603.657 725.444 602.875C724.674 602.082 724.067 601.107 723.625 599.951C723.183 598.784 722.962 597.435 722.962 595.905C722.962 594.715 723.155 593.599 723.54 592.556C723.925 591.502 724.475 590.59 725.189 589.819C725.914 589.037 726.793 588.419 727.824 587.966C728.867 587.513 730.04 587.286 731.343 587.286C732.443 587.286 733.457 587.462 734.386 587.813C735.316 588.164 736.115 588.68 736.783 589.36C737.452 590.029 737.973 590.856 738.347 591.842C738.733 592.817 738.925 593.933 738.925 595.191C738.925 595.826 738.857 596.256 738.721 596.483C738.585 596.698 738.324 596.806 737.939 596.806H727.144Z" fill="black"/>
            <path class="letter" d="M747.724 605.272C746.206 605.272 745.038 604.847 744.222 603.997C743.418 603.136 743.015 601.951 743.015 600.444V590.703H741.23C741.004 590.703 740.811 590.629 740.652 590.482C740.494 590.335 740.414 590.114 740.414 589.819V588.153L743.219 587.694L744.103 582.934C744.16 582.707 744.268 582.532 744.426 582.407C744.585 582.282 744.789 582.22 745.038 582.22H747.214V587.711H751.872V590.703H747.214V600.155C747.214 600.699 747.345 601.124 747.605 601.43C747.877 601.736 748.246 601.889 748.71 601.889C748.971 601.889 749.186 601.861 749.356 601.804C749.538 601.736 749.691 601.668 749.815 601.6C749.951 601.532 750.07 601.47 750.172 601.413C750.274 601.345 750.376 601.311 750.478 601.311C750.603 601.311 750.705 601.345 750.784 601.413C750.864 601.47 750.949 601.56 751.039 601.685L752.297 603.725C751.685 604.235 750.983 604.62 750.189 604.881C749.396 605.142 748.574 605.272 747.724 605.272Z" fill="black"/>
        </g>
    </g>
    <g class="reviews word-group">
        <g class="white-reviews white word">
            <path class="letter" d="M642.961 503.584C643.505 502.541 644.151 501.725 644.899 501.136C645.647 500.535 646.531 500.235 647.551 500.235C648.356 500.235 649.002 500.411 649.489 500.762L649.217 503.907C649.16 504.111 649.075 504.258 648.962 504.349C648.86 504.428 648.718 504.468 648.537 504.468C648.367 504.468 648.112 504.44 647.772 504.383C647.443 504.326 647.12 504.298 646.803 504.298C646.338 504.298 645.925 504.366 645.562 504.502C645.199 504.638 644.871 504.836 644.576 505.097C644.293 505.346 644.038 505.652 643.811 506.015C643.596 506.378 643.392 506.791 643.199 507.256V518H639V500.558H641.465C641.896 500.558 642.196 500.637 642.366 500.796C642.536 500.943 642.649 501.215 642.706 501.612L642.961 503.584Z" fill="white"/>
            <path class="letter" d="M662.423 507.273C662.423 506.729 662.343 506.219 662.185 505.743C662.037 505.256 661.811 504.831 661.505 504.468C661.199 504.105 660.808 503.822 660.332 503.618C659.867 503.403 659.323 503.295 658.7 503.295C657.487 503.295 656.529 503.641 655.827 504.332C655.135 505.023 654.693 506.004 654.501 507.273H662.423ZM654.416 509.806C654.484 510.701 654.642 511.478 654.892 512.135C655.141 512.781 655.47 513.319 655.878 513.75C656.286 514.169 656.767 514.487 657.323 514.702C657.889 514.906 658.513 515.008 659.193 515.008C659.873 515.008 660.456 514.929 660.944 514.77C661.442 514.611 661.873 514.436 662.236 514.243C662.61 514.05 662.933 513.875 663.205 513.716C663.488 513.557 663.76 513.478 664.021 513.478C664.372 513.478 664.633 513.608 664.803 513.869L666.01 515.399C665.545 515.943 665.024 516.402 664.446 516.776C663.868 517.139 663.261 517.433 662.627 517.66C662.003 517.875 661.363 518.028 660.706 518.119C660.06 518.21 659.431 518.255 658.819 518.255C657.606 518.255 656.478 518.057 655.436 517.66C654.393 517.252 653.486 516.657 652.716 515.875C651.945 515.082 651.339 514.107 650.897 512.951C650.455 511.784 650.234 510.435 650.234 508.905C650.234 507.715 650.426 506.599 650.812 505.556C651.197 504.502 651.747 503.59 652.461 502.819C653.186 502.037 654.064 501.419 655.096 500.966C656.138 500.513 657.311 500.286 658.615 500.286C659.714 500.286 660.728 500.462 661.658 500.813C662.587 501.164 663.386 501.68 664.055 502.36C664.723 503.029 665.245 503.856 665.619 504.842C666.004 505.817 666.197 506.933 666.197 508.191C666.197 508.826 666.129 509.256 665.993 509.483C665.857 509.698 665.596 509.806 665.211 509.806H654.416Z" fill="white"/>
            <path class="letter" d="M684.641 500.558L677.722 518H673.914L666.995 500.558H670.463C670.78 500.558 671.041 500.632 671.245 500.779C671.46 500.926 671.602 501.113 671.67 501.34L675.036 510.656C675.217 511.2 675.376 511.733 675.512 512.254C675.648 512.775 675.767 513.297 675.869 513.818C675.982 513.297 676.107 512.775 676.243 512.254C676.379 511.733 676.543 511.2 676.736 510.656L680.17 501.34C680.249 501.113 680.391 500.926 680.595 500.779C680.799 500.632 681.043 500.558 681.326 500.558H684.641Z" fill="white"/>
            <path class="letter" d="M691.231 500.558V518H687.015V500.558H691.231ZM691.809 495.475C691.809 495.838 691.735 496.178 691.588 496.495C691.441 496.812 691.242 497.09 690.993 497.328C690.755 497.566 690.472 497.759 690.143 497.906C689.814 498.042 689.463 498.11 689.089 498.11C688.726 498.11 688.381 498.042 688.052 497.906C687.735 497.759 687.457 497.566 687.219 497.328C686.981 497.09 686.788 496.812 686.641 496.495C686.505 496.178 686.437 495.838 686.437 495.475C686.437 495.101 686.505 494.75 686.641 494.421C686.788 494.092 686.981 493.809 687.219 493.571C687.457 493.333 687.735 493.146 688.052 493.01C688.381 492.863 688.726 492.789 689.089 492.789C689.463 492.789 689.814 492.863 690.143 493.01C690.472 493.146 690.755 493.333 690.993 493.571C691.242 493.809 691.441 494.092 691.588 494.421C691.735 494.75 691.809 495.101 691.809 495.475Z" fill="white"/>
            <path class="letter" d="M706.749 507.273C706.749 506.729 706.669 506.219 706.511 505.743C706.363 505.256 706.137 504.831 705.831 504.468C705.525 504.105 705.134 503.822 704.658 503.618C704.193 503.403 703.649 503.295 703.026 503.295C701.813 503.295 700.855 503.641 700.153 504.332C699.461 505.023 699.019 506.004 698.827 507.273H706.749ZM698.742 509.806C698.81 510.701 698.968 511.478 699.218 512.135C699.467 512.781 699.796 513.319 700.204 513.75C700.612 514.169 701.093 514.487 701.649 514.702C702.215 514.906 702.839 515.008 703.519 515.008C704.199 515.008 704.782 514.929 705.27 514.77C705.768 514.611 706.199 514.436 706.562 514.243C706.936 514.05 707.259 513.875 707.531 513.716C707.814 513.557 708.086 513.478 708.347 513.478C708.698 513.478 708.959 513.608 709.129 513.869L710.336 515.399C709.871 515.943 709.35 516.402 708.772 516.776C708.194 517.139 707.587 517.433 706.953 517.66C706.329 517.875 705.689 518.028 705.032 518.119C704.386 518.21 703.757 518.255 703.145 518.255C701.932 518.255 700.804 518.057 699.762 517.66C698.719 517.252 697.812 516.657 697.042 515.875C696.271 515.082 695.665 514.107 695.223 512.951C694.781 511.784 694.56 510.435 694.56 508.905C694.56 507.715 694.752 506.599 695.138 505.556C695.523 504.502 696.073 503.59 696.787 502.819C697.512 502.037 698.39 501.419 699.422 500.966C700.464 500.513 701.637 500.286 702.941 500.286C704.04 500.286 705.054 500.462 705.984 500.813C706.913 501.164 707.712 501.68 708.381 502.36C709.049 503.029 709.571 503.856 709.945 504.842C710.33 505.817 710.523 506.933 710.523 508.191C710.523 508.826 710.455 509.256 710.319 509.483C710.183 509.698 709.922 509.806 709.537 509.806H698.742Z" fill="white"/>
            <path class="letter" d="M738.346 500.558L732.804 518H729.438C729.053 518 728.787 517.751 728.639 517.252L725.511 507.171C725.409 506.831 725.313 506.497 725.222 506.168C725.143 505.828 725.075 505.488 725.018 505.148C724.95 505.488 724.871 505.834 724.78 506.185C724.701 506.525 724.61 506.865 724.508 507.205L721.329 517.252C721.193 517.751 720.893 518 720.428 518H717.198L711.673 500.558H715.022C715.328 500.558 715.589 500.632 715.804 500.779C716.02 500.926 716.161 501.113 716.229 501.34L718.728 510.656C718.853 511.166 718.961 511.665 719.051 512.152C719.153 512.639 719.238 513.127 719.306 513.614C719.431 513.127 719.561 512.639 719.697 512.152C719.845 511.665 719.998 511.166 720.156 510.656L723.046 501.306C723.114 501.079 723.245 500.892 723.437 500.745C723.641 500.598 723.885 500.524 724.168 500.524H726.021C726.316 500.524 726.565 500.598 726.769 500.745C726.985 500.892 727.126 501.079 727.194 501.306L729.999 510.656C730.147 511.166 730.283 511.67 730.407 512.169C730.543 512.656 730.674 513.144 730.798 513.631C730.946 512.668 731.155 511.676 731.427 510.656L733.994 501.34C734.074 501.113 734.215 500.926 734.419 500.779C734.623 500.632 734.867 500.558 735.15 500.558H738.346Z" fill="white"/>
            <path class="letter" d="M751.177 503.958C751.064 504.139 750.945 504.27 750.82 504.349C750.695 504.417 750.537 504.451 750.344 504.451C750.14 504.451 749.919 504.394 749.681 504.281C749.454 504.168 749.188 504.043 748.882 503.907C748.576 503.76 748.225 503.629 747.828 503.516C747.443 503.403 746.984 503.346 746.451 503.346C745.624 503.346 744.972 503.522 744.496 503.873C744.031 504.224 743.799 504.683 743.799 505.25C743.799 505.624 743.918 505.941 744.156 506.202C744.405 506.451 744.728 506.672 745.125 506.865C745.533 507.058 745.992 507.233 746.502 507.392C747.012 507.539 747.528 507.704 748.049 507.885C748.582 508.066 749.103 508.276 749.613 508.514C750.123 508.741 750.576 509.035 750.973 509.398C751.381 509.749 751.704 510.174 751.942 510.673C752.191 511.172 752.316 511.772 752.316 512.475C752.316 513.314 752.163 514.09 751.857 514.804C751.562 515.507 751.12 516.119 750.531 516.64C749.942 517.15 749.211 517.552 748.338 517.847C747.477 518.13 746.479 518.272 745.346 518.272C744.745 518.272 744.156 518.215 743.578 518.102C743.011 518 742.462 517.853 741.929 517.66C741.408 517.467 740.92 517.241 740.467 516.98C740.025 516.719 739.634 516.436 739.294 516.13L740.263 514.532C740.388 514.339 740.535 514.192 740.705 514.09C740.875 513.988 741.09 513.937 741.351 513.937C741.612 513.937 741.855 514.011 742.082 514.158C742.32 514.305 742.592 514.464 742.898 514.634C743.204 514.804 743.561 514.963 743.969 515.11C744.388 515.257 744.915 515.331 745.55 515.331C746.049 515.331 746.474 515.274 746.825 515.161C747.188 515.036 747.482 514.878 747.709 514.685C747.947 514.492 748.117 514.271 748.219 514.022C748.332 513.761 748.389 513.495 748.389 513.223C748.389 512.815 748.264 512.481 748.015 512.22C747.777 511.959 747.454 511.733 747.046 511.54C746.649 511.347 746.19 511.177 745.669 511.03C745.159 510.871 744.632 510.701 744.088 510.52C743.555 510.339 743.028 510.129 742.507 509.891C741.997 509.642 741.538 509.33 741.13 508.956C740.733 508.582 740.41 508.123 740.161 507.579C739.923 507.035 739.804 506.378 739.804 505.607C739.804 504.893 739.946 504.213 740.229 503.567C740.512 502.921 740.926 502.36 741.47 501.884C742.025 501.397 742.711 501.011 743.527 500.728C744.354 500.433 745.306 500.286 746.383 500.286C747.584 500.286 748.678 500.484 749.664 500.881C750.65 501.278 751.472 501.799 752.129 502.445L751.177 503.958Z" fill="white"/>
        </g>
        <g class="black-reviews black word">
            <path class="letter" d="M642.961 503.584C643.505 502.541 644.151 501.725 644.899 501.136C645.647 500.535 646.531 500.235 647.551 500.235C648.356 500.235 649.002 500.411 649.489 500.762L649.217 503.907C649.16 504.111 649.075 504.258 648.962 504.349C648.86 504.428 648.718 504.468 648.537 504.468C648.367 504.468 648.112 504.44 647.772 504.383C647.443 504.326 647.12 504.298 646.803 504.298C646.338 504.298 645.925 504.366 645.562 504.502C645.199 504.638 644.871 504.836 644.576 505.097C644.293 505.346 644.038 505.652 643.811 506.015C643.596 506.378 643.392 506.791 643.199 507.256V518H639V500.558H641.465C641.896 500.558 642.196 500.637 642.366 500.796C642.536 500.943 642.649 501.215 642.706 501.612L642.961 503.584Z" fill="black"/>
            <path class="letter" d="M662.423 507.273C662.423 506.729 662.343 506.219 662.185 505.743C662.037 505.256 661.811 504.831 661.505 504.468C661.199 504.105 660.808 503.822 660.332 503.618C659.867 503.403 659.323 503.295 658.7 503.295C657.487 503.295 656.529 503.641 655.827 504.332C655.135 505.023 654.693 506.004 654.501 507.273H662.423ZM654.416 509.806C654.484 510.701 654.642 511.478 654.892 512.135C655.141 512.781 655.47 513.319 655.878 513.75C656.286 514.169 656.767 514.487 657.323 514.702C657.889 514.906 658.513 515.008 659.193 515.008C659.873 515.008 660.456 514.929 660.944 514.77C661.442 514.611 661.873 514.436 662.236 514.243C662.61 514.05 662.933 513.875 663.205 513.716C663.488 513.557 663.76 513.478 664.021 513.478C664.372 513.478 664.633 513.608 664.803 513.869L666.01 515.399C665.545 515.943 665.024 516.402 664.446 516.776C663.868 517.139 663.261 517.433 662.627 517.66C662.003 517.875 661.363 518.028 660.706 518.119C660.06 518.21 659.431 518.255 658.819 518.255C657.606 518.255 656.478 518.057 655.436 517.66C654.393 517.252 653.486 516.657 652.716 515.875C651.945 515.082 651.339 514.107 650.897 512.951C650.455 511.784 650.234 510.435 650.234 508.905C650.234 507.715 650.426 506.599 650.812 505.556C651.197 504.502 651.747 503.59 652.461 502.819C653.186 502.037 654.064 501.419 655.096 500.966C656.138 500.513 657.311 500.286 658.615 500.286C659.714 500.286 660.728 500.462 661.658 500.813C662.587 501.164 663.386 501.68 664.055 502.36C664.723 503.029 665.245 503.856 665.619 504.842C666.004 505.817 666.197 506.933 666.197 508.191C666.197 508.826 666.129 509.256 665.993 509.483C665.857 509.698 665.596 509.806 665.211 509.806H654.416Z" fill="black"/>
            <path class="letter" d="M684.641 500.558L677.722 518H673.914L666.995 500.558H670.463C670.78 500.558 671.041 500.632 671.245 500.779C671.46 500.926 671.602 501.113 671.67 501.34L675.036 510.656C675.217 511.2 675.376 511.733 675.512 512.254C675.648 512.775 675.767 513.297 675.869 513.818C675.982 513.297 676.107 512.775 676.243 512.254C676.379 511.733 676.543 511.2 676.736 510.656L680.17 501.34C680.249 501.113 680.391 500.926 680.595 500.779C680.799 500.632 681.043 500.558 681.326 500.558H684.641Z" fill="black"/>
            <path class="letter" d="M691.231 500.558V518H687.015V500.558H691.231ZM691.809 495.475C691.809 495.838 691.735 496.178 691.588 496.495C691.441 496.812 691.242 497.09 690.993 497.328C690.755 497.566 690.472 497.759 690.143 497.906C689.814 498.042 689.463 498.11 689.089 498.11C688.726 498.11 688.381 498.042 688.052 497.906C687.735 497.759 687.457 497.566 687.219 497.328C686.981 497.09 686.788 496.812 686.641 496.495C686.505 496.178 686.437 495.838 686.437 495.475C686.437 495.101 686.505 494.75 686.641 494.421C686.788 494.092 686.981 493.809 687.219 493.571C687.457 493.333 687.735 493.146 688.052 493.01C688.381 492.863 688.726 492.789 689.089 492.789C689.463 492.789 689.814 492.863 690.143 493.01C690.472 493.146 690.755 493.333 690.993 493.571C691.242 493.809 691.441 494.092 691.588 494.421C691.735 494.75 691.809 495.101 691.809 495.475Z" fill="black"/>
            <path class="letter" d="M706.749 507.273C706.749 506.729 706.669 506.219 706.511 505.743C706.363 505.256 706.137 504.831 705.831 504.468C705.525 504.105 705.134 503.822 704.658 503.618C704.193 503.403 703.649 503.295 703.026 503.295C701.813 503.295 700.855 503.641 700.153 504.332C699.461 505.023 699.019 506.004 698.827 507.273H706.749ZM698.742 509.806C698.81 510.701 698.968 511.478 699.218 512.135C699.467 512.781 699.796 513.319 700.204 513.75C700.612 514.169 701.093 514.487 701.649 514.702C702.215 514.906 702.839 515.008 703.519 515.008C704.199 515.008 704.782 514.929 705.27 514.77C705.768 514.611 706.199 514.436 706.562 514.243C706.936 514.05 707.259 513.875 707.531 513.716C707.814 513.557 708.086 513.478 708.347 513.478C708.698 513.478 708.959 513.608 709.129 513.869L710.336 515.399C709.871 515.943 709.35 516.402 708.772 516.776C708.194 517.139 707.587 517.433 706.953 517.66C706.329 517.875 705.689 518.028 705.032 518.119C704.386 518.21 703.757 518.255 703.145 518.255C701.932 518.255 700.804 518.057 699.762 517.66C698.719 517.252 697.812 516.657 697.042 515.875C696.271 515.082 695.665 514.107 695.223 512.951C694.781 511.784 694.56 510.435 694.56 508.905C694.56 507.715 694.752 506.599 695.138 505.556C695.523 504.502 696.073 503.59 696.787 502.819C697.512 502.037 698.39 501.419 699.422 500.966C700.464 500.513 701.637 500.286 702.941 500.286C704.04 500.286 705.054 500.462 705.984 500.813C706.913 501.164 707.712 501.68 708.381 502.36C709.049 503.029 709.571 503.856 709.945 504.842C710.33 505.817 710.523 506.933 710.523 508.191C710.523 508.826 710.455 509.256 710.319 509.483C710.183 509.698 709.922 509.806 709.537 509.806H698.742Z" fill="black"/>
            <path class="letter" d="M738.346 500.558L732.804 518H729.438C729.053 518 728.787 517.751 728.639 517.252L725.511 507.171C725.409 506.831 725.313 506.497 725.222 506.168C725.143 505.828 725.075 505.488 725.018 505.148C724.95 505.488 724.871 505.834 724.78 506.185C724.701 506.525 724.61 506.865 724.508 507.205L721.329 517.252C721.193 517.751 720.893 518 720.428 518H717.198L711.673 500.558H715.022C715.328 500.558 715.589 500.632 715.804 500.779C716.02 500.926 716.161 501.113 716.229 501.34L718.728 510.656C718.853 511.166 718.961 511.665 719.051 512.152C719.153 512.639 719.238 513.127 719.306 513.614C719.431 513.127 719.561 512.639 719.697 512.152C719.845 511.665 719.998 511.166 720.156 510.656L723.046 501.306C723.114 501.079 723.245 500.892 723.437 500.745C723.641 500.598 723.885 500.524 724.168 500.524H726.021C726.316 500.524 726.565 500.598 726.769 500.745C726.985 500.892 727.126 501.079 727.194 501.306L729.999 510.656C730.147 511.166 730.283 511.67 730.407 512.169C730.543 512.656 730.674 513.144 730.798 513.631C730.946 512.668 731.155 511.676 731.427 510.656L733.994 501.34C734.074 501.113 734.215 500.926 734.419 500.779C734.623 500.632 734.867 500.558 735.15 500.558H738.346Z" fill="black"/>
            <path class="letter" d="M751.177 503.958C751.064 504.139 750.945 504.27 750.82 504.349C750.695 504.417 750.537 504.451 750.344 504.451C750.14 504.451 749.919 504.394 749.681 504.281C749.454 504.168 749.188 504.043 748.882 503.907C748.576 503.76 748.225 503.629 747.828 503.516C747.443 503.403 746.984 503.346 746.451 503.346C745.624 503.346 744.972 503.522 744.496 503.873C744.031 504.224 743.799 504.683 743.799 505.25C743.799 505.624 743.918 505.941 744.156 506.202C744.405 506.451 744.728 506.672 745.125 506.865C745.533 507.058 745.992 507.233 746.502 507.392C747.012 507.539 747.528 507.704 748.049 507.885C748.582 508.066 749.103 508.276 749.613 508.514C750.123 508.741 750.576 509.035 750.973 509.398C751.381 509.749 751.704 510.174 751.942 510.673C752.191 511.172 752.316 511.772 752.316 512.475C752.316 513.314 752.163 514.09 751.857 514.804C751.562 515.507 751.12 516.119 750.531 516.64C749.942 517.15 749.211 517.552 748.338 517.847C747.477 518.13 746.479 518.272 745.346 518.272C744.745 518.272 744.156 518.215 743.578 518.102C743.011 518 742.462 517.853 741.929 517.66C741.408 517.467 740.92 517.241 740.467 516.98C740.025 516.719 739.634 516.436 739.294 516.13L740.263 514.532C740.388 514.339 740.535 514.192 740.705 514.09C740.875 513.988 741.09 513.937 741.351 513.937C741.612 513.937 741.855 514.011 742.082 514.158C742.32 514.305 742.592 514.464 742.898 514.634C743.204 514.804 743.561 514.963 743.969 515.11C744.388 515.257 744.915 515.331 745.55 515.331C746.049 515.331 746.474 515.274 746.825 515.161C747.188 515.036 747.482 514.878 747.709 514.685C747.947 514.492 748.117 514.271 748.219 514.022C748.332 513.761 748.389 513.495 748.389 513.223C748.389 512.815 748.264 512.481 748.015 512.22C747.777 511.959 747.454 511.733 747.046 511.54C746.649 511.347 746.19 511.177 745.669 511.03C745.159 510.871 744.632 510.701 744.088 510.52C743.555 510.339 743.028 510.129 742.507 509.891C741.997 509.642 741.538 509.33 741.13 508.956C740.733 508.582 740.41 508.123 740.161 507.579C739.923 507.035 739.804 506.378 739.804 505.607C739.804 504.893 739.946 504.213 740.229 503.567C740.512 502.921 740.926 502.36 741.47 501.884C742.025 501.397 742.711 501.011 743.527 500.728C744.354 500.433 745.306 500.286 746.383 500.286C747.584 500.286 748.678 500.484 749.664 500.881C750.65 501.278 751.472 501.799 752.129 502.445L751.177 503.958Z" fill="black"/> 
        </g>
    </g>
    <g class="youtube word-group">
        <g class="white-youtube white word">
            <path class="letter" d="M645.816 321.558L636.313 343.794C636.188 344.089 636.024 344.31 635.82 344.457C635.627 344.616 635.327 344.695 634.919 344.695H631.791L635.055 337.691L628 321.558H631.689C632.018 321.558 632.273 321.637 632.454 321.796C632.647 321.955 632.788 322.136 632.879 322.34L636.585 331.384C636.71 331.69 636.812 331.996 636.891 332.302C636.982 332.608 637.067 332.92 637.146 333.237C637.248 332.92 637.35 332.608 637.452 332.302C637.554 331.985 637.667 331.673 637.792 331.367L641.294 322.34C641.385 322.113 641.532 321.926 641.736 321.779C641.951 321.632 642.189 321.558 642.45 321.558H645.816Z" fill="white"/>
            <path class="letter" d="M655.088 321.286C656.38 321.286 657.553 321.496 658.607 321.915C659.673 322.334 660.579 322.929 661.327 323.7C662.087 324.471 662.67 325.411 663.078 326.522C663.486 327.633 663.69 328.874 663.69 330.245C663.69 331.628 663.486 332.874 663.078 333.985C662.67 335.096 662.087 336.042 661.327 336.824C660.579 337.606 659.673 338.207 658.607 338.626C657.553 339.045 656.38 339.255 655.088 339.255C653.785 339.255 652.601 339.045 651.535 338.626C650.47 338.207 649.558 337.606 648.798 336.824C648.05 336.042 647.467 335.096 647.047 333.985C646.639 332.874 646.435 331.628 646.435 330.245C646.435 328.874 646.639 327.633 647.047 326.522C647.467 325.411 648.05 324.471 648.798 323.7C649.558 322.929 650.47 322.334 651.535 321.915C652.601 321.496 653.785 321.286 655.088 321.286ZM655.088 336.025C656.539 336.025 657.61 335.538 658.301 334.563C659.004 333.588 659.355 332.16 659.355 330.279C659.355 328.398 659.004 326.964 658.301 325.978C657.61 324.992 656.539 324.499 655.088 324.499C653.615 324.499 652.521 324.998 651.807 325.995C651.105 326.981 650.753 328.409 650.753 330.279C650.753 332.149 651.105 333.577 651.807 334.563C652.521 335.538 653.615 336.025 655.088 336.025Z" fill="white"/>
            <path class="letter" d="M681.922 321.558V339H679.355C678.8 339 678.448 338.745 678.301 338.235L678.012 336.841C677.298 337.566 676.51 338.156 675.649 338.609C674.788 339.051 673.773 339.272 672.606 339.272C671.654 339.272 670.81 339.113 670.073 338.796C669.348 338.467 668.736 338.008 668.237 337.419C667.738 336.83 667.359 336.133 667.098 335.328C666.849 334.512 666.724 333.617 666.724 332.642V321.558H670.923V332.642C670.923 333.707 671.167 334.535 671.654 335.124C672.153 335.702 672.895 335.991 673.881 335.991C674.606 335.991 675.286 335.832 675.921 335.515C676.556 335.186 677.156 334.739 677.723 334.172V321.558H681.922Z" fill="white"/>
            <path class="letter" d="M691.899 339.272C690.381 339.272 689.213 338.847 688.397 337.997C687.593 337.136 687.19 335.951 687.19 334.444V324.703H685.405C685.179 324.703 684.986 324.629 684.827 324.482C684.669 324.335 684.589 324.114 684.589 323.819V322.153L687.394 321.694L688.278 316.934C688.335 316.707 688.443 316.532 688.601 316.407C688.76 316.282 688.964 316.22 689.213 316.22H691.389V321.711H696.047V324.703H691.389V334.155C691.389 334.699 691.52 335.124 691.78 335.43C692.052 335.736 692.421 335.889 692.885 335.889C693.146 335.889 693.361 335.861 693.531 335.804C693.713 335.736 693.866 335.668 693.99 335.6C694.126 335.532 694.245 335.47 694.347 335.413C694.449 335.345 694.551 335.311 694.653 335.311C694.778 335.311 694.88 335.345 694.959 335.413C695.039 335.47 695.124 335.56 695.214 335.685L696.472 337.725C695.86 338.235 695.158 338.62 694.364 338.881C693.571 339.142 692.749 339.272 691.899 339.272Z" fill="white"/>
            <path class="letter" d="M713.764 321.558V339H711.197C710.641 339 710.29 338.745 710.143 338.235L709.854 336.841C709.14 337.566 708.352 338.156 707.491 338.609C706.629 339.051 705.615 339.272 704.448 339.272C703.496 339.272 702.651 339.113 701.915 338.796C701.189 338.467 700.577 338.008 700.079 337.419C699.58 336.83 699.2 336.133 698.94 335.328C698.69 334.512 698.566 333.617 698.566 332.642V321.558H702.765V332.642C702.765 333.707 703.008 334.535 703.496 335.124C703.994 335.702 704.737 335.991 705.723 335.991C706.448 335.991 707.128 335.832 707.763 335.515C708.397 335.186 708.998 334.739 709.565 334.172V321.558H713.764Z" fill="white"/>
            <path class="letter" d="M722.126 334.478C722.602 335.056 723.118 335.464 723.673 335.702C724.24 335.94 724.835 336.059 725.458 336.059C726.104 336.059 726.682 335.946 727.192 335.719C727.713 335.481 728.155 335.118 728.518 334.631C728.881 334.132 729.158 333.503 729.351 332.744C729.544 331.973 729.64 331.055 729.64 329.99C729.64 328.075 729.323 326.692 728.688 325.842C728.053 324.981 727.141 324.55 725.951 324.55C725.146 324.55 724.444 324.737 723.843 325.111C723.242 325.474 722.67 325.989 722.126 326.658V334.478ZM722.126 323.7C722.829 322.963 723.605 322.38 724.455 321.949C725.316 321.507 726.297 321.286 727.396 321.286C728.405 321.286 729.311 321.484 730.116 321.881C730.932 322.278 731.623 322.85 732.19 323.598C732.768 324.335 733.21 325.23 733.516 326.284C733.822 327.338 733.975 328.522 733.975 329.837C733.975 331.254 733.799 332.54 733.448 333.696C733.097 334.852 732.592 335.844 731.935 336.671C731.289 337.487 730.507 338.122 729.589 338.575C728.671 339.028 727.651 339.255 726.529 339.255C725.985 339.255 725.492 339.198 725.05 339.085C724.608 338.983 724.2 338.836 723.826 338.643C723.452 338.45 723.106 338.218 722.789 337.946C722.483 337.663 722.188 337.351 721.905 337.011L721.718 338.184C721.65 338.479 721.531 338.688 721.361 338.813C721.202 338.938 720.981 339 720.698 339H717.927V313.738H722.126V323.7Z" fill="white"/>
            <path class="letter" d="M748.455 328.273C748.455 327.729 748.376 327.219 748.217 326.743C748.07 326.256 747.843 325.831 747.537 325.468C747.231 325.105 746.84 324.822 746.364 324.618C745.899 324.403 745.355 324.295 744.732 324.295C743.519 324.295 742.562 324.641 741.859 325.332C741.168 326.023 740.726 327.004 740.533 328.273H748.455ZM740.448 330.806C740.516 331.701 740.675 332.478 740.924 333.135C741.173 333.781 741.502 334.319 741.91 334.75C742.318 335.169 742.8 335.487 743.355 335.702C743.922 335.906 744.545 336.008 745.225 336.008C745.905 336.008 746.489 335.929 746.976 335.77C747.475 335.611 747.905 335.436 748.268 335.243C748.642 335.05 748.965 334.875 749.237 334.716C749.52 334.557 749.792 334.478 750.053 334.478C750.404 334.478 750.665 334.608 750.835 334.869L752.042 336.399C751.577 336.943 751.056 337.402 750.478 337.776C749.9 338.139 749.294 338.433 748.659 338.66C748.036 338.875 747.395 339.028 746.738 339.119C746.092 339.21 745.463 339.255 744.851 339.255C743.638 339.255 742.511 339.057 741.468 338.66C740.425 338.252 739.519 337.657 738.748 336.875C737.977 336.082 737.371 335.107 736.929 333.951C736.487 332.784 736.266 331.435 736.266 329.905C736.266 328.715 736.459 327.599 736.844 326.556C737.229 325.502 737.779 324.59 738.493 323.819C739.218 323.037 740.097 322.419 741.128 321.966C742.171 321.513 743.344 321.286 744.647 321.286C745.746 321.286 746.761 321.462 747.69 321.813C748.619 322.164 749.418 322.68 750.087 323.36C750.756 324.029 751.277 324.856 751.651 325.842C752.036 326.817 752.229 327.933 752.229 329.191C752.229 329.826 752.161 330.256 752.025 330.483C751.889 330.698 751.628 330.806 751.243 330.806H740.448Z" fill="white"/>
        </g>
        <g class="black-youtube black word">
            <path class="letter" d="M645.816 321.558L636.313 343.794C636.188 344.089 636.024 344.31 635.82 344.457C635.627 344.616 635.327 344.695 634.919 344.695H631.791L635.055 337.691L628 321.558H631.689C632.018 321.558 632.273 321.637 632.454 321.796C632.647 321.955 632.788 322.136 632.879 322.34L636.585 331.384C636.71 331.69 636.812 331.996 636.891 332.302C636.982 332.608 637.067 332.92 637.146 333.237C637.248 332.92 637.35 332.608 637.452 332.302C637.554 331.985 637.667 331.673 637.792 331.367L641.294 322.34C641.385 322.113 641.532 321.926 641.736 321.779C641.951 321.632 642.189 321.558 642.45 321.558H645.816Z" fill="black"/>
            <path class="letter" d="M655.088 321.286C656.38 321.286 657.553 321.496 658.607 321.915C659.673 322.334 660.579 322.929 661.327 323.7C662.087 324.471 662.67 325.411 663.078 326.522C663.486 327.633 663.69 328.874 663.69 330.245C663.69 331.628 663.486 332.874 663.078 333.985C662.67 335.096 662.087 336.042 661.327 336.824C660.579 337.606 659.673 338.207 658.607 338.626C657.553 339.045 656.38 339.255 655.088 339.255C653.785 339.255 652.601 339.045 651.535 338.626C650.47 338.207 649.558 337.606 648.798 336.824C648.05 336.042 647.467 335.096 647.047 333.985C646.639 332.874 646.435 331.628 646.435 330.245C646.435 328.874 646.639 327.633 647.047 326.522C647.467 325.411 648.05 324.471 648.798 323.7C649.558 322.929 650.47 322.334 651.535 321.915C652.601 321.496 653.785 321.286 655.088 321.286ZM655.088 336.025C656.539 336.025 657.61 335.538 658.301 334.563C659.004 333.588 659.355 332.16 659.355 330.279C659.355 328.398 659.004 326.964 658.301 325.978C657.61 324.992 656.539 324.499 655.088 324.499C653.615 324.499 652.521 324.998 651.807 325.995C651.105 326.981 650.753 328.409 650.753 330.279C650.753 332.149 651.105 333.577 651.807 334.563C652.521 335.538 653.615 336.025 655.088 336.025Z" fill="black"/>
            <path class="letter" d="M681.922 321.558V339H679.355C678.8 339 678.448 338.745 678.301 338.235L678.012 336.841C677.298 337.566 676.51 338.156 675.649 338.609C674.788 339.051 673.773 339.272 672.606 339.272C671.654 339.272 670.81 339.113 670.073 338.796C669.348 338.467 668.736 338.008 668.237 337.419C667.738 336.83 667.359 336.133 667.098 335.328C666.849 334.512 666.724 333.617 666.724 332.642V321.558H670.923V332.642C670.923 333.707 671.167 334.535 671.654 335.124C672.153 335.702 672.895 335.991 673.881 335.991C674.606 335.991 675.286 335.832 675.921 335.515C676.556 335.186 677.156 334.739 677.723 334.172V321.558H681.922Z" fill="black"/>
            <path class="letter" d="M691.899 339.272C690.381 339.272 689.213 338.847 688.397 337.997C687.593 337.136 687.19 335.951 687.19 334.444V324.703H685.405C685.179 324.703 684.986 324.629 684.827 324.482C684.669 324.335 684.589 324.114 684.589 323.819V322.153L687.394 321.694L688.278 316.934C688.335 316.707 688.443 316.532 688.601 316.407C688.76 316.282 688.964 316.22 689.213 316.22H691.389V321.711H696.047V324.703H691.389V334.155C691.389 334.699 691.52 335.124 691.78 335.43C692.052 335.736 692.421 335.889 692.885 335.889C693.146 335.889 693.361 335.861 693.531 335.804C693.713 335.736 693.866 335.668 693.99 335.6C694.126 335.532 694.245 335.47 694.347 335.413C694.449 335.345 694.551 335.311 694.653 335.311C694.778 335.311 694.88 335.345 694.959 335.413C695.039 335.47 695.124 335.56 695.214 335.685L696.472 337.725C695.86 338.235 695.158 338.62 694.364 338.881C693.571 339.142 692.749 339.272 691.899 339.272Z" fill="black"/>
            <path class="letter" d="M713.764 321.558V339H711.197C710.641 339 710.29 338.745 710.143 338.235L709.854 336.841C709.14 337.566 708.352 338.156 707.491 338.609C706.629 339.051 705.615 339.272 704.448 339.272C703.496 339.272 702.651 339.113 701.915 338.796C701.189 338.467 700.577 338.008 700.079 337.419C699.58 336.83 699.2 336.133 698.94 335.328C698.69 334.512 698.566 333.617 698.566 332.642V321.558H702.765V332.642C702.765 333.707 703.008 334.535 703.496 335.124C703.994 335.702 704.737 335.991 705.723 335.991C706.448 335.991 707.128 335.832 707.763 335.515C708.397 335.186 708.998 334.739 709.565 334.172V321.558H713.764Z" fill="black"/>
            <path class="letter" d="M722.126 334.478C722.602 335.056 723.118 335.464 723.673 335.702C724.24 335.94 724.835 336.059 725.458 336.059C726.104 336.059 726.682 335.946 727.192 335.719C727.713 335.481 728.155 335.118 728.518 334.631C728.881 334.132 729.158 333.503 729.351 332.744C729.544 331.973 729.64 331.055 729.64 329.99C729.64 328.075 729.323 326.692 728.688 325.842C728.053 324.981 727.141 324.55 725.951 324.55C725.146 324.55 724.444 324.737 723.843 325.111C723.242 325.474 722.67 325.989 722.126 326.658V334.478ZM722.126 323.7C722.829 322.963 723.605 322.38 724.455 321.949C725.316 321.507 726.297 321.286 727.396 321.286C728.405 321.286 729.311 321.484 730.116 321.881C730.932 322.278 731.623 322.85 732.19 323.598C732.768 324.335 733.21 325.23 733.516 326.284C733.822 327.338 733.975 328.522 733.975 329.837C733.975 331.254 733.799 332.54 733.448 333.696C733.097 334.852 732.592 335.844 731.935 336.671C731.289 337.487 730.507 338.122 729.589 338.575C728.671 339.028 727.651 339.255 726.529 339.255C725.985 339.255 725.492 339.198 725.05 339.085C724.608 338.983 724.2 338.836 723.826 338.643C723.452 338.45 723.106 338.218 722.789 337.946C722.483 337.663 722.188 337.351 721.905 337.011L721.718 338.184C721.65 338.479 721.531 338.688 721.361 338.813C721.202 338.938 720.981 339 720.698 339H717.927V313.738H722.126V323.7Z" fill="black"/>
            <path class="letter" d="M748.455 328.273C748.455 327.729 748.376 327.219 748.217 326.743C748.07 326.256 747.843 325.831 747.537 325.468C747.231 325.105 746.84 324.822 746.364 324.618C745.899 324.403 745.355 324.295 744.732 324.295C743.519 324.295 742.562 324.641 741.859 325.332C741.168 326.023 740.726 327.004 740.533 328.273H748.455ZM740.448 330.806C740.516 331.701 740.675 332.478 740.924 333.135C741.173 333.781 741.502 334.319 741.91 334.75C742.318 335.169 742.8 335.487 743.355 335.702C743.922 335.906 744.545 336.008 745.225 336.008C745.905 336.008 746.489 335.929 746.976 335.77C747.475 335.611 747.905 335.436 748.268 335.243C748.642 335.05 748.965 334.875 749.237 334.716C749.52 334.557 749.792 334.478 750.053 334.478C750.404 334.478 750.665 334.608 750.835 334.869L752.042 336.399C751.577 336.943 751.056 337.402 750.478 337.776C749.9 338.139 749.294 338.433 748.659 338.66C748.036 338.875 747.395 339.028 746.738 339.119C746.092 339.21 745.463 339.255 744.851 339.255C743.638 339.255 742.511 339.057 741.468 338.66C740.425 338.252 739.519 337.657 738.748 336.875C737.977 336.082 737.371 335.107 736.929 333.951C736.487 332.784 736.266 331.435 736.266 329.905C736.266 328.715 736.459 327.599 736.844 326.556C737.229 325.502 737.779 324.59 738.493 323.819C739.218 323.037 740.097 322.419 741.128 321.966C742.171 321.513 743.344 321.286 744.647 321.286C745.746 321.286 746.761 321.462 747.69 321.813C748.619 322.164 749.418 322.68 750.087 323.36C750.756 324.029 751.277 324.856 751.651 325.842C752.036 326.817 752.229 327.933 752.229 329.191C752.229 329.826 752.161 330.256 752.025 330.483C751.889 330.698 751.628 330.806 751.243 330.806H740.448Z" fill="black"/>
        </g>
    </g>
</g>
<g filter="url(#filter1_i)">
<rect x="604" y="224" width="200" height="472" rx="100" fill="url(#paint1_linear)"/>
</g>
</g>
<defs>
<filter id="filter0_i" x="56" y="212" width="240" height="484" filterUnits="userSpaceOnUse" color-interpolation-filters="sRGB">
<feFlood flood-opacity="0" result="BackgroundImageFix"/>
<feBlend mode="normal" in="SourceGraphic" in2="BackgroundImageFix" result="shape"/>
<feColorMatrix in="SourceAlpha" type="matrix" values="0 0 0 0 0 0 0 0 0 0 0 0 0 0 0 0 0 0 127 0" result="hardAlpha"/>
<feOffset dx="-40" dy="-12"/>
<feGaussianBlur stdDeviation="36"/>
<feComposite in2="hardAlpha" operator="arithmetic" k2="-1" k3="1"/>
<feColorMatrix type="matrix" values="0 0 0 0 0 0 0 0 0 0 0 0 0 0 0 0 0 0 0.1 0"/>
<feBlend mode="normal" in2="shape" result="effect1_innerShadow"/>
</filter>
<filter id="filter1_i" x="564" y="212" width="240" height="484" filterUnits="userSpaceOnUse" color-interpolation-filters="sRGB">
<feFlood flood-opacity="0" result="BackgroundImageFix"/>
<feBlend mode="normal" in="SourceGraphic" in2="BackgroundImageFix" result="shape"/>
<feColorMatrix in="SourceAlpha" type="matrix" values="0 0 0 0 0 0 0 0 0 0 0 0 0 0 0 0 0 0 127 0" result="hardAlpha"/>
<feOffset dx="-40" dy="-12"/>
<feGaussianBlur stdDeviation="36"/>
<feComposite in2="hardAlpha" operator="arithmetic" k2="-1" k3="1"/>
<feColorMatrix type="matrix" values="0 0 0 0 0 0 0 0 0 0 0 0 0 0 0 0 0 0 0.1 0"/>
<feBlend mode="normal" in2="shape" result="effect1_innerShadow"/>
</filter>
<linearGradient id="paint0_linear" x1="196" y1="224" x2="196" y2="696" gradientUnits="userSpaceOnUse">
<stop stop-color="#0D86F6"/>
<stop offset="1" stop-color="#590DFB"/>
</linearGradient>
<linearGradient id="paint1_linear" x1="704" y1="224" x2="704" y2="696" gradientUnits="userSpaceOnUse">
<stop stop-color="#181818"/>
<stop offset="1"/>
</linearGradient>
</defs>
</svg>
