<?xml version="1.0" encoding="UTF-8"?>
<svg width="228px" height="82px" viewBox="0 0 228 82" version="1.1" xmlns="http://www.w3.org/2000/svg" xmlns:xlink="http://www.w3.org/1999/xlink">
    <!-- Generator: Sketch 44.1 (41455) - http://www.bohemiancoding.com/sketch -->
    <title>felixlangeportfolio-logo</title>
    <desc>Created with Sketch.</desc>
    <defs></defs>
    <g id="Page-2" stroke="none" stroke-width="1" fill="none" fill-rule="evenodd" fill-opacity="0.8">
        <g id="felixlangeportfolio-logo" fill="#000000">
            <path d="M7.4609375,33 L2.265625,32.9414062 L2.265625,7.140625 L15.6445312,7.140625 C17.6367188,7.140625 18.515625,7.47265625 19.1796875,7.8046875 L17.65625,11.7695312 C17.1484375,11.4960938 16.71875,11.2421875 14.8046875,11.2226562 L13.4375,11.2226562 C11.40625,11.2226562 10.9375,11.2226562 7.36328125,11.2421875 L7.36328125,16.28125 C9.70703125,16.28125 8.96484375,16.2421875 11.3476562,16.2421875 C13.1054688,16.2421875 14.4140625,16.59375 15.1953125,16.9453125 L13.8671875,20.890625 C13.1445312,20.5585938 12.1679688,20.4609375 11.2890625,20.4609375 L9.62890625,20.4609375 C9.04296875,20.4609375 8.6328125,20.4609375 7.36328125,20.5 C7.36328125,22.9023438 7.4609375,31.1445312 7.4609375,33 Z M24.165625,21.1640625 C26.3726562,20.7734375 28.2085937,20.6953125 30.80625,20.6953125 C30.7085937,18.1367188 29.3023437,17.0234375 27.5835937,17.0234375 C25.5914062,17.0234375 24.2828125,18.8984375 24.165625,21.1640625 Z M27.5445312,13.0585938 C33.775,13.0585938 35.9039062,17.1210938 35.9039062,23.6835938 C35.9039062,24.0742188 35.884375,24.5234375 35.884375,24.5234375 C30.3179687,24.6015625 26.1578125,24.875 24.165625,25.265625 C24.478125,27.4335938 26.196875,29.171875 27.99375,29.171875 C30.0640625,29.171875 31.0015625,28.46875 32.3296875,27.0234375 L35.80625,30.0703125 C33.8335937,32.2578125 32.5445312,33.1953125 27.8765625,33.1953125 C22.290625,33.1953125 19.1265625,29.0351562 19.1265625,22.921875 C19.1265625,17.3359375 22.0171875,13.0585938 27.5445312,13.0585938 Z M42.1398437,5.63671875 L47.1007812,5.63671875 C47.1007812,10.96875 47.1398437,27.6484375 47.1398437,27.6484375 C47.1398437,28.8984375 47.4523437,29.4453125 49.2492187,29.4453125 C51.065625,29.4453125 52.2375,28.8007812 53.409375,27.6679688 L55.3039062,31.3789062 C53.6242187,32.765625 50.675,33.3515625 48.253125,33.3515625 C46.5929687,33.3515625 44.815625,33.078125 43.95625,32.609375 C42.2960937,31.6914062 42.1398437,30.1289062 42.1398437,28.9765625 C42.1398437,24.5429688 42.1203125,19.8359375 42.1203125,15.4023438 C42.1203125,13.1757812 42.1203125,11.5742188 42.1398437,9.54296875 L41.3585937,9.54296875 C40.2453125,9.54296875 38.5851562,9.58203125 37.1203125,9.9140625 L36.5539062,6.28125 C38.3898437,5.734375 40.5773437,5.63671875 42.1398437,5.63671875 Z M59.7234375,5.0703125 L59.7429687,9.875 L65.309375,9.875 L65.2703125,5.0703125 L59.7234375,5.0703125 Z M59.7234375,13.2148438 L64.7039062,13.2148438 C64.7039062,18.546875 64.7234375,27.6484375 64.7234375,27.6484375 C64.7234375,28.8984375 65.0554687,29.4453125 66.8523437,29.4453125 C68.66875,29.4453125 69.840625,28.8007812 71.0125,27.6679688 L72.9070312,31.3789062 C71.2273437,32.765625 68.278125,33.3515625 65.85625,33.3515625 C64.1960937,33.3515625 62.3992187,33.078125 61.5398437,32.609375 C59.8796875,31.6914062 59.7234375,30.1289062 59.7234375,28.9765625 L59.7234375,17.1210938 C58.7664062,17.1210938 57.0085937,17.2382812 55.153125,17.6679688 L54.5867187,14.0351562 C56.4226562,13.4882812 58.1609375,13.2148438 59.7234375,13.2148438 Z M91.7546875,16.6132812 C92.2234375,15.5585938 92.41875,14.171875 92.5359375,13.2148438 L87.8875,13.1953125 C87.809375,13.5273438 87.6140625,14.7382812 87.2234375,15.421875 C85.85625,17.8242188 84.91875,18.5273438 83.746875,19.8554688 L78.0828125,12.5898438 L74.528125,15.34375 L80.8953125,22.9804688 L73.7859375,30.6757812 L77.10625,33.8203125 L83.590625,26.5351562 C85.2703125,28.8398438 87.340625,31.4179688 88.746875,32.3359375 C89.528125,32.8828125 90.6609375,33.078125 91.48125,33.078125 C91.8328125,33.078125 92.3015625,33.0195312 92.653125,32.9609375 L92.6921875,28.4882812 C92.3796875,28.546875 92.028125,28.6054688 91.6765625,28.6054688 C91.0125,28.6054688 90.85625,28.3125 90.778125,28.2539062 C90.3484375,28 87.9265625,25.1679688 86.3640625,23.15625 C88.121875,21.4765625 90.9734375,18.3320312 91.7546875,16.6132812 Z M117.985156,33.0585938 L131.344531,33.0585938 C132.809375,33.0585938 134.020312,32.7070312 134.938281,32.3945312 L133.532031,28.546875 C132.672656,28.8398438 132.457812,28.8984375 131.305469,28.9570312 L122.985156,28.9570312 L122.985156,7.12109375 L117.985156,7.12109375 L117.985156,33.0585938 Z M141.832812,26.8085938 C141.832812,28.7226562 143.180469,29.3085938 144.430469,29.3085938 C146.578906,29.3085938 148.180469,27.3164062 148.532031,26.2226562 L148.532031,25.3046875 C147.828906,24.484375 146.500781,23.8203125 145.250781,23.8203125 C143.961719,23.8203125 141.832812,24.6601562 141.832812,26.8085938 Z M153.532031,26.828125 C153.532031,28.625 153.903125,29.640625 155.016406,30.5195312 L152.575,33.4296875 C151.559375,32.6484375 150.895312,32.4335938 150.075,31.0273438 C148.590625,32.5507812 146.989062,33.2148438 143.434375,33.2148438 C140.094531,33.2148438 136.715625,30.65625 136.715625,27.1015625 C136.715625,25.34375 137.301562,23.6445312 138.453906,22.453125 C140.309375,20.5585938 142.477344,19.9140625 145.250781,19.9140625 C146.500781,19.9140625 147.789844,20.3242188 148.532031,20.8320312 C148.532031,17.5898438 146.266406,16.984375 145.094531,16.984375 C142.848437,16.984375 141.0125,17.6289062 139.567187,19.1523438 L137.184375,15.0898438 C140.582812,12.9414062 141.774219,12.9804688 145.250781,12.921875 C149.645312,12.921875 153.532031,15.5585938 153.532031,20.2070312 L153.532031,26.828125 Z M162.926563,14.8945312 C162.789844,13.9375 162.379688,12.921875 162.184375,12.453125 L157.653125,13.390625 C158.121875,15.2265625 158.278125,15.734375 158.278125,19.2109375 L158.278125,33 L163.180469,33 L163.180469,19.1914062 C164.840625,17.7460938 166.910938,17.0039062 168.141406,17.0039062 C169.45,17.0039062 169.742969,17.9023438 169.742969,19.3476562 L169.742969,28.6640625 C169.742969,31.75 172.594531,33.1953125 174.45,33.78125 L176.715625,29.875 C175.621875,29.2890625 174.645313,28.859375 174.645313,27.5703125 L174.645313,17.453125 C174.645313,14.25 171.989063,12.9609375 168.785938,12.9609375 C166.6375,12.9609375 164.020313,13.9179688 162.926563,14.8945312 Z M187.594531,36.59375 C188.805469,36.59375 191.364063,35.2265625 191.364063,33.3125 C191.364063,32.5117188 190.934375,31.8671875 188.707813,31.8671875 L183.492969,31.8867188 C183.04375,32.4726562 183.04375,33.5664062 183.04375,34.4257812 C183.04375,35.6367188 184.489063,36.59375 185.836719,36.59375 L187.594531,36.59375 Z M189.625781,18.8203125 C189.625781,17.140625 188.160938,16.9453125 186.48125,16.9453125 C184.7625,16.9453125 183.414844,17.53125 183.414844,18.9960938 C183.414844,20.7539062 184.742969,21.3007812 186.500781,21.3007812 C188.805469,21.3007812 189.625781,20.2851562 189.625781,18.8203125 Z M194.020313,17.0039062 C194.020313,17.0039062 194.430469,17.4335938 194.430469,19.015625 C194.430469,22.453125 192.399219,25.2070312 186.930469,25.2070312 L186.871875,25.2070312 C185.407031,25.2070312 184.274219,25.0703125 184.000781,24.953125 C183.629688,25.3828125 183.414844,25.9101562 183.414844,26.4960938 C183.414844,27.1796875 183.864063,28.15625 185.934375,28.15625 L189.430469,28.15625 C192.41875,28.15625 196.246875,29.0546875 196.246875,32.9804688 C196.246875,37.3359375 192.028125,40.5 188.649219,40.5 L185.621875,40.5 C181.6375,40.5 178.590625,38.7226562 178.590625,34.5234375 C178.590625,32.5507812 179.254688,31.125 180.289844,30.2070312 C179.371875,29.5234375 178.590625,27.9804688 178.590625,26.3007812 C178.590625,24.328125 179.352344,23.390625 180.075,22.5898438 C179.313281,21.6132812 178.590625,20.890625 178.590625,19.4453125 C178.590625,14.8554688 181.735156,12.9609375 186.696094,12.9609375 C188.649219,12.9609375 190.524219,13.234375 192.008594,14.1523438 C192.965625,13.2539062 194.039844,12.9609375 196.305469,12.9609375 L196.305469,16.9453125 C196.071094,16.90625 195.7,16.8476562 195.504688,16.8476562 C194.840625,16.8476562 194.489063,16.8867188 194.020313,17.0039062 Z M204.29375,21.1640625 C206.500781,20.7734375 208.336719,20.6953125 210.934375,20.6953125 C210.836719,18.1367188 209.430469,17.0234375 207.711719,17.0234375 C205.719531,17.0234375 204.410938,18.8984375 204.29375,21.1640625 Z M207.672656,13.0585938 C213.903125,13.0585938 216.032031,17.1210938 216.032031,23.6835938 C216.032031,24.0742188 216.0125,24.5234375 216.0125,24.5234375 C210.446094,24.6015625 206.285938,24.875 204.29375,25.265625 C204.60625,27.4335938 206.325,29.171875 208.121875,29.171875 C210.192188,29.171875 211.129688,28.46875 212.457813,27.0234375 L215.934375,30.0703125 C213.961719,32.2578125 212.672656,33.1953125 208.004688,33.1953125 C202.41875,33.1953125 199.254688,29.0351562 199.254688,22.921875 C199.254688,17.3359375 202.145313,13.0585938 207.672656,13.0585938 Z M13.9453125,56.2460938 C13.9453125,52.2617188 11.6601562,52.1835938 10.0585938,52.1835938 L9.8828125,52.1835938 C8.69140625,52.1835938 7.83203125,52.2617188 6.953125,52.28125 L6.953125,53.6679688 C6.953125,57.3203125 6.9140625,61.3242188 6.9140625,61.3242188 C7.6171875,61.34375 8.30078125,61.3632812 8.9453125,61.3632812 C11.2109375,61.3632812 13.9453125,60.796875 13.9453125,56.2460938 Z M6.9140625,74 L2.03125,74 L2.03125,48.21875 C4.3359375,48.21875 5.078125,48.0625 7.67578125,48.0625 C12.0703125,48.0625 15.4101562,48.3164062 17.65625,51.0703125 C18.7109375,52.359375 19.0625,54.15625 19.0625,55.953125 C19.0625,62.28125 16.640625,65.4257812 9.921875,65.4257812 C8.984375,65.4257812 7.96875,65.40625 6.9140625,65.3671875 L6.9140625,74 Z M32.9101562,69.1757812 C33.828125,68.1601562 34.0820313,66.1289062 34.0820313,63.6484375 L34.0820313,63.3359375 C34.0429688,60.2695312 33.359375,57.7890625 30.859375,57.7890625 C27.9101563,57.7890625 27.03125,60.5234375 27.03125,64.5859375 C27.03125,67.828125 28.2617188,70.1523438 30.625,70.1523438 C31.6992188,70.1328125 32.2070312,69.8789062 32.9101562,69.1757812 Z M30.6054688,74.1171875 C24.5507812,74.1171875 22.109375,70.40625 22.109375,64.9375 C22.109375,57.6914062 24.8632812,53.84375 30.5664062,53.84375 C34.4140625,53.84375 36.5625,55.1914062 37.9296875,57.7695312 C38.7304688,59.3125 39.0820312,61.5195312 39.0820312,63.3945312 C39.0820312,68.9609375 37.2070312,74.1171875 30.6445312,74.1171875 L30.6054688,74.1171875 Z M49.296875,57.125 C48.6328125,55.1132812 47.5585938,54.5664062 46.3671875,53.609375 L43.4765625,57.2421875 C44.6875,58.3164062 45.625,59.1367188 45.625,60.25 L45.625,74 L50.546875,74 L50.546875,63.0625 C52.421875,59.4492188 53.984375,58.0234375 55.078125,58.0234375 C56.171875,58.0234375 56.3671875,58.8242188 56.3671875,59.546875 C56.3671875,59.8789062 56.3476562,60.1914062 56.328125,60.40625 L61.25,60.3671875 L61.25,59.78125 C61.25,56.0703125 59.1992188,54.078125 55.9375,54.078125 C52.7929688,54.078125 50.7617188,55.2109375 49.296875,57.125 Z M70.5078125,65.484375 C70.5859375,63.53125 70.5664062,61.4804688 70.6835938,58.2382812 C73.28125,58.2382812 76.3671875,58.2773438 79.0429688,58.2773438 L79.1015625,54.2929688 C78.9453125,54.2929688 72.8515625,54.2148438 70.7226562,54.2148438 C70.7421875,52.8867188 70.7617188,50.9921875 70.7617188,49.703125 L65.859375,49.5859375 C65.859375,50.953125 65.8398438,52.9257812 65.8398438,54.2929688 L65.546875,54.2929688 C64.9023438,54.2929688 64.0234375,54.3710938 63.5546875,54.5273438 L63.8867188,58.5117188 C64.3945312,58.3554688 64.9414062,58.2773438 65.4882812,58.2773438 L65.7617188,58.2773438 C65.6640625,61.4804688 65.625,63.6484375 65.5859375,65.40625 L65.5859375,66.2265625 C65.5859375,67.90625 65.6640625,69.390625 66.3476562,70.796875 C67.734375,73.6875 70.625,74.1171875 74.21875,74.1171875 C75.8789062,74.1171875 77.3828125,73.9609375 78.515625,73.296875 C80.703125,72.046875 81.7578125,69.859375 81.953125,69.3125 L77.890625,67.359375 C77.7539062,67.75 77.5390625,69.078125 76.5234375,69.625 C76.0351562,69.8984375 75.4492188,70.171875 74.1796875,70.171875 C73.9257812,70.171875 73.2617188,70.1328125 72.9101562,70.09375 C71.2695312,69.8203125 70.5078125,68.8828125 70.5078125,66.265625 L70.5078125,65.484375 Z M95.3320312,50.2304688 C97.0898438,50.2304688 98.2226562,50.4453125 98.7304688,52.046875 L102.871094,50.1523438 C101.347656,47.125 98.828125,46.3046875 95,46.3046875 C88.828125,46.3046875 87.5390625,50.6796875 87.5390625,53.21875 L87.5390625,54.234375 L84.7460938,54.234375 L84.7460938,58.2382812 L87.5390625,58.2382812 L87.5390625,74 L92.5585938,74 L92.5390625,58.2382812 L96.8164062,58.2382812 C97.9101562,58.2382812 98.3203125,58.3554688 98.7304688,58.4921875 L99.5898438,54.6445312 C99.0039062,54.46875 98.203125,54.234375 96.1523438,54.234375 L92.5585938,54.234375 C92.5585938,54.234375 92.5390625,53.375 92.5390625,52.8476562 C92.5390625,51.6757812 92.7539062,50.2304688 95.3320312,50.2304688 Z M113.722656,69.1757812 C114.640625,68.1601562 114.894531,66.1289062 114.894531,63.6484375 L114.894531,63.3359375 C114.855469,60.2695312 114.171875,57.7890625 111.671875,57.7890625 C108.722656,57.7890625 107.84375,60.5234375 107.84375,64.5859375 C107.84375,67.828125 109.074219,70.1523438 111.4375,70.1523438 C112.511719,70.1328125 113.019531,69.8789062 113.722656,69.1757812 Z M111.417969,74.1171875 C105.363281,74.1171875 102.921875,70.40625 102.921875,64.9375 C102.921875,57.6914062 105.675781,53.84375 111.378906,53.84375 C115.226562,53.84375 117.375,55.1914062 118.742188,57.7695312 C119.542969,59.3125 119.894531,61.5195312 119.894531,63.3945312 C119.894531,68.9609375 118.019531,74.1171875 111.457031,74.1171875 L111.417969,74.1171875 Z M127.152344,46.6367188 C125.589844,46.6367188 123.402344,46.734375 121.566406,47.28125 L122.132812,50.9140625 C123.597656,50.5820312 125.257812,50.5429688 126.371094,50.5429688 L127.152344,50.5429688 C127.132812,52.5742188 127.132812,54.1757812 127.132812,56.4023438 C127.132812,60.8359375 127.152344,65.5429688 127.152344,69.9765625 C127.152344,71.1289062 127.308594,72.6914062 128.96875,73.609375 C129.828125,74.078125 131.605469,74.3515625 133.265625,74.3515625 C135.6875,74.3515625 138.636719,73.765625 140.316406,72.3789062 L138.421875,68.6679688 C137.25,69.8007812 136.078125,70.4453125 134.261719,70.4453125 C132.464844,70.4453125 132.152344,69.8984375 132.152344,68.6484375 C132.152344,68.6484375 132.113281,51.96875 132.113281,46.6367188 L127.152344,46.6367188 Z M145.835938,46.0703125 L145.855469,50.875 L151.421875,50.875 L151.382812,46.0703125 L145.835938,46.0703125 Z M145.835938,54.2148438 C144.273438,54.2148438 142.535156,54.4882812 140.699219,55.0351562 L141.265625,58.6679688 C143.121094,58.2382812 144.878906,58.1210938 145.835938,58.1210938 L145.835938,69.9765625 C145.835938,71.1289062 145.992188,72.6914062 147.652344,73.609375 C148.511719,74.078125 150.308594,74.3515625 151.96875,74.3515625 C154.390625,74.3515625 157.339844,73.765625 159.019531,72.3789062 L157.125,68.6679688 C155.953125,69.8007812 154.78125,70.4453125 152.964844,70.4453125 C151.167969,70.4453125 150.835938,69.8984375 150.835938,68.6484375 C150.835938,68.6484375 150.816406,59.546875 150.816406,54.2148438 L145.835938,54.2148438 Z M171.832031,69.1757812 C172.75,68.1601562 173.003906,66.1289062 173.003906,63.6484375 L173.003906,63.3359375 C172.964844,60.2695312 172.28125,57.7890625 169.78125,57.7890625 C166.832031,57.7890625 165.953125,60.5234375 165.953125,64.5859375 C165.953125,67.828125 167.183594,70.1523438 169.546875,70.1523438 C170.621094,70.1328125 171.128906,69.8789062 171.832031,69.1757812 Z M169.527344,74.1171875 C163.472656,74.1171875 161.03125,70.40625 161.03125,64.9375 C161.03125,57.6914062 163.785156,53.84375 169.488281,53.84375 C173.335938,53.84375 175.484375,55.1914062 176.851562,57.7695312 C177.652344,59.3125 178.003906,61.5195312 178.003906,63.3945312 C178.003906,68.9609375 176.128906,74.1171875 169.566406,74.1171875 L169.527344,74.1171875 Z" id="Felix-Lange-Portfoli"></path>
        </g>
    </g>
</svg>