<svg width="360" height="269" viewBox="0 0 360 269" xmlns="http://www.w3.org/2000/svg"><title>hollo-email-structure</title><g fill="none" fill-rule="evenodd"><path fill="#F4F4F4" d="M0 0h360v269H0z"/><path d="M36.088 23.563c-1.126-.323-1.945-.72-2.458-1.192a2.28 2.28 0 0 1-.769-1.747c0-.784.314-1.432.94-1.945.627-.512 1.442-.769 2.444-.769.684 0 1.293.132 1.829.397.535.264.95.629 1.244 1.093.294.465.44.973.44 1.525H38.44c0-.602-.191-1.075-.574-1.419-.383-.344-.923-.516-1.62-.516-.647 0-1.152.143-1.514.427-.362.285-.544.68-.544 1.187 0 .405.173.748.517 1.028.344.28.93.537 1.756.77.828.232 1.475.488 1.942.768.467.28.813.608 1.039.981.226.374.338.814.338 1.32 0 .806-.314 1.452-.943 1.938-.629.485-1.47.728-2.523.728a4.678 4.678 0 0 1-1.914-.393c-.592-.262-1.049-.621-1.37-1.077a2.627 2.627 0 0 1-.482-1.552h1.32c0 .602.221 1.077.666 1.426.444.348 1.038.522 1.78.522.693 0 1.224-.14 1.593-.423.37-.283.554-.668.554-1.156 0-.487-.17-.864-.513-1.131-.342-.267-.961-.53-1.86-.79zm9.741 3.706c-.492.578-1.214.868-2.167.868-.788 0-1.389-.23-1.801-.687-.413-.458-.621-1.136-.626-2.034v-4.812H42.5v4.778c0 1.12.456 1.681 1.367 1.681.966 0 1.609-.36 1.928-1.08v-5.38h1.265V28h-1.204l-.027-.731zm9.413-2.885c0 1.13-.26 2.038-.78 2.724-.519.686-1.216 1.029-2.09 1.029-.935 0-1.657-.33-2.168-.991l-.061.854H48.98V17.5h1.265v3.917c.51-.633 1.215-.95 2.112-.95.898 0 1.603.34 2.116 1.018.513.68.77 1.61.77 2.79v.109zm-1.264-.144c0-.861-.167-1.526-.5-1.996-.332-.47-.81-.704-1.435-.704-.834 0-1.433.387-1.798 1.162v3.2c.387.774.991 1.161 1.812 1.161.606 0 1.077-.234 1.415-.704.337-.469.506-1.175.506-2.119zm4.163-3.636v8.25c0 1.422-.645 2.133-1.935 2.133-.278 0-.535-.04-.772-.123v-1.011c.145.036.337.054.574.054.282 0 .498-.076.646-.229.148-.152.222-.418.222-.796v-8.278h1.265zm-1.395-1.962c0-.2.063-.373.188-.517.125-.143.309-.215.55-.215.246 0 .433.07.56.212a.747.747 0 0 1 .192.52.722.722 0 0 1-.191.512c-.128.137-.315.205-.56.205-.247 0-.431-.068-.554-.205a.738.738 0 0 1-.185-.512zm6.501 9.495c-1.003 0-1.818-.33-2.447-.988-.63-.659-.944-1.54-.944-2.642v-.233c0-.733.14-1.388.42-1.965a3.28 3.28 0 0 1 1.177-1.353 2.956 2.956 0 0 1 1.637-.49c.961 0 1.709.318 2.242.951.533.633.8 1.54.8 2.72v.527h-5.01c.017.73.23 1.318.638 1.767.408.449.927.673 1.555.673.447 0 .825-.09 1.135-.273.31-.182.581-.424.814-.725l.772.602c-.62.952-1.55 1.429-2.789 1.429zm-.157-6.631c-.51 0-.939.186-1.285.557-.347.371-.56.892-.643 1.562h3.705v-.096c-.036-.642-.21-1.14-.52-1.493-.31-.354-.729-.53-1.257-.53zm7.472 5.598c.45 0 .845-.136 1.182-.41a1.44 1.44 0 0 0 .56-1.025h1.197a2.293 2.293 0 0 1-.438 1.21 2.881 2.881 0 0 1-1.076.916 3.107 3.107 0 0 1-1.425.342c-1.008 0-1.809-.336-2.403-1.009-.595-.672-.892-1.591-.892-2.758v-.212c0-.72.132-1.36.396-1.92a3.02 3.02 0 0 1 1.138-1.306c.495-.31 1.08-.465 1.754-.465.83 0 1.518.248 2.068.745.549.497.842 1.142.878 1.934h-1.196c-.037-.478-.218-.871-.544-1.179-.326-.307-.728-.461-1.206-.461-.643 0-1.14.231-1.494.694-.353.462-.53 1.131-.53 2.006v.24c0 .852.176 1.508.527 1.968.35.46.852.69 1.504.69zm6.077-8.291v1.79h1.38v.978h-1.38v4.587c0 .296.061.518.184.666.123.149.333.223.63.223.145 0 .346-.028.6-.082V28a3.666 3.666 0 0 1-.97.137c-.565 0-.991-.171-1.278-.513-.287-.342-.431-.827-.431-1.456v-4.587h-1.347v-.977h1.347v-1.791h1.265zm2.816 8.524c0-.219.065-.401.195-.547.13-.146.325-.219.584-.219.26 0 .457.073.592.219a.776.776 0 0 1 .201.547c0 .21-.067.385-.201.526-.135.142-.332.212-.592.212-.26 0-.454-.07-.584-.212a.748.748 0 0 1-.195-.526zm.007-6.036c0-.219.065-.401.195-.547.13-.146.324-.219.584-.219.26 0 .457.073.592.219a.776.776 0 0 1 .201.547c0 .21-.067.385-.201.526-.135.141-.332.212-.592.212-.26 0-.454-.07-.584-.212a.748.748 0 0 1-.195-.526zM38.645 88.604h-4.177V93h-1.313v-9.953h6.166v1.08h-4.853v3.404h4.177v1.073zm5.626-1.866a3.79 3.79 0 0 0-.623-.048c-.829 0-1.392.354-1.688 1.06V93h-1.265v-7.396h1.23l.021.854c.415-.66 1.003-.991 1.764-.991.246 0 .433.032.56.096v1.175zm.827 2.495c0-.724.142-1.376.427-1.955a3.187 3.187 0 0 1 1.19-1.34c.507-.314 1.087-.471 1.74-.471 1.006 0 1.82.348 2.443 1.046.622.697.933 1.624.933 2.782v.089c0 .72-.138 1.366-.414 1.938a3.14 3.14 0 0 1-1.182 1.336c-.513.32-1.102.479-1.767.479-1.003 0-1.815-.349-2.437-1.046-.622-.697-.933-1.62-.933-2.769v-.089zm1.271.15c0 .821.19 1.48.57 1.976.381.497.89.745 1.529.745.642 0 1.153-.251 1.531-.755.378-.503.567-1.209.567-2.116 0-.81-.192-1.468-.577-1.972-.385-.503-.897-.755-1.535-.755-.624 0-1.128.248-1.51.745-.383.497-.575 1.208-.575 2.133zm8.237-3.78l.035.82c.542-.637 1.273-.956 2.194-.956 1.034 0 1.739.396 2.112 1.19a2.81 2.81 0 0 1 .96-.862c.395-.219.86-.328 1.399-.328 1.622 0 2.447.859 2.474 2.577V93h-1.264v-4.88c0-.53-.121-.925-.363-1.187-.241-.262-.647-.393-1.216-.393-.47 0-.86.14-1.17.42-.31.28-.49.658-.54 1.132V93h-1.27v-4.847c0-1.075-.527-1.613-1.58-1.613-.83 0-1.397.353-1.702 1.06V93H53.41v-7.396h1.196zm11.04 6.734c0-.219.065-.401.195-.547.13-.146.325-.219.585-.219.26 0 .457.073.591.219a.776.776 0 0 1 .202.547.73.73 0 0 1-.202.526c-.134.142-.331.212-.591.212-.26 0-.455-.07-.585-.212a.748.748 0 0 1-.195-.526zm.007-6.036c0-.219.065-.401.195-.547.13-.146.325-.219.585-.219.26 0 .456.073.59.219a.776.776 0 0 1 .203.547c0 .21-.068.385-.202.526-.135.141-.332.212-.591.212-.26 0-.455-.07-.585-.212a.748.748 0 0 1-.195-.526z" fill-opacity=".87" fill="#666"/><path d="M37.492 49.398H34.82V54h-1.508V42.625h3.766c1.281 0 2.267.292 2.957.875s1.035 1.432 1.035 2.547c0 .708-.191 1.325-.574 1.851-.383.526-.915.92-1.598 1.18l2.672 4.828V54h-1.61l-2.468-4.602zm-2.672-1.226h2.305c.745 0 1.337-.193 1.777-.578.44-.386.66-.901.66-1.547 0-.703-.21-1.242-.628-1.617-.42-.375-1.025-.565-1.817-.57H34.82v4.312zm11.633 5.984c-1.146 0-2.078-.376-2.797-1.129-.719-.752-1.078-1.759-1.078-3.02v-.265c0-.838.16-1.587.48-2.246a3.748 3.748 0 0 1 1.344-1.547 3.378 3.378 0 0 1 1.871-.558c1.1 0 1.954.362 2.563 1.086.61.724.914 1.76.914 3.109v.602h-5.727c.021.833.265 1.506.73 2.019.467.513 1.06.77 1.778.77.51 0 .943-.105 1.297-.313.354-.208.664-.484.93-.828l.883.687c-.709 1.089-1.771 1.633-3.188 1.633zm-.18-7.578c-.583 0-1.072.212-1.468.637-.396.424-.64 1.02-.735 1.785h4.235v-.11c-.042-.734-.24-1.303-.594-1.706-.354-.404-.833-.606-1.438-.606zm5.102 6.664c0-.25.074-.458.223-.625.148-.166.37-.25.668-.25.297 0 .522.084.675.25.154.167.23.375.23.625 0 .24-.076.44-.23.602-.153.161-.378.242-.675.242-.297 0-.52-.08-.668-.242a.855.855 0 0 1-.223-.602zm.008-6.898c0-.25.074-.459.222-.625.149-.167.372-.25.668-.25.297 0 .523.083.676.25.154.166.23.375.23.625 0 .24-.076.44-.23.601-.153.162-.379.242-.676.242-.296 0-.52-.08-.668-.242a.855.855 0 0 1-.222-.601zm8 .5a4.331 4.331 0 0 0-.711-.055c-.948 0-1.591.404-1.93 1.211v6h-1.445v-8.453h1.406l.024.976c.474-.755 1.145-1.132 2.015-1.132.281 0 .495.036.64.109v1.344zm4.836 7.312c-1.146 0-2.078-.376-2.797-1.129-.719-.752-1.078-1.759-1.078-3.02v-.265c0-.838.16-1.587.48-2.246a3.748 3.748 0 0 1 1.344-1.547 3.378 3.378 0 0 1 1.871-.558c1.099 0 1.953.362 2.563 1.086.609.724.914 1.76.914 3.109v.602h-5.727c.02.833.264 1.506.73 2.019.467.513 1.06.77 1.778.77.51 0 .943-.105 1.297-.313.354-.208.664-.484.93-.828l.882.687c-.708 1.089-1.77 1.633-3.187 1.633zm-.18-7.578c-.583 0-1.073.212-1.469.637-.396.424-.64 1.02-.734 1.785h4.234v-.11c-.041-.734-.24-1.303-.593-1.706-.355-.404-.834-.606-1.438-.606zm5.102 6.664c0-.25.074-.458.222-.625.149-.166.371-.25.668-.25.297 0 .522.084.676.25.154.167.23.375.23.625 0 .24-.076.44-.23.602-.154.161-.379.242-.676.242-.297 0-.52-.08-.668-.242a.855.855 0 0 1-.222-.602zm.007-6.898c0-.25.075-.459.223-.625.149-.167.371-.25.668-.25.297 0 .522.083.676.25.153.166.23.375.23.625 0 .24-.077.44-.23.601-.154.162-.38.242-.676.242-.297 0-.52-.08-.668-.242a.855.855 0 0 1-.223-.601zm8 .5a4.331 4.331 0 0 0-.71-.055c-.948 0-1.592.404-1.93 1.211v6h-1.445v-8.453h1.406l.023.976c.474-.755 1.146-1.132 2.016-1.132.281 0 .495.036.64.109v1.344zm4.836 7.312c-1.145 0-2.078-.376-2.796-1.129-.72-.752-1.079-1.759-1.079-3.02v-.265c0-.838.16-1.587.48-2.246a3.748 3.748 0 0 1 1.345-1.547 3.378 3.378 0 0 1 1.87-.558c1.1 0 1.954.362 2.563 1.086.61.724.914 1.76.914 3.109v.602h-5.726c.02.833.264 1.506.73 2.019.466.513 1.059.77 1.778.77.51 0 .942-.105 1.296-.313.355-.208.664-.484.93-.828l.883.687c-.708 1.089-1.771 1.633-3.188 1.633zm-.18-7.578c-.583 0-1.072.212-1.468.637-.396.424-.64 1.02-.734 1.785h4.234v-.11c-.042-.734-.24-1.303-.594-1.706-.354-.404-.833-.606-1.437-.606zm5.102 6.664c0-.25.074-.458.223-.625.148-.166.371-.25.668-.25.297 0 .522.084.676.25a.89.89 0 0 1 .23.625c0 .24-.077.44-.23.602-.154.161-.38.242-.676.242-.297 0-.52-.08-.668-.242a.855.855 0 0 1-.223-.602zm.008-6.898c0-.25.074-.459.223-.625.148-.167.37-.25.668-.25.297 0 .522.083.675.25.154.166.23.375.23.625 0 .24-.076.44-.23.601-.153.162-.378.242-.675.242-.297 0-.52-.08-.668-.242a.855.855 0 0 1-.223-.601zm9.32.226c.641-.786 1.474-1.18 2.5-1.18 1.787 0 2.688 1.008 2.704 3.024V54h-1.446v-5.594c-.005-.61-.144-1.06-.418-1.351-.273-.292-.699-.438-1.277-.438-.469 0-.88.125-1.234.375-.355.25-.63.578-.829.985V54H94.79V42h1.445v4.57zm8.938 7.43h-1.445v-8.453h1.445V54zm-1.563-10.695c0-.235.072-.433.215-.594.143-.162.356-.242.637-.242s.495.08.64.242c.146.161.22.36.22.594 0 .234-.074.43-.22.586-.145.156-.359.234-.64.234s-.494-.078-.637-.234a.834.834 0 0 1-.215-.586zm7.961 3.539a4.331 4.331 0 0 0-.71-.055c-.949 0-1.592.404-1.93 1.211v6h-1.446v-8.453h1.407l.023.976c.474-.755 1.146-1.132 2.016-1.132.28 0 .494.036.64.109v1.344zm2.9 7.156h-1.446v-8.453h1.446V54zm-1.563-10.695c0-.235.072-.433.215-.594.143-.162.356-.242.637-.242s.495.08.64.242c.146.161.22.36.22.594 0 .234-.074.43-.22.586-.145.156-.359.234-.64.234s-.494-.078-.637-.234a.834.834 0 0 1-.215-.586zm5.242 2.242l.047 1.062c.646-.812 1.49-1.218 2.532-1.218 1.786 0 2.687 1.007 2.703 3.023V54h-1.446v-5.594c-.005-.61-.144-1.06-.418-1.351-.273-.292-.699-.438-1.277-.438-.469 0-.88.125-1.234.375s-.63.578-.828.985V54h-1.446v-8.453h1.367zm7.118 4.156c0-1.318.304-2.366.914-3.144.61-.78 1.416-1.168 2.422-1.168 1.03 0 1.835.364 2.414 1.093l.07-.937h1.32v8.25c0 1.094-.324 1.956-.972 2.586-.649.63-1.52.945-2.614.945-.61 0-1.205-.13-1.789-.39-.583-.26-1.028-.618-1.336-1.07l.75-.868c.62.766 1.378 1.148 2.274 1.148.703 0 1.251-.197 1.644-.593.394-.396.59-.953.59-1.672v-.727c-.578.667-1.367 1-2.367 1-.99 0-1.79-.398-2.402-1.195-.612-.797-.918-1.883-.918-3.258zm1.453.164c0 .953.195 1.702.586 2.246.39.545.937.817 1.64.817.912 0 1.581-.414 2.008-1.242v-3.86c-.443-.807-1.107-1.21-1.992-1.21-.703 0-1.253.273-1.649.82-.395.546-.593 1.356-.593 2.43zM143.766 54c-.084-.167-.151-.464-.203-.89-.672.697-1.474 1.046-2.407 1.046-.833 0-1.517-.235-2.05-.707-.534-.471-.801-1.069-.801-1.793 0-.88.334-1.564 1.004-2.05.669-.488 1.61-.731 2.824-.731h1.406v-.664c0-.505-.151-.908-.453-1.207-.302-.3-.747-.45-1.336-.45-.516 0-.948.13-1.297.391-.349.26-.523.576-.523.946h-1.453c0-.422.15-.83.449-1.223.3-.393.706-.704 1.219-.934a4.1 4.1 0 0 1 1.69-.343c.975 0 1.738.243 2.29.73s.839 1.158.86 2.012v3.89c0 .776.098 1.394.296 1.852V54h-1.515zm-2.399-1.102a2.54 2.54 0 0 0 1.29-.351c.406-.235.7-.54.882-.914v-1.735h-1.133c-1.77 0-2.656.519-2.656 1.555 0 .453.151.807.453 1.063.302.255.69.382 1.164.382zm13.235.079a2.08 2.08 0 0 0 1.351-.47c.386-.312.6-.702.64-1.171h1.368a2.62 2.62 0 0 1-.5 1.383 3.293 3.293 0 0 1-1.23 1.047 3.55 3.55 0 0 1-1.63.39c-1.15 0-2.066-.384-2.746-1.152-.68-.768-1.02-1.82-1.02-3.152v-.243c0-.823.152-1.554.454-2.195a3.451 3.451 0 0 1 1.3-1.492c.566-.354 1.234-.531 2.005-.531.948 0 1.735.283 2.363.851.628.568.962 1.305 1.004 2.211h-1.367c-.042-.547-.249-.996-.621-1.348-.373-.351-.832-.527-1.38-.527-.734 0-1.303.264-1.706.793-.404.529-.606 1.293-.606 2.293v.273c0 .974.2 1.724.602 2.25.4.527.974.79 1.719.79zM164.805 54c-.084-.167-.151-.464-.203-.89-.672.697-1.474 1.046-2.407 1.046-.833 0-1.517-.235-2.05-.707-.534-.471-.801-1.069-.801-1.793 0-.88.334-1.564 1.004-2.05.669-.488 1.61-.731 2.824-.731h1.406v-.664c0-.505-.15-.908-.453-1.207-.302-.3-.747-.45-1.336-.45-.516 0-.948.13-1.297.391-.349.26-.523.576-.523.946h-1.453c0-.422.15-.83.449-1.223.3-.393.706-.704 1.219-.934a4.1 4.1 0 0 1 1.691-.343c.974 0 1.737.243 2.29.73.551.487.838 1.158.858 2.012v3.89c0 .776.1 1.394.297 1.852V54h-1.515zm-2.399-1.102a2.54 2.54 0 0 0 1.29-.351c.406-.235.7-.54.882-.914v-1.735h-1.133c-1.77 0-2.656.519-2.656 1.555 0 .453.151.807.453 1.063.302.255.69.382 1.164.382zm9.969-6.054a4.331 4.331 0 0 0-.71-.055c-.949 0-1.592.404-1.93 1.211v6h-1.446v-8.453h1.406l.024.976c.474-.755 1.146-1.132 2.015-1.132.282 0 .495.036.641.109v1.344zm7.25-3.344v2.047h1.578v1.117h-1.578v5.242c0 .339.07.593.21.762.142.17.381.254.72.254a3.5 3.5 0 0 0 .687-.094V54a4.19 4.19 0 0 1-1.11.156c-.645 0-1.132-.195-1.46-.586-.328-.39-.492-.945-.492-1.664v-5.242h-1.54v-1.117h1.54V43.5h1.445zm4.71 3.07c.642-.786 1.475-1.18 2.5-1.18 1.787 0 2.688 1.008 2.704 3.024V54h-1.445v-5.594c-.005-.61-.145-1.06-.418-1.351-.274-.292-.7-.438-1.278-.438-.468 0-.88.125-1.234.375s-.63.578-.828.985V54h-1.445V42h1.445v4.57zm8.938 7.43h-1.445v-8.453h1.445V54zm-1.562-10.695c0-.235.072-.433.215-.594.143-.162.355-.242.637-.242.28 0 .494.08.64.242.146.161.219.36.219.594 0 .234-.073.43-.219.586-.146.156-.36.234-.64.234-.282 0-.494-.078-.637-.234a.834.834 0 0 1-.215-.586zm8.797 8.453c0-.39-.147-.694-.442-.91-.294-.216-.807-.403-1.539-.559-.731-.156-1.312-.344-1.742-.562-.43-.22-.747-.48-.953-.782-.206-.302-.309-.661-.309-1.078 0-.693.293-1.278.88-1.758.585-.479 1.334-.718 2.245-.718.959 0 1.736.247 2.332.742.597.495.895 1.127.895 1.898h-1.453c0-.396-.168-.737-.504-1.023-.336-.287-.76-.43-1.27-.43-.526 0-.937.115-1.234.344a1.081 1.081 0 0 0-.445.898c0 .35.138.612.414.79.276.176.775.346 1.496.507.721.162 1.306.354 1.754.578.448.224.78.494.996.809.216.315.324.7.324 1.152 0 .755-.302 1.36-.906 1.817-.604.455-1.388.683-2.352.683-.677 0-1.276-.12-1.797-.36a2.922 2.922 0 0 1-1.222-1.003 2.42 2.42 0 0 1-.442-1.395h1.446c.026.485.22.869.582 1.153.362.284.84.426 1.433.426.547 0 .986-.111 1.317-.332.33-.222.496-.517.496-.887zm14.773.25l1.625-6.461h1.446L215.89 54h-1.172l-2.055-6.406-2 6.406h-1.172l-2.453-8.453h1.438l1.664 6.328 1.968-6.328h1.164l2.008 6.46zm8.047 2.148c-1.146 0-2.078-.376-2.797-1.129-.719-.752-1.078-1.759-1.078-3.02v-.265c0-.838.16-1.587.48-2.246a3.748 3.748 0 0 1 1.344-1.547 3.378 3.378 0 0 1 1.871-.558c1.1 0 1.954.362 2.563 1.086.61.724.914 1.76.914 3.109v.602h-5.727c.021.833.265 1.506.73 2.019.467.513 1.06.77 1.778.77.51 0 .943-.105 1.297-.313.354-.208.664-.484.93-.828l.883.687c-.709 1.089-1.771 1.633-3.188 1.633zm-.18-7.578c-.583 0-1.072.212-1.468.637-.396.424-.64 1.02-.735 1.785h4.235v-.11c-.042-.734-.24-1.303-.594-1.706-.354-.404-.833-.606-1.438-.606zm8.657 7.578c-1.146 0-2.078-.376-2.797-1.129-.719-.752-1.078-1.759-1.078-3.02v-.265c0-.838.16-1.587.48-2.246a3.748 3.748 0 0 1 1.344-1.547 3.378 3.378 0 0 1 1.871-.558c1.099 0 1.953.362 2.563 1.086.609.724.914 1.76.914 3.109v.602h-5.727c.02.833.264 1.506.73 2.019.467.513 1.06.77 1.778.77.51 0 .943-.105 1.297-.313.354-.208.664-.484.93-.828l.882.687c-.708 1.089-1.77 1.633-3.187 1.633zm-.18-7.578c-.583 0-1.073.212-1.469.637-.396.424-.64 1.02-.734 1.785h4.234v-.11c-.041-.734-.24-1.303-.594-1.706-.354-.404-.833-.606-1.437-.606zm7.508 3.508l-.906.945V54h-1.446V42h1.446v7.258l.773-.93 2.633-2.781h1.758l-3.29 3.531L243.774 54h-1.695l-2.945-3.914zm9.258 4.07c-1.146 0-2.078-.376-2.797-1.129-.719-.752-1.078-1.759-1.078-3.02v-.265c0-.838.16-1.587.48-2.246a3.748 3.748 0 0 1 1.344-1.547 3.378 3.378 0 0 1 1.87-.558c1.1 0 1.954.362 2.563 1.086.61.724.915 1.76.915 3.109v.602h-5.727c.02.833.264 1.506.73 2.019.467.513 1.059.77 1.778.77.51 0 .942-.105 1.297-.313.354-.208.664-.484.93-.828l.882.687c-.708 1.089-1.77 1.633-3.187 1.633zm-.18-7.578c-.583 0-1.073.212-1.469.637-.396.424-.64 1.02-.734 1.785h4.234v-.11c-.041-.734-.24-1.303-.594-1.706-.354-.404-.833-.606-1.437-.606zm6.516-1.031l.046 1.062c.646-.812 1.49-1.218 2.532-1.218 1.786 0 2.687 1.007 2.703 3.023V54h-1.445v-5.594c-.006-.61-.145-1.06-.418-1.351-.274-.292-.7-.438-1.278-.438-.469 0-.88.125-1.234.375s-.63.578-.828.985V54h-1.446v-8.453h1.368zm7.109 4.156c0-1.297.307-2.34.922-3.129.614-.789 1.42-1.183 2.414-1.183.99 0 1.773.338 2.351 1.015V42h1.446v12h-1.328l-.07-.906c-.579.708-1.383 1.062-2.415 1.062-.979 0-1.777-.4-2.394-1.203-.617-.802-.926-1.849-.926-3.14v-.11zm1.445.164c0 .959.198 1.709.594 2.25.396.542.943.813 1.64.813.917 0 1.587-.412 2.008-1.235v-3.883c-.432-.796-1.096-1.195-1.992-1.195-.708 0-1.26.274-1.656.82-.396.547-.594 1.357-.594 2.43zm9.625.93c.01-.62.081-1.11.211-1.469.13-.36.396-.758.797-1.195l1.024-1.055c.437-.495.656-1.026.656-1.594 0-.547-.143-.975-.43-1.285-.286-.31-.703-.465-1.25-.465-.531 0-.958.141-1.281.422-.323.282-.485.66-.485 1.133h-1.445c.01-.844.311-1.525.902-2.043.592-.518 1.361-.777 2.31-.777.983 0 1.75.264 2.3.793.55.528.824 1.254.824 2.175 0 .912-.422 1.81-1.266 2.696l-.851.844c-.38.421-.57 1.028-.57 1.82h-1.446zm-.062 2.476c0-.234.071-.43.215-.59.143-.158.355-.238.636-.238.282 0 .495.08.64.239a.84.84 0 0 1 .22.59.812.812 0 0 1-.22.581c-.145.154-.358.23-.64.23-.28 0-.493-.076-.636-.23a.82.82 0 0 1-.215-.582zM33.805 119v-7.336h-1.336v-1.117h1.336v-.867c0-.907.242-1.607.726-2.102.485-.495 1.17-.742 2.055-.742.333 0 .664.044.992.133l-.078 1.172a4.151 4.151 0 0 0-.781-.07c-.469 0-.831.136-1.086.41-.255.273-.383.665-.383 1.175v.89h1.805v1.118H35.25V119h-1.445zm8.351.156c-1.146 0-2.078-.376-2.797-1.129-.718-.752-1.078-1.759-1.078-3.02v-.265c0-.838.16-1.587.48-2.246a3.748 3.748 0 0 1 1.344-1.547 3.378 3.378 0 0 1 1.872-.558c1.099 0 1.953.362 2.562 1.086.61.724.914 1.76.914 3.109v.602h-5.726c.02.833.264 1.506.73 2.019.466.513 1.059.77 1.777.77.51 0 .943-.105 1.297-.313.354-.208.664-.484.93-.828l.883.687c-.709 1.089-1.771 1.633-3.188 1.633zm-.18-7.578c-.583 0-1.072.212-1.468.637-.396.424-.64 1.02-.735 1.785h4.235v-.11c-.042-.734-.24-1.303-.594-1.706-.354-.404-.833-.606-1.437-.606zm6.72 7.422H47.25v-12h1.445v12zm3.882 0h-1.445v-8.453h1.445V119zm-1.562-10.695c0-.235.071-.433.214-.594.144-.162.356-.242.637-.242s.495.08.64.242a.85.85 0 0 1 .22.594c0 .234-.073.43-.22.586-.145.156-.359.234-.64.234s-.493-.078-.637-.234a.834.834 0 0 1-.214-.586zm6.71 5.328l1.876-3.086h1.687l-2.766 4.18L61.375 119h-1.672l-1.953-3.164L55.797 119h-1.68l2.852-4.273-2.766-4.18h1.672l1.852 3.086zm5.126 4.61c0-.25.074-.46.222-.626.149-.166.371-.25.668-.25.297 0 .522.084.676.25.154.167.23.375.23.625 0 .24-.076.44-.23.602-.154.161-.379.242-.676.242-.297 0-.52-.08-.668-.242a.855.855 0 0 1-.222-.602zm8.265-6.4a4.331 4.331 0 0 0-.71-.054c-.949 0-1.592.404-1.93 1.211v6H67.03v-8.453h1.406l.024.976c.474-.755 1.146-1.132 2.016-1.132.28 0 .494.036.64.109v1.344zm1.36 6.4c0-.25.074-.46.222-.626.149-.166.371-.25.668-.25.297 0 .522.084.676.25.154.167.23.375.23.625 0 .24-.076.44-.23.602-.154.161-.379.242-.676.242-.297 0-.52-.08-.668-.242a.855.855 0 0 1-.222-.602zm5.75.757H76.78v-12h1.446v12zm7.53 0c-.083-.167-.15-.464-.202-.89-.672.697-1.474 1.046-2.407 1.046-.833 0-1.516-.235-2.05-.707-.534-.471-.801-1.069-.801-1.793 0-.88.335-1.564 1.004-2.05.67-.488 1.61-.731 2.824-.731h1.406v-.664c0-.505-.15-.908-.453-1.207-.302-.3-.747-.45-1.336-.45-.515 0-.948.13-1.297.391-.349.26-.523.576-.523.946h-1.453c0-.422.15-.83.449-1.223.3-.393.706-.704 1.219-.934a4.1 4.1 0 0 1 1.691-.343c.974 0 1.737.243 2.29.73.551.487.838 1.158.859 2.012v3.89c0 .776.099 1.394.296 1.852V119h-1.515zm-2.398-1.102a2.54 2.54 0 0 0 1.29-.351c.406-.235.7-.54.882-.914v-1.735h-1.133c-1.77 0-2.656.519-2.656 1.555 0 .453.151.807.453 1.063.302.255.69.382 1.164.382zm7.25-7.351l.047 1.062c.646-.812 1.49-1.218 2.531-1.218 1.787 0 2.688 1.007 2.704 3.023V119h-1.446v-5.594c-.005-.61-.144-1.06-.418-1.351-.273-.292-.699-.438-1.277-.438-.469 0-.88.125-1.234.375-.355.25-.63.578-.829.985V119h-1.445v-8.453h1.367zm7.118 4.156c0-1.318.304-2.366.914-3.144.609-.78 1.416-1.168 2.421-1.168 1.032 0 1.836.364 2.415 1.093l.07-.937h1.32v8.25c0 1.094-.324 1.956-.972 2.586-.649.63-1.52.945-2.614.945-.61 0-1.205-.13-1.789-.39-.583-.26-1.028-.618-1.336-1.07l.75-.868c.62.766 1.378 1.148 2.274 1.148.703 0 1.251-.197 1.644-.593.393-.396.59-.953.59-1.672v-.727c-.578.667-1.367 1-2.367 1-.99 0-1.79-.398-2.402-1.195-.612-.797-.918-1.883-.918-3.258zm1.453.164c0 .953.195 1.702.586 2.246.39.545.937.817 1.64.817.912 0 1.581-.414 2.008-1.243v-3.859c-.443-.807-1.107-1.21-1.992-1.21-.703 0-1.253.273-1.649.82-.395.546-.593 1.356-.593 2.43zm11.375 4.29c-1.146 0-2.078-.377-2.797-1.13-.719-.752-1.078-1.759-1.078-3.02v-.265c0-.838.16-1.587.48-2.246a3.748 3.748 0 0 1 1.344-1.547 3.378 3.378 0 0 1 1.871-.558c1.099 0 1.953.362 2.563 1.086.609.724.914 1.76.914 3.109v.602h-5.727c.02.833.264 1.506.73 2.019.467.513 1.06.77 1.778.77.51 0 .943-.105 1.297-.313.354-.208.664-.484.93-.828l.882.687c-.708 1.089-1.77 1.633-3.187 1.633zm-.18-7.579c-.583 0-1.073.212-1.469.637-.396.424-.64 1.02-.734 1.785h4.234v-.11c-.041-.734-.24-1.303-.594-1.706-.354-.404-.833-.606-1.437-.606zm17.633 3.5c-.063 1.26-.375 2.255-.938 2.984-.562.73-1.315 1.094-2.257 1.094-.974 0-1.6-.437-1.876-1.312-.28.442-.602.772-.964.988a2.159 2.159 0 0 1-1.121.324c-.74 0-1.3-.302-1.68-.906-.38-.604-.521-1.44-.422-2.508.078-.86.275-1.626.59-2.3.315-.675.721-1.205 1.219-1.59.497-.386 1.02-.579 1.566-.579.422 0 .8.056 1.133.168.333.112.708.332 1.125.66l-.406 4.329c-.1 1.203.234 1.804 1 1.804.588 0 1.065-.291 1.43-.875.364-.583.562-1.343.593-2.28.099-2.027-.277-3.571-1.129-4.634-.851-1.062-2.147-1.593-3.887-1.593-1.047 0-1.976.259-2.789.777-.812.518-1.453 1.267-1.922 2.246-.468.98-.731 2.11-.789 3.39-.062 1.292.094 2.413.47 3.364.374.95.946 1.677 1.714 2.18.768.502 1.697.754 2.785.754.469 0 .939-.058 1.41-.172.472-.115.864-.263 1.176-.446l.29.899c-.324.203-.752.37-1.286.5a6.817 6.817 0 0 1-1.621.195c-1.302 0-2.422-.293-3.36-.879-.937-.586-1.639-1.43-2.105-2.531-.466-1.102-.668-2.39-.605-3.863.062-1.433.382-2.72.96-3.864.579-1.143 1.362-2.026 2.352-2.648.99-.622 2.107-.934 3.352-.934 1.297 0 2.408.292 3.336.875.927.584 1.617 1.425 2.07 2.524.453 1.099.648 2.385.586 3.86zm-8.016.664c-.073.74-.004 1.307.207 1.703.211.396.546.594 1.004.594.313 0 .613-.133.902-.398.29-.266.528-.646.715-1.141l.008-.07.36-3.93a2.01 2.01 0 0 0-.938-.227c-.61 0-1.113.31-1.512.93-.398.62-.647 1.466-.746 2.54zm9.555-1.039c0-1.318.305-2.366.914-3.144.61-.78 1.417-1.168 2.422-1.168 1.031 0 1.836.364 2.414 1.093l.07-.937h1.32v8.25c0 1.094-.324 1.956-.972 2.586-.649.63-1.52.945-2.613.945-.61 0-1.206-.13-1.79-.39-.583-.26-1.028-.618-1.335-1.07l.75-.868c.62.766 1.377 1.148 2.273 1.148.703 0 1.251-.197 1.645-.593.393-.396.59-.953.59-1.672v-.727c-.579.667-1.368 1-2.368 1-.99 0-1.79-.398-2.402-1.195-.612-.797-.918-1.883-.918-3.258zm1.453.164c0 .953.195 1.702.586 2.246.39.545.937.817 1.64.817.912 0 1.581-.414 2.008-1.243v-3.859c-.442-.807-1.106-1.21-1.992-1.21-.703 0-1.252.273-1.648.82-.396.546-.594 1.356-.594 2.43zm9.227-4.32l.039.937c.62-.729 1.455-1.093 2.507-1.093 1.183 0 1.987.453 2.415 1.359a3.202 3.202 0 0 1 1.097-.984c.45-.25.983-.375 1.598-.375 1.854 0 2.797.981 2.828 2.945V119h-1.445v-5.578c0-.604-.138-1.056-.414-1.356-.276-.3-.74-.449-1.391-.449-.537 0-.982.16-1.336.48-.354.321-.56.752-.617 1.294V119h-1.453v-5.54c0-1.228-.602-1.843-1.805-1.843-.948 0-1.596.404-1.945 1.211V119h-1.446v-8.453h1.368zM158.109 119c-.083-.167-.15-.464-.203-.89-.672.697-1.474 1.046-2.406 1.046-.833 0-1.517-.235-2.05-.707-.535-.471-.802-1.069-.802-1.793 0-.88.335-1.564 1.004-2.05.67-.488 1.611-.731 2.825-.731h1.406v-.664c0-.505-.151-.908-.453-1.207-.302-.3-.748-.45-1.336-.45-.516 0-.948.13-1.297.391-.35.26-.524.576-.524.946h-1.453c0-.422.15-.83.45-1.223.299-.393.705-.704 1.218-.934a4.1 4.1 0 0 1 1.692-.343c.974 0 1.737.243 2.289.73s.838 1.158.86 2.012v3.89c0 .776.098 1.394.296 1.852V119h-1.516zm-2.398-1.102a2.54 2.54 0 0 0 1.289-.351c.406-.235.7-.54.883-.914v-1.735h-1.133c-1.77 0-2.656.519-2.656 1.555 0 .453.15.807.453 1.063.302.255.69.382 1.164.382zm7.453 1.102h-1.445v-8.453h1.445V119zm-1.562-10.695c0-.235.071-.433.214-.594.144-.162.356-.242.637-.242s.495.08.64.242a.85.85 0 0 1 .22.594c0 .234-.073.43-.22.586-.145.156-.359.234-.64.234s-.493-.078-.637-.234a.834.834 0 0 1-.214-.586zM167.047 119h-1.445v-12h1.445v12zm2.344-.758c0-.25.074-.458.222-.625.149-.166.371-.25.668-.25.297 0 .522.084.676.25.154.167.23.375.23.625 0 .24-.076.44-.23.602-.154.161-.379.242-.676.242-.297 0-.52-.08-.668-.242a.855.855 0 0 1-.222-.602zm7.57-.265c.516 0 .966-.157 1.351-.47.386-.312.6-.702.641-1.171h1.367a2.62 2.62 0 0 1-.5 1.383 3.293 3.293 0 0 1-1.23 1.047 3.55 3.55 0 0 1-1.63.39c-1.15 0-2.065-.384-2.745-1.152-.68-.768-1.02-1.82-1.02-3.152v-.243c0-.823.151-1.554.453-2.195a3.451 3.451 0 0 1 1.301-1.492c.565-.354 1.233-.531 2.004-.531.948 0 1.736.283 2.363.851.628.568.963 1.305 1.004 2.211h-1.367c-.042-.547-.249-.996-.621-1.348-.372-.351-.832-.527-1.379-.527-.734 0-1.303.264-1.707.793-.404.529-.605 1.293-.605 2.293v.273c0 .974.2 1.724.601 2.25.401.527.974.79 1.719.79zm4.601-3.282c0-.828.163-1.573.489-2.234.325-.662.778-1.172 1.36-1.531.58-.36 1.243-.54 1.987-.54 1.151 0 2.082.4 2.793 1.196.711.797 1.067 1.857 1.067 3.18v.101c0 .823-.158 1.561-.473 2.215a3.589 3.589 0 0 1-1.351 1.527c-.586.365-1.26.547-2.02.547-1.146 0-2.074-.398-2.785-1.195-.711-.797-1.066-1.852-1.066-3.164v-.102zm1.454.172c0 .938.217 1.69.652 2.258.435.568 1.017.852 1.746.852.734 0 1.318-.288 1.75-.864.432-.575.649-1.381.649-2.418 0-.927-.22-1.678-.66-2.254-.44-.575-1.025-.863-1.755-.863-.713 0-1.289.284-1.726.852-.438.567-.656 1.38-.656 2.437zm9.414-4.32l.039.937c.62-.729 1.455-1.093 2.508-1.093 1.182 0 1.987.453 2.414 1.359a3.202 3.202 0 0 1 1.097-.984c.45-.25.983-.375 1.598-.375 1.854 0 2.797.981 2.828 2.945V119h-1.445v-5.578c0-.604-.138-1.056-.414-1.356-.276-.3-.74-.449-1.39-.449-.537 0-.983.16-1.337.48-.354.321-.56.752-.617 1.294V119h-1.453v-5.54c0-1.228-.602-1.843-1.805-1.843-.948 0-1.596.404-1.945 1.211V119h-1.446v-8.453h1.368z" fill-opacity=".87" fill="#000"/><path d="M40.477 161.842c-.123 1.053-.512 1.865-1.166 2.437-.654.572-1.523.858-2.608.858-1.176 0-2.118-.422-2.827-1.265-.708-.843-1.063-1.971-1.063-3.384v-.957c0-.925.166-1.738.496-2.44.33-.702.799-1.24 1.405-1.617.606-.376 1.308-.564 2.105-.564 1.058 0 1.905.295 2.543.885.638.59 1.01 1.407 1.115 2.451h-1.32c-.114-.793-.36-1.367-.741-1.723-.381-.355-.913-.533-1.597-.533-.838 0-1.496.31-1.972.93-.476.62-.714 1.502-.714 2.645v.964c0 1.08.225 1.94.677 2.577.45.638 1.082.957 1.893.957.73 0 1.289-.165 1.678-.495.39-.33.649-.906.776-1.726h1.32zm9.112 0c-.123 1.053-.512 1.865-1.166 2.437-.654.572-1.523.858-2.608.858-1.175 0-2.118-.422-2.826-1.265-.709-.843-1.063-1.971-1.063-3.384v-.957c0-.925.165-1.738.495-2.44.33-.702.799-1.24 1.405-1.617.606-.376 1.308-.564 2.106-.564 1.057 0 1.905.295 2.543.885.638.59 1.009 1.407 1.114 2.451h-1.32c-.113-.793-.36-1.367-.741-1.723-.38-.355-.913-.533-1.596-.533-.839 0-1.496.31-1.973.93-.476.62-.714 1.502-.714 2.645v.964c0 1.08.226 1.94.677 2.577.451.638 1.082.957 1.893.957.73 0 1.289-.165 1.679-.495.39-.33.648-.906.776-1.726h1.319zm1.552 2.495c0-.219.065-.401.194-.547.13-.146.325-.219.585-.219.26 0 .457.073.591.219a.776.776 0 0 1 .202.547.73.73 0 0 1-.202.526c-.134.142-.331.212-.591.212-.26 0-.455-.07-.585-.212a.748.748 0 0 1-.194-.526zm.006-6.036c0-.219.065-.401.195-.547.13-.146.325-.219.585-.219.26 0 .457.073.591.219a.776.776 0 0 1 .202.547.73.73 0 0 1-.202.526c-.134.141-.331.212-.591.212-.26 0-.455-.07-.585-.212a.748.748 0 0 1-.195-.526z" fill-opacity=".87" fill="#666"/><path d="M49.403 213.168l.02 8.866h1.08v-6.186c.103.191.07.13.213.43.601 1.156.998 1.908 1.053 2.017l.834.02c.075-.246.875-1.64 1.38-2.604l.014 6.323h1.073l-.007-8.86H53.99c-.355.992-1.244 2.578-1.811 3.638-.13-.26-.308-.609-.65-1.224-.471-.834-.738-1.395-1.066-2.413l-1.06-.007zm9.14 10.356c-.547 0-.848-.314-.848-1.524H56.63c0 1.846.745 2.57 1.941 2.57 1.019 0 1.552-.676 1.914-1.6a32.275 32.275 0 0 0 2.037-6.794c.062-.349.096-.738.096-1.149h-1.08c-.055 1.552-.506 3.528-1.012 5.011-.772-2.222-1.88-4.792-3.021-4.963a6.488 6.488 0 0 0-.759-.054v1.045c.246 0 .526.007.752.212.943.848 1.757 3.015 2.4 5.257-.26.725-.63 1.99-1.354 1.99zm14.027-5.414c.718.376 2.12.643 2.646 1.019.376.28.588.485.588.916 0 .752-.814 1.114-1.655 1.114-1.06 0-1.53-.492-1.53-1.408l-1.074-.007c0 1.47.875 2.393 2.625 2.393.39 0 .8-.048 1.183-.137.731-.191 1.51-.813 1.51-1.92 0-1.942-1.75-2.079-3.602-2.851-.274-.124-.41-.28-.41-.609 0-.444.608-.642 1.333-.642.587 0 1.367.287 1.73.71l.772-.758c-.561-.69-1.764-.964-2.598-.964-1.196 0-2.304.499-2.31 1.681 0 .76.348 1.224.792 1.463zm7.554-5.721v1.538h1.606v-1.538h-1.606zm.711 2.686c-.711 0-1.463.11-2.229.287l.199.971a8.923 8.923 0 0 1 1.763-.191v4.45c0 .403.055.95.636 1.271.3.164.82.26 1.401.26.848 0 1.826-.205 2.414-.69l-.465-.78c-.472.356-1.32.5-1.955.5-.63 0-.93-.028-.964-.589 0 0-.007-3.623-.007-5.489h-.793zm6.228 3.035c.717.376 2.119.643 2.645 1.019.376.28.588.485.588.916 0 .752-.814 1.114-1.654 1.114-1.06 0-1.532-.492-1.532-1.408l-1.073-.007c0 1.47.875 2.393 2.625 2.393.39 0 .8-.048 1.183-.137.731-.191 1.51-.813 1.51-1.92 0-1.942-1.75-2.079-3.602-2.851-.274-.124-.41-.28-.41-.609 0-.444.608-.642 1.333-.642.588 0 1.367.287 1.73.71l.772-.758c-.56-.69-1.764-.964-2.598-.964-1.196 0-2.304.499-2.31 1.681 0 .76.348 1.224.793 1.463zm7.868.903c.027-.684.034-1.559.095-2.953.315 0 .5-.02.814-.02h2.167v-1.006h-.123l-2.044.014h-.834c.007-.465.014-1.108.014-1.559l-1.08-.007c0 .479-.007 1.122-.007 1.6h-.103c-.226 0-.533.02-.697.082l.137.998c.177-.048.369-.075.56-.075h.096c-.041 1.32-.055 2.215-.082 2.926v.294c0 .588.027 1.1.266 1.592.486 1.012 1.32 1.142 2.578 1.142.58 0 1.073-.062 1.47-.294.765-.444.922-1.066.99-1.258l-.86-.383c-.049.13-.172.506-.561.711-.171.096-.609.164-1.053.164-.089 0-.615-.006-.738-.02-.76-.075-1.005-.766-1.005-1.675v-.273zm6.405-.978c.882-.007 2.639-.068 3.61-.178-.11-1.1-.807-1.797-1.737-1.797-1.162 0-1.866.922-1.873 1.975zm1.866-3.014c2.577 0 2.83 2.597 2.83 3.54 0 .137 0 .24-.007.294-1.914.13-3.472.212-4.69.226 0 1.046.589 1.941 1.983 1.941a2.19 2.19 0 0 0 1.819-.909l.84.745c-.28.308-1.059 1.21-2.686 1.21-2.037 0-3.035-1.456-3.035-3.595 0-1.955 1.012-3.452 2.946-3.452zm6.296.998c-.253-.575-.663-.834-1.08-1.17l-.711.964c.424.376.697.575.697.964v5.216l1.067.007v-4.143c.683-1.524 1.551-1.77 2.242-1.77.629 0 .547.417.574.97h1.067v-.04c0-1.245-.308-2.024-1.45-2.024-1.06 0-1.77.246-2.406 1.026zm6.549 2.091c.718.376 2.119.643 2.645 1.019.376.28.588.485.588.916 0 .752-.813 1.114-1.654 1.114-1.06 0-1.531-.492-1.531-1.408l-1.074-.007c0 1.47.875 2.393 2.625 2.393.39 0 .8-.048 1.183-.137.732-.191 1.51-.813 1.51-1.92 0-1.942-1.75-2.079-3.602-2.851-.273-.124-.41-.28-.41-.609 0-.444.609-.642 1.333-.642.588 0 1.367.287 1.73.71l.772-.758c-.56-.69-1.764-.964-2.598-.964-1.196 0-2.303.499-2.31 1.681 0 .76.349 1.224.793 1.463zm16.666.02c.69 0 1.066-.621 1.066-1.223 0-.123-.013-.239-.048-.342a.731.731 0 0 0-.717-.526c-.164 0-.356.041-.581.15a12.79 12.79 0 0 0-1.723.971v.615c.574.09 1.019.192 1.353.267.253.055.465.089.65.089zm-2.003-2.146c.492-.335 1.518-.93 2.242-.93.93 0 1.77.568 1.866 1.382.02.157.035.362.035.56 0 .226-.021.458-.055.636-.041.232-.397.93-1.1 1.264.67.5.656 1.32 1.018 1.921.164.267.342.41.567.575l-.574.738c-.84-.41-1.08-1.217-1.265-1.757-.341-.991-1.88-1.483-2.727-1.58 0 0-.014 1.3-.014 2.325 0 .342.007.656.007.882h-1.073v-8.395c0-.417-.069-.779-.158-1.06l1.046-.3c.062.157.185.465.185.916v2.823zm7.383-3.595v1.538h1.606v-1.538h-1.606zm.71 2.686c-.71 0-1.462.11-2.228.287l.198.971a8.923 8.923 0 0 1 1.764-.191v4.45c0 .403.055.95.636 1.271.3.164.82.26 1.401.26.848 0 1.825-.205 2.413-.69l-.465-.78c-.471.356-1.319.5-1.955.5-.629 0-.93-.028-.963-.589 0 0-.007-3.623-.007-5.489h-.793zm5.975 3.657c0 1.395.363 2.263 1.525 2.263.936 0 1.264-.314 1.75-1.094v-2.987c-.356-.349-1.1-.848-1.723-.848-1.114 0-1.552.732-1.552 2.666zm4.348 1.443v.178c0 .567.055 1.155.123 1.6l-1.121.129c-.034-.219-.068-.37-.075-.656-.43.383-.985.622-1.75.622-1.88 0-2.605-1.354-2.605-3.186 0-2.297.52-3.855 2.728-3.855.683 0 1.292.294 1.62.506v-1.415c0-.643-.055-1.224-.103-1.689l1.094-.055c.062.5.096 1.149.096 1.771l-.007 6.05zm3.151-2.065c.718.376 2.12.643 2.646 1.019.376.28.588.485.588.916 0 .752-.814 1.114-1.655 1.114-1.06 0-1.53-.492-1.53-1.408l-1.074-.007c0 1.47.875 2.393 2.625 2.393.39 0 .8-.048 1.183-.137.731-.191 1.51-.813 1.51-1.92 0-1.942-1.75-2.079-3.602-2.851-.274-.124-.41-.28-.41-.609 0-.444.608-.642 1.333-.642.588 0 1.367.287 1.73.71l.772-.758c-.561-.69-1.764-.964-2.598-.964-1.196 0-2.304.499-2.31 1.681 0 .76.348 1.224.792 1.463zm14.24.622c0 1.395.362 2.263 1.524 2.263.937 0 1.265-.314 1.75-1.094v-2.987c-.355-.349-1.1-.848-1.723-.848-1.114 0-1.551.732-1.551 2.666zm4.347 1.443v.178c0 .567.055 1.155.123 1.6l-1.12.129c-.035-.219-.07-.37-.076-.656-.43.383-.984.622-1.75.622-1.88 0-2.604-1.354-2.604-3.186 0-2.297.52-3.855 2.727-3.855.684 0 1.292.294 1.62.506v-1.415c0-.643-.055-1.224-.102-1.689l1.093-.055c.062.5.096 1.149.096 1.771l-.007 6.05zm5.79.355c.445-.417.609-1.141.609-2.153v-.123c-.014-1.258-.451-2.256-1.661-2.256-1.422 0-1.846 1.128-1.846 2.796 0 1.333.595 2.14 1.736 2.14.52-.007.82-.117 1.162-.404zm-1.175 1.463c-1.86-.007-2.803-1.25-2.803-3.165 0-1.996.697-3.883 2.693-3.883 1.347 0 2.099.472 2.577 1.374.28.54.404 1.313.404 1.97 0 1.947-.657 3.704-2.858 3.704h-.013zm5.796-6.33a3.656 3.656 0 0 0-.205-.772l-1.093.253c.164.642.218.82.218 2.037v4.826l1.08-.007v-5.195c.998-.479 1.655-.766 2.092-.766.451 0 1.114.226 1.114.732v3.834c0 .882.63 1.23 1.23 1.525l.575-.766c-.383-.205-.724-.355-.724-.806v-4c0-1.018-1.224-1.544-2.044-1.544-.752 0-1.381.198-2.243.65zm7.855-3.425l.41 1.388c.397.096.554.465.554.943 0 .725-.322 1.17-1.121 1.6l.567.827c1.114-.642 1.743-1.497 1.743-2.734a5.24 5.24 0 0 0-.116-1.06l-.376-1.422-1.661.458zm7.246 6.775c.027-.684.034-1.559.096-2.953.314 0 .499-.02.813-.02h2.167v-1.006h-.123l-2.044.014h-.834c.007-.465.014-1.108.014-1.559l-1.08-.007c0 .479-.007 1.122-.007 1.6h-.103c-.225 0-.533.02-.697.082l.137.998c.178-.048.369-.075.56-.075h.096c-.04 1.32-.055 2.215-.082 2.926v.294c0 .588.027 1.1.267 1.592.485 1.012 1.319 1.142 2.577 1.142.58 0 1.073-.062 1.47-.294.765-.444.922-1.066.99-1.258l-.86-.383c-.048.13-.171.506-.561.711-.171.096-.609.164-1.053.164-.089 0-.615-.006-.738-.02-.759-.075-1.005-.766-1.005-1.675v-.273zM50.613 236.035c.882-.007 2.639-.068 3.61-.178-.11-1.1-.807-1.797-1.737-1.797-1.162 0-1.866.922-1.873 1.975zm1.866-3.014c2.578 0 2.83 2.597 2.83 3.54 0 .137 0 .24-.006.294-1.914.13-3.473.212-4.69.226 0 1.046.588 1.941 1.983 1.941a2.19 2.19 0 0 0 1.818-.909l.84.745c-.28.308-1.059 1.21-2.686 1.21-2.037 0-3.035-1.456-3.035-3.595 0-1.955 1.012-3.452 2.946-3.452zm4.813-.185l-.882.656c.178.171.492.63.547.773.424 1.052 1.798 4.798 1.798 5.756.724 0 1.299-.021 1.688-.506.992-1.23 2.017-3.452 2.03-5.127 0-.397-.013-1.217-.034-1.326l-1.039.027c.014.123.014.383.014.663 0 .226 0 .472-.007.663-.04 1.415-.888 3.398-1.736 4.375-.075-.71-1.265-3.732-1.572-4.594-.178-.512-.328-.847-.807-1.36zm7.813 3.2c.882-.008 2.64-.07 3.61-.179-.11-1.1-.807-1.797-1.736-1.797-1.163 0-1.867.922-1.874 1.975zm1.867-3.015c2.577 0 2.83 2.597 2.83 3.54 0 .137 0 .24-.007.294-1.914.13-3.473.212-4.69.226 0 1.046.588 1.941 1.983 1.941a2.19 2.19 0 0 0 1.818-.909l.841.745c-.28.308-1.06 1.21-2.686 1.21-2.038 0-3.036-1.456-3.036-3.595 0-1.955 1.012-3.452 2.947-3.452zm5.612.642a3.656 3.656 0 0 0-.205-.772l-1.094.253c.164.642.219.82.219 2.037v4.826l1.08-.007v-5.195c.998-.479 1.654-.766 2.092-.766.451 0 1.114.226 1.114.732v3.834c0 .882.629 1.23 1.23 1.525l.575-.766c-.383-.205-.725-.355-.725-.806v-4c0-1.018-1.224-1.544-2.044-1.544-.752 0-1.38.198-2.242.65zm16.652 2.468c.69 0 1.067-.622 1.067-1.224 0-.123-.014-.239-.048-.342a.731.731 0 0 0-.718-.526c-.164 0-.355.041-.58.15a12.79 12.79 0 0 0-1.724.971v.615c.575.09 1.019.192 1.354.267.253.055.465.089.65.089zm-2.003-2.147c.493-.335 1.518-.93 2.243-.93.93 0 1.77.568 1.866 1.382.02.157.034.362.034.56 0 .226-.02.458-.055.636-.04.232-.396.93-1.1 1.264.67.5.656 1.32 1.018 1.921.164.267.342.41.568.575l-.575.738c-.84-.41-1.08-1.217-1.264-1.757-.342-.991-1.88-1.483-2.728-1.58 0 0-.013 1.3-.013 2.325 0 .342.006.656.006.882H86.16v-8.395a3.54 3.54 0 0 0-.157-1.06l1.046-.3c.061.157.184.465.184.916v2.823zm7.09-.32a3.656 3.656 0 0 0-.206-.773l-1.094.253c.165.642.22.82.22 2.037v4.826l1.08-.007v-5.195c.997-.479 1.654-.766 2.091-.766.451 0 1.114.226 1.114.732v3.834c0 .882.63 1.23 1.23 1.525l.575-.766c-.383-.205-.725-.355-.725-.806v-4c0-1.018-1.223-1.544-2.044-1.544-.751 0-1.38.198-2.242.65zm9.87 4.866c.445-.417.609-1.141.609-2.153v-.123c-.014-1.258-.451-2.256-1.661-2.256-1.422 0-1.846 1.128-1.846 2.796 0 1.333.595 2.14 1.736 2.14.52-.007.82-.117 1.162-.404zm-1.175 1.463c-1.86-.007-2.803-1.25-2.803-3.165 0-1.996.697-3.883 2.693-3.883 1.347 0 2.099.472 2.577 1.374.28.54.404 1.313.404 1.97 0 1.947-.657 3.704-2.858 3.704h-.013zm3.992-6.665c.143.253.417.868.526 1.272.37 1.415.438 4.628.472 5.338.116.048.225.076.41.083h.082c1.313-.021 1.887-.903 2.14-1.45.095.424.273.992.39 1.429h.368c1.45 0 2.331-1.504 2.331-4.854 0-.546-.02-1.797-.054-2.119h-1.067c.082.479.164 1.47.164 2.318 0 2.55-.505 3.65-1.12 3.65-.213-.697-.493-1.47-.493-2.55v-2.078h-.957v1.798c0 1.77-.424 2.816-1.237 2.816-.048-1.216-.028-2.761-.342-4.416-.157-.82-.37-1.353-.602-1.756l-1.011.52zm14.492 0c.144.253.417.868.526 1.272.37 1.415.438 4.628.472 5.338.116.048.226.076.41.083h.082c1.313-.021 1.887-.903 2.14-1.45.096.424.273.992.39 1.429h.369c1.449 0 2.33-1.504 2.33-4.854 0-.546-.02-1.797-.054-2.119h-1.066c.082.479.164 1.47.164 2.318 0 2.55-.506 3.65-1.121 3.65-.212-.697-.493-1.47-.493-2.55v-2.078h-.957v1.798c0 1.77-.423 2.816-1.237 2.816-.048-1.216-.027-2.761-.342-4.416-.157-.82-.369-1.353-.601-1.756l-1.012.52zm12.257 2.734v2.516c0 .868.506 1.23 1.053 1.538l.601-.8c-.41-.266-.588-.464-.588-.84 0-.766.007-1.292.007-2.413v-.452c0-.752-.034-1.285-.526-1.866-.54-.656-1.292-.718-2.12-.718-.697 0-1.189.267-1.633.547v-3.158h-1.087s.007 4.744.007 8.19c0 .526-.02.847-.076 1.34l1.08.054c.035-.314.069-.813.069-1.354v-3.643c.212-.424.902-.93 1.593-.93 1.374 0 1.62.438 1.62 1.99zm3.794 1.812c0 .718.383 1.128 1.018 1.128 1.436 0 2.154-1.08 2.331-1.36v-.65c-.39-.24-.895-.437-1.606-.437-.93.007-1.743.512-1.743 1.319zm4.423-.048c0 .24 0 .875.088.991.09.123.342.28.54.438l-.567.813c-.355-.273-.766-.444-.889-1.134-.533.512-1.23 1.107-2.577 1.107-1.169 0-2.085-.964-2.085-2.099 0-.52.205-1.128.609-1.545.65-.663 1.34-.827 2.146-.827.862 0 1.292.123 1.661.349 0-1.292-.471-1.914-1.633-1.914-.944 0-1.374.205-1.921 1.183l-.889-.561c.656-1.244 1.572-1.654 2.796-1.654 1.654 0 2.72 1.06 2.72 2.597v2.256zm3.677-.813c.028-.684.035-1.559.096-2.953.314 0 .499-.02.814-.02h2.166v-1.006h-.123l-2.043.014h-.834c.006-.465.013-1.108.013-1.559l-1.08-.007c0 .479-.007 1.122-.007 1.6h-.102c-.226 0-.533.02-.698.082l.137.998c.178-.048.37-.075.56-.075h.096c-.04 1.32-.054 2.215-.082 2.926v.294c0 .588.028 1.1.267 1.592.485 1.012 1.32 1.142 2.577 1.142.581 0 1.073-.062 1.47-.294.766-.444.923-1.066.991-1.258l-.861-.383c-.048.13-.171.506-.56.711-.172.096-.61.164-1.054.164-.088 0-.615-.006-.738-.02-.759-.075-1.005-.766-1.005-1.675v-.273zm14.493 0c.027-.684.034-1.559.095-2.953.315 0 .5-.02.814-.02h2.167v-1.006h-.123l-2.044.014h-.834c.007-.465.013-1.108.013-1.559l-1.08-.007c0 .479-.007 1.122-.007 1.6h-.102c-.226 0-.533.02-.697.082l.136.998c.178-.048.37-.075.56-.075h.097c-.041 1.32-.055 2.215-.082 2.926v.294c0 .588.027 1.1.266 1.592.486 1.012 1.32 1.142 2.577 1.142.581 0 1.074-.062 1.47-.294.766-.444.923-1.066.991-1.258l-.861-.383c-.048.13-.17.506-.56.711-.171.096-.609.164-1.053.164-.09 0-.616-.006-.739-.02-.758-.075-1.004-.766-1.004-1.675v-.273zm9.843-.95v2.515c0 .868.506 1.23 1.053 1.538l.602-.8c-.41-.266-.588-.464-.588-.84 0-.766.006-1.292.006-2.413v-.452c0-.752-.034-1.285-.526-1.866-.54-.656-1.292-.718-2.119-.718-.697 0-1.19.267-1.634.547v-3.158h-1.087s.007 4.744.007 8.19c0 .526-.02.847-.075 1.34l1.08.054c.034-.314.068-.813.068-1.354v-3.643c.212-.424.903-.93 1.593-.93 1.374 0 1.62.438 1.62 1.99zm4.334-5.674v1.538h1.607v-1.538h-1.607zm.711 2.686c-.71 0-1.463.11-2.228.287l.198.971a8.923 8.923 0 0 1 1.764-.191v4.45c0 .403.054.95.635 1.271.301.164.82.26 1.402.26.847 0 1.825-.205 2.413-.69l-.465-.78c-.472.356-1.32.5-1.955.5-.63 0-.93-.028-.964-.589 0 0-.007-3.623-.007-5.489h-.793zm6.228 3.035c.717.376 2.119.643 2.645 1.019.376.28.588.485.588.916 0 .752-.813 1.114-1.654 1.114-1.06 0-1.531-.492-1.531-1.408l-1.074-.007c0 1.47.875 2.393 2.625 2.393.39 0 .8-.048 1.183-.137.731-.191 1.51-.813 1.51-1.92 0-1.942-1.75-2.079-3.602-2.851-.273-.124-.41-.28-.41-.609 0-.444.608-.642 1.333-.642.588 0 1.367.287 1.73.71l.772-.758c-.56-.69-1.764-.964-2.598-.964-1.196 0-2.303.499-2.31 1.681 0 .76.348 1.224.793 1.463zm14.8-5.721v1.538h1.606v-1.538h-1.606zm.71 2.686c-.71 0-1.462.11-2.228.287l.198.971a8.923 8.923 0 0 1 1.764-.191v4.45c0 .403.055.95.636 1.271.3.164.82.26 1.401.26.848 0 1.825-.205 2.413-.69l-.465-.78c-.471.356-1.32.5-1.955.5-.629 0-.93-.028-.964-.589 0 0-.007-3.623-.007-5.489h-.793zM203 236.11c.718.376 2.12.643 2.646 1.019.375.28.587.485.587.916 0 .752-.813 1.114-1.654 1.114-1.06 0-1.531-.492-1.531-1.408l-1.073-.007c0 1.47.875 2.393 2.625 2.393.39 0 .8-.048 1.182-.137.732-.191 1.511-.813 1.511-1.92 0-1.942-1.75-2.079-3.603-2.851-.273-.124-.41-.28-.41-.609 0-.444.609-.642 1.333-.642.588 0 1.367.287 1.73.71l.772-.758c-.56-.69-1.763-.964-2.597-.964-1.197 0-2.304.499-2.311 1.681 0 .76.349 1.224.793 1.463zm8.128 2.051V240h1.716v-1.839h-1.716zm7.246 0V240h1.716v-1.839h-1.716z" fill="#770BFF"/><path d="M34.453 182.547l.04.937c.619-.729 1.455-1.093 2.507-1.093 1.182 0 1.987.453 2.414 1.359a3.202 3.202 0 0 1 1.098-.984c.45-.25.983-.375 1.597-.375 1.855 0 2.797.981 2.828 2.945V191h-1.445v-5.578c0-.604-.138-1.056-.414-1.356-.276-.3-.74-.449-1.39-.449-.537 0-.982.16-1.336.48-.355.321-.56.752-.618 1.294V191h-1.453v-5.54c0-1.228-.601-1.843-1.804-1.843-.948 0-1.597.404-1.946 1.211V191h-1.445v-8.453h1.367zM52.336 191c-.083-.167-.151-.464-.203-.89-.672.697-1.474 1.046-2.406 1.046-.834 0-1.517-.235-2.051-.707-.534-.471-.801-1.069-.801-1.793 0-.88.335-1.564 1.004-2.05.67-.488 1.61-.731 2.824-.731h1.406v-.664c0-.505-.15-.908-.453-1.207-.302-.3-.747-.45-1.336-.45-.515 0-.948.13-1.297.391-.349.26-.523.576-.523.946h-1.453c0-.422.15-.83.45-1.223.299-.393.705-.704 1.218-.934a4.1 4.1 0 0 1 1.691-.343c.974 0 1.737.243 2.29.73.551.487.838 1.158.859 2.012v3.89c0 .776.099 1.394.297 1.852V191h-1.516zm-2.398-1.102a2.54 2.54 0 0 0 1.289-.351c.406-.235.7-.54.882-.914v-1.735h-1.132c-1.771 0-2.657.519-2.657 1.555 0 .453.151.807.453 1.063.303.255.69.382 1.164.382zm9.968-6.054a4.331 4.331 0 0 0-.71-.055c-.949 0-1.592.404-1.93 1.211v6H55.82v-8.453h1.407l.023.976c.474-.755 1.146-1.132 2.016-1.132.28 0 .494.036.64.109v1.344zm.985 2.86c0-1.319.304-2.367.914-3.145.61-.78 1.416-1.168 2.422-1.168 1.03 0 1.835.364 2.414 1.093l.07-.937h1.32v8.25c0 1.094-.324 1.956-.972 2.586-.649.63-1.52.945-2.614.945-.61 0-1.205-.13-1.789-.39-.583-.26-1.028-.618-1.336-1.07l.75-.868c.62.766 1.378 1.148 2.274 1.148.703 0 1.251-.197 1.644-.593.394-.396.59-.953.59-1.672v-.727c-.578.667-1.367 1-2.367 1-.99 0-1.79-.398-2.402-1.195-.612-.797-.918-1.883-.918-3.258zm1.453.163c0 .953.195 1.702.586 2.246.39.545.937.817 1.64.817.912 0 1.581-.414 2.008-1.243v-3.859c-.443-.807-1.107-1.21-1.992-1.21-.703 0-1.253.273-1.648.82-.396.546-.594 1.356-.594 2.43zM75.43 191c-.084-.167-.151-.464-.203-.89-.672.697-1.474 1.046-2.407 1.046-.833 0-1.517-.235-2.05-.707-.534-.471-.801-1.069-.801-1.793 0-.88.334-1.564 1.004-2.05.669-.488 1.61-.731 2.824-.731h1.406v-.664c0-.505-.15-.908-.453-1.207-.302-.3-.747-.45-1.336-.45-.516 0-.948.13-1.297.391-.349.26-.523.576-.523.946H70.14c0-.422.15-.83.449-1.223.3-.393.706-.704 1.219-.934a4.1 4.1 0 0 1 1.691-.343c.974 0 1.737.243 2.29.73.551.487.838 1.158.858 2.012v3.89c0 .776.1 1.394.297 1.852V191H75.43zm-2.399-1.102a2.54 2.54 0 0 0 1.29-.351c.406-.235.7-.54.882-.914v-1.735H74.07c-1.77 0-2.656.519-2.656 1.555 0 .453.151.807.453 1.063.302.255.69.382 1.164.382zM83 183.844a4.331 4.331 0 0 0-.71-.055c-.949 0-1.592.404-1.93 1.211v6h-1.446v-8.453h1.406l.024.976c.474-.755 1.146-1.132 2.015-1.132.282 0 .495.036.641.109v1.344zm4.836 7.312c-1.146 0-2.078-.376-2.797-1.129-.719-.752-1.078-1.759-1.078-3.02v-.265c0-.838.16-1.587.48-2.246a3.748 3.748 0 0 1 1.344-1.547 3.378 3.378 0 0 1 1.871-.558c1.1 0 1.953.362 2.563 1.086.61.724.914 1.76.914 3.109v.601h-5.727c.021.834.265 1.507.73 2.02.467.513 1.06.77 1.778.77.51 0 .943-.105 1.297-.313.354-.208.664-.484.93-.828l.882.687c-.708 1.089-1.77 1.633-3.187 1.633zm-.18-7.578c-.583 0-1.073.212-1.469.637-.395.424-.64 1.02-.734 1.785h4.234v-.11c-.041-.734-.24-1.303-.593-1.706-.354-.404-.834-.606-1.438-.606zm7.11-3.078v2.047h1.578v1.117h-1.578v5.242c0 .339.07.593.21.762.141.17.38.254.72.254a3.5 3.5 0 0 0 .687-.094V191a4.19 4.19 0 0 1-1.11.156c-.645 0-1.132-.195-1.46-.586-.329-.39-.493-.945-.493-1.664v-5.242h-1.539v-1.117h1.54V180.5h1.445zm15.75 6.578c-.063 1.26-.375 2.255-.938 2.984-.562.73-1.315 1.094-2.258 1.094-.974 0-1.599-.437-1.875-1.312-.28.442-.603.772-.965.988a2.159 2.159 0 0 1-1.12.324c-.74 0-1.3-.302-1.68-.906-.38-.604-.521-1.44-.422-2.508.078-.86.275-1.626.59-2.3.315-.675.721-1.205 1.218-1.59.498-.386 1.02-.579 1.567-.579.422 0 .8.056 1.133.168.333.112.708.332 1.125.66l-.407 4.329c-.099 1.203.235 1.804 1 1.804.589 0 1.065-.291 1.43-.875.365-.583.563-1.343.594-2.28.099-2.027-.278-3.571-1.13-4.634-.85-1.062-2.146-1.593-3.886-1.593-1.047 0-1.976.259-2.789.777-.812.518-1.453 1.267-1.922 2.246-.469.98-.732 2.11-.789 3.39-.062 1.292.094 2.413.469 3.364.375.95.947 1.677 1.715 2.18.768.502 1.696.754 2.785.754.469 0 .939-.058 1.41-.172.471-.115.863-.263 1.176-.446l.289.899c-.323.203-.751.37-1.285.5a6.817 6.817 0 0 1-1.621.195c-1.302 0-2.422-.293-3.36-.879-.937-.586-1.639-1.43-2.105-2.531-.466-1.102-.668-2.39-.606-3.863.063-1.433.383-2.72.961-3.864.578-1.143 1.362-2.026 2.352-2.648.99-.622 2.107-.934 3.351-.934 1.297 0 2.41.292 3.336.875.927.584 1.618 1.425 2.07 2.524.454 1.099.65 2.385.587 3.86zm-8.016.664c-.073.74-.004 1.307.207 1.703.211.396.546.594 1.004.594.312 0 .613-.133.902-.398.29-.266.528-.646.715-1.141l.008-.07.36-3.93a2.01 2.01 0 0 0-.938-.227c-.61 0-1.113.31-1.512.93-.398.62-.647 1.466-.746 2.54zm11.344-4.172c.64-.786 1.474-1.18 2.5-1.18 1.786 0 2.687 1.008 2.703 3.024V191h-1.445v-5.594c-.006-.61-.145-1.06-.418-1.351-.274-.292-.7-.438-1.278-.438-.469 0-.88.125-1.234.375s-.63.578-.828.985V191h-1.446v-12h1.446v4.57zm6.984 3.125c0-.828.163-1.573.488-2.234.326-.662.779-1.172 1.36-1.531.58-.36 1.243-.54 1.988-.54 1.151 0 2.082.4 2.793 1.196.711.797 1.066 1.857 1.066 3.18v.101c0 .823-.157 1.561-.472 2.215a3.589 3.589 0 0 1-1.352 1.527c-.586.365-1.259.547-2.02.547-1.145 0-2.074-.398-2.784-1.195-.711-.797-1.067-1.852-1.067-3.164v-.102zm1.453.172c0 .938.218 1.69.653 2.258.434.568 1.017.852 1.746.852.734 0 1.317-.288 1.75-.864.432-.575.648-1.381.648-2.418 0-.927-.22-1.678-.66-2.254-.44-.575-1.025-.863-1.754-.863-.713 0-1.289.284-1.727.852-.437.567-.656 1.38-.656 2.437zm9.625 4.133h-1.445v-12h1.445v12zm3.883 0h-1.445v-12h1.445v12zm1.93-4.305c0-.828.163-1.573.488-2.234.326-.662.779-1.172 1.36-1.531.58-.36 1.243-.54 1.988-.54 1.15 0 2.082.4 2.793 1.196.71.797 1.066 1.857 1.066 3.18v.101c0 .823-.157 1.561-.473 2.215a3.589 3.589 0 0 1-1.351 1.527c-.586.365-1.26.547-2.02.547-1.146 0-2.074-.398-2.785-1.195-.71-.797-1.066-1.852-1.066-3.164v-.102zm1.453.172c0 .938.217 1.69.652 2.258.435.568 1.017.852 1.746.852.735 0 1.318-.288 1.75-.864.433-.575.649-1.381.649-2.418 0-.927-.22-1.678-.66-2.254-.44-.575-1.025-.863-1.754-.863-.714 0-1.29.284-1.727.852-.437.567-.656 1.38-.656 2.437zm8.086 3.375c0-.25.074-.458.222-.625.149-.166.372-.25.668-.25.297 0 .523.084.676.25.154.167.23.375.23.625 0 .24-.076.44-.23.602-.153.161-.379.242-.676.242-.296 0-.52-.08-.668-.242a.855.855 0 0 1-.222-.602zm7.57-.265c.516 0 .966-.157 1.352-.47.385-.312.599-.702.64-1.171h1.368a2.62 2.62 0 0 1-.5 1.383 3.293 3.293 0 0 1-1.231 1.047 3.55 3.55 0 0 1-1.629.39c-1.15 0-2.066-.384-2.746-1.152-.68-.768-1.02-1.82-1.02-3.152v-.243c0-.823.152-1.554.454-2.195a3.451 3.451 0 0 1 1.3-1.492c.566-.354 1.233-.531 2.004-.531.948 0 1.736.283 2.364.851.627.568.962 1.305 1.004 2.211h-1.368c-.041-.547-.248-.996-.62-1.348-.373-.351-.833-.527-1.38-.527-.734 0-1.303.264-1.707.793-.403.529-.605 1.293-.605 2.293v.274c0 .973.2 1.723.601 2.25.401.526.974.789 1.72.789zm4.602-3.282c0-.828.162-1.573.488-2.234.325-.662.779-1.172 1.36-1.531.58-.36 1.243-.54 1.988-.54 1.15 0 2.082.4 2.793 1.196.71.797 1.066 1.857 1.066 3.18v.101c0 .823-.158 1.561-.473 2.215a3.589 3.589 0 0 1-1.351 1.527c-.586.365-1.26.547-2.02.547-1.146 0-2.074-.398-2.785-1.195-.71-.797-1.066-1.852-1.066-3.164v-.102zm1.453.172c0 .938.217 1.69.652 2.258.435.568 1.017.852 1.746.852.735 0 1.318-.288 1.75-.864.433-.575.649-1.381.649-2.418 0-.927-.22-1.678-.66-2.254-.44-.575-1.025-.863-1.754-.863-.714 0-1.29.284-1.727.852-.437.567-.656 1.38-.656 2.437zm9.414-4.32l.039.937c.62-.729 1.456-1.093 2.508-1.093 1.182 0 1.987.453 2.414 1.359a3.202 3.202 0 0 1 1.097-.984c.451-.25.984-.375 1.598-.375 1.854 0 2.797.981 2.828 2.945V191h-1.445v-5.578c0-.604-.138-1.056-.414-1.356-.276-.3-.74-.449-1.39-.449-.537 0-.983.16-1.337.48-.354.321-.56.752-.617 1.294V191h-1.453v-5.54c0-1.228-.602-1.843-1.805-1.843-.948 0-1.596.404-1.945 1.211V191h-1.445v-8.453h1.367zm12.617 10.719l-.82-.563c.49-.682.745-1.385.765-2.11v-1.304h1.414v1.133c0 .526-.128 1.052-.386 1.578s-.582.948-.973 1.266zm7.86-2.266v-7.336h-1.337v-1.117h1.336v-.867c0-.907.243-1.607.727-2.102.484-.495 1.17-.742 2.055-.742.333 0 .664.044.992.133l-.078 1.172a4.151 4.151 0 0 0-.781-.07c-.47 0-.831.136-1.086.41-.256.273-.383.665-.383 1.175v.89h1.804v1.118h-1.804V191h-1.446zm8.93-7.156a4.331 4.331 0 0 0-.712-.055c-.948 0-1.591.404-1.93 1.211v6h-1.445v-8.453h1.406l.024.976c.474-.755 1.146-1.132 2.016-1.132.28 0 .494.036.64.109v1.344zm4.835 7.312c-1.146 0-2.078-.376-2.797-1.129-.719-.752-1.078-1.759-1.078-3.02v-.265c0-.838.16-1.587.48-2.246a3.748 3.748 0 0 1 1.344-1.547 3.378 3.378 0 0 1 1.871-.558c1.1 0 1.953.362 2.563 1.086.61.724.914 1.76.914 3.109v.601h-5.727c.021.834.265 1.507.73 2.02.467.513 1.06.77 1.778.77.51 0 .943-.105 1.297-.313.354-.208.664-.484.93-.828l.883.687c-.709 1.089-1.771 1.633-3.188 1.633zm-.18-7.578c-.583 0-1.073.212-1.468.637-.396.424-.641 1.02-.735 1.785h4.235v-.11c-.042-.734-.24-1.303-.594-1.706-.354-.404-.833-.606-1.438-.606zm4.797 3.125c0-1.297.308-2.34.922-3.129.615-.789 1.42-1.183 2.414-1.183.99 0 1.774.338 2.352 1.015V179h1.445v12h-1.328l-.07-.906c-.579.708-1.383 1.062-2.414 1.062-.98 0-1.778-.4-2.395-1.203-.617-.802-.926-1.849-.926-3.14v-.11zm1.446.164c0 .959.197 1.709.593 2.25.396.542.943.813 1.64.813.918 0 1.587-.412 2.009-1.235v-3.882c-.433-.797-1.097-1.196-1.992-1.196-.709 0-1.26.274-1.657.82-.396.547-.593 1.357-.593 2.43zm20.414.211c-.063 1.26-.375 2.255-.938 2.984-.562.73-1.315 1.094-2.258 1.094-.974 0-1.599-.437-1.875-1.312-.28.442-.603.772-.965.988a2.159 2.159 0 0 1-1.12.324c-.74 0-1.3-.302-1.68-.906-.38-.604-.521-1.44-.422-2.508.078-.86.275-1.626.59-2.3.315-.675.721-1.205 1.218-1.59.498-.386 1.02-.579 1.567-.579.422 0 .8.056 1.133.168.333.112.708.332 1.125.66l-.407 4.329c-.099 1.203.235 1.804 1 1.804.589 0 1.065-.291 1.43-.875.365-.583.563-1.343.594-2.28.099-2.027-.278-3.571-1.13-4.634-.85-1.062-2.146-1.593-3.886-1.593-1.047 0-1.976.259-2.789.777-.812.518-1.453 1.267-1.922 2.246-.469.98-.732 2.11-.789 3.39-.062 1.292.094 2.413.469 3.364.375.95.947 1.677 1.715 2.18.768.502 1.696.754 2.785.754.469 0 .939-.058 1.41-.172.471-.115.863-.263 1.176-.446l.289.899c-.323.203-.751.37-1.285.5a6.817 6.817 0 0 1-1.621.195c-1.302 0-2.422-.293-3.36-.879-.937-.586-1.639-1.43-2.105-2.531-.466-1.102-.668-2.39-.606-3.863.063-1.433.383-2.72.961-3.864.578-1.143 1.362-2.026 2.352-2.648.99-.622 2.107-.934 3.351-.934 1.297 0 2.41.292 3.336.875.927.584 1.618 1.425 2.07 2.524.454 1.099.65 2.385.587 3.86zm-8.016.664c-.073.74-.004 1.307.207 1.703.211.396.546.594 1.004.594.312 0 .613-.133.902-.398.29-.266.528-.646.715-1.141l.008-.07.36-3.93a2.01 2.01 0 0 0-.938-.227c-.61 0-1.113.31-1.512.93-.398.62-.647 1.466-.746 2.54zm11.344-4.172c.64-.786 1.474-1.18 2.5-1.18 1.786 0 2.687 1.008 2.703 3.024V191h-1.445v-5.594c-.006-.61-.145-1.06-.418-1.351-.274-.292-.7-.438-1.278-.438-.469 0-.88.125-1.234.375s-.63.578-.828.985V191h-1.446v-12h1.446v4.57zm6.984 3.125c0-.828.163-1.573.488-2.234.326-.662.779-1.172 1.36-1.531.58-.36 1.243-.54 1.988-.54 1.151 0 2.082.4 2.793 1.196.711.797 1.066 1.857 1.066 3.18v.101c0 .823-.157 1.561-.472 2.215a3.589 3.589 0 0 1-1.352 1.527c-.586.365-1.259.547-2.02.547-1.145 0-2.074-.398-2.784-1.195-.711-.797-1.067-1.852-1.067-3.164v-.102zm1.453.172c0 .938.218 1.69.653 2.258.434.568 1.017.852 1.746.852.734 0 1.317-.288 1.75-.864.432-.575.648-1.381.648-2.418 0-.927-.22-1.678-.66-2.254-.44-.575-1.025-.863-1.754-.863-.713 0-1.289.284-1.726.852-.438.567-.657 1.38-.657 2.437zm9.625 4.133h-1.445v-12h1.445v12zm3.883 0h-1.445v-12h1.445v12zm1.93-4.305c0-.828.163-1.573.488-2.234.326-.662.779-1.172 1.36-1.531.58-.36 1.243-.54 1.988-.54 1.15 0 2.082.4 2.793 1.196.71.797 1.066 1.857 1.066 3.18v.101c0 .823-.157 1.561-.473 2.215a3.589 3.589 0 0 1-1.351 1.527c-.586.365-1.26.547-2.02.547-1.146 0-2.074-.398-2.785-1.195-.71-.797-1.066-1.852-1.066-3.164v-.102zm1.453.172c0 .938.217 1.69.652 2.258.435.568 1.017.852 1.746.852.735 0 1.318-.288 1.75-.864.433-.575.649-1.381.649-2.418 0-.927-.22-1.678-.66-2.254-.44-.575-1.025-.863-1.754-.863-.714 0-1.29.284-1.727.852-.437.567-.656 1.38-.656 2.437zm8.086 3.375c0-.25.074-.458.222-.625.149-.166.372-.25.668-.25.297 0 .523.084.676.25.154.167.23.375.23.625 0 .24-.076.44-.23.602-.153.161-.379.242-.676.242-.296 0-.52-.08-.668-.242a.855.855 0 0 1-.222-.602zm7.57-.265c.516 0 .966-.157 1.352-.47.385-.312.599-.702.64-1.171h1.368a2.62 2.62 0 0 1-.5 1.383 3.293 3.293 0 0 1-1.231 1.047 3.55 3.55 0 0 1-1.629.39c-1.15 0-2.066-.384-2.746-1.152-.68-.768-1.02-1.82-1.02-3.152v-.243c0-.823.152-1.554.454-2.195a3.451 3.451 0 0 1 1.3-1.492c.566-.354 1.233-.531 2.004-.531.948 0 1.736.283 2.364.851.627.568.962 1.305 1.003 2.211h-1.367c-.041-.547-.248-.996-.62-1.348-.373-.351-.833-.527-1.38-.527-.734 0-1.303.264-1.707.793-.403.529-.605 1.293-.605 2.293v.274c0 .973.2 1.723.601 2.25.401.526.974.789 1.72.789zm4.602-3.282c0-.828.162-1.573.488-2.234.325-.662.779-1.172 1.36-1.531.58-.36 1.243-.54 1.988-.54 1.15 0 2.082.4 2.793 1.196.71.797 1.066 1.857 1.066 3.18v.101c0 .823-.158 1.561-.473 2.215a3.589 3.589 0 0 1-1.351 1.527c-.586.365-1.26.547-2.02.547-1.146 0-2.074-.398-2.785-1.195-.71-.797-1.066-1.852-1.066-3.164v-.102zm1.453.172c0 .938.217 1.69.652 2.258.435.568 1.017.852 1.746.852.735 0 1.318-.288 1.75-.864.433-.575.649-1.381.649-2.418 0-.927-.22-1.678-.66-2.254-.44-.575-1.025-.863-1.754-.863-.714 0-1.29.284-1.727.852-.437.567-.656 1.38-.656 2.437zm9.414-4.32l.039.937c.62-.729 1.456-1.093 2.508-1.093 1.182 0 1.987.453 2.414 1.359a3.202 3.202 0 0 1 1.097-.984c.451-.25.984-.375 1.598-.375 1.854 0 2.797.981 2.828 2.945V191h-1.445v-5.578c0-.604-.138-1.056-.414-1.356-.276-.3-.74-.449-1.39-.449-.537 0-.983.16-1.337.48-.354.321-.56.752-.617 1.294V191h-1.453v-5.54c0-1.228-.602-1.843-1.805-1.843-.948 0-1.596.404-1.945 1.211V191h-1.445v-8.453h1.367zm12.617 10.719l-.82-.563c.49-.682.745-1.385.765-2.11v-1.304h1.414v1.133c0 .526-.128 1.052-.386 1.578s-.582.948-.973 1.266zm6.805-6.563c0-1.318.304-2.366.914-3.144.61-.78 1.416-1.168 2.422-1.168 1.03 0 1.836.364 2.414 1.093l.07-.937h1.32v8.25c0 1.094-.324 1.956-.972 2.586-.649.63-1.52.945-2.614.945-.609 0-1.205-.13-1.789-.39-.583-.26-1.028-.618-1.336-1.07l.75-.868c.62.766 1.378 1.148 2.274 1.148.703 0 1.251-.197 1.644-.593.394-.396.59-.953.59-1.672v-.727c-.578.667-1.367 1-2.367 1-.99 0-1.79-.398-2.402-1.195-.612-.797-.918-1.883-.918-3.258zm1.453.164c0 .953.195 1.702.586 2.246.39.545.937.817 1.64.817.912 0 1.581-.414 2.008-1.243v-3.859c-.442-.807-1.107-1.21-1.992-1.21-.703 0-1.253.273-1.648.82-.396.546-.594 1.356-.594 2.43zm11.375 4.29c-1.146 0-2.078-.377-2.797-1.13-.719-.752-1.078-1.759-1.078-3.02v-.265c0-.838.16-1.587.48-2.246a3.748 3.748 0 0 1 1.344-1.547 3.378 3.378 0 0 1 1.871-.558c1.1 0 1.953.362 2.563 1.086.61.724.914 1.76.914 3.109v.601h-5.727c.021.834.265 1.507.73 2.02.467.513 1.06.77 1.778.77.51 0 .943-.105 1.297-.313.354-.208.664-.484.93-.828l.882.687c-.708 1.089-1.77 1.633-3.187 1.633zm-.18-7.579c-.583 0-1.073.212-1.469.637-.395.424-.64 1.02-.734 1.785h4.234v-.11c-.041-.734-.24-1.303-.593-1.706-.354-.404-.834-.606-1.438-.606zm6.516-1.031l.047 1.062c.646-.812 1.49-1.218 2.53-1.218 1.787 0 2.688 1.007 2.704 3.023V191h-1.445v-5.594c-.005-.61-.145-1.06-.418-1.351-.274-.292-.7-.438-1.278-.438-.468 0-.88.125-1.234.375s-.63.578-.828.985V191h-1.445v-8.453h1.367zm7.492 7.695c0-.25.074-.458.223-.625.148-.166.37-.25.668-.25.297 0 .522.084.675.25.154.167.23.375.23.625 0 .24-.076.44-.23.602-.153.161-.378.242-.675.242-.297 0-.52-.08-.668-.242a.855.855 0 0 1-.223-.602zm4.21 0c0-.25.075-.458.224-.625.148-.166.37-.25.668-.25.296 0 .522.084.675.25.154.167.23.375.23.625 0 .24-.076.44-.23.602-.153.161-.379.242-.675.242-.297 0-.52-.08-.668-.242a.855.855 0 0 1-.223-.602z" fill-opacity=".87" fill="#000"/><path d="M221.676 112.102c30.005-6.512 30.74-26.065 31.531-52.547L249 64l4.207-4.445L257 64M41 223c-38-7-29-37-15.7-55.332L21 169l4.3-1.332V173" stroke="#770BFF" stroke-width="2" stroke-linecap="round" stroke-linejoin="round"/></g></svg>